<svg xmlns="http://www.w3.org/2000/svg" viewBox="0 0 370.93 377.06"><defs><style>.cls-1{fill:#d4a066;}.cls-2{fill:#44b25f;}.cls-3{fill:#ba804b;}.cls-4{fill:#ddb385;}.cls-5{fill:#fcd38c;}.cls-6{fill:#8dc691;}.cls-7{fill:#fcd281;}.cls-8{fill:#fcd280;}.cls-9{fill:#399b49;}.cls-10{fill:#2d7d3e;}.cls-11{fill:#febe20;}.cls-12{fill:#f6a948;}.cls-13{fill:#f39821;}.cls-14{fill:#2d7e3e;}.cls-15{fill:#fab855;}.cls-16{fill:#fab757;}.cls-17{fill:#fab751;}.cls-18{fill:#fab74d;}.cls-19{fill:#fbbb50;}.cls-20{fill:#febe38;}.cls-21{fill:#fbb84d;}</style></defs><g id="Layer_2" data-name="Layer 2"><g id="Layer_1-2" data-name="Layer 1"><path class="cls-1" d="M287.12,365.06l.12,12H83.71l.11-12c1.43-1.35,3.24-1.17,5-1.17q96.69,0,193.38,0C283.88,363.89,285.69,363.71,287.12,365.06Z"/><path class="cls-2" d="M370.93,96.5c-3.6,42.55-14.87,82.34-43.14,115.58C308,235.41,282.31,248.3,252,252.2a178.22,178.22,0,0,1-27.23,1.24c-13.61-.34-21.35,7.34-21.36,21q0,18.33,0,36.66c-1.24,1.37-2.92,1.24-4.51,1.25q-13.44.09-26.88,0c-1.59,0-3.27.12-4.51-1.25q0-18.7,0-37.41c0-12.68-7.95-20.64-20.62-20.27-20.26.6-40-1.58-59-9.21-27.42-11-47.24-30.53-61.59-55.9-13.73-24.26-21.38-50.56-25-78.1C.75,105.68.44,101.08,0,96.49c1.57-1.28,3.09-.36,4.55.2a521.68,521.68,0,0,1,54.16,24.78c1.12.58,3.06.83,2.33,3-4,1.29-8.14.61-12.18,1.41-7,1.37-13.81,3.25-20.12,6.69-1.57.85-3,1.84-3.49,3.69a4.53,4.53,0,0,0,1.6,5c2,1.62,4.24,1.32,6.31.15a53,53,0,0,1,17.64-5.86c5.21-.86,10.44-.41,15.67-.39a3.8,3.8,0,0,1,3.28,1.49c1.15,2.4,1.23,5.05,1.65,7.62a107.64,107.64,0,0,0,4.5,18.1c1.61,4.61,1,5.49-3.7,6.24a92.81,92.81,0,0,0-16.9,4.65,17.62,17.62,0,0,0-3.36,1.62c-2.7,1.7-3.64,4.2-2.52,6.64s3.66,3.35,6.68,2.3c1.65-.57,3.19-1.41,4.84-2,6.49-2.27,13.08-4,20-3.95a3.76,3.76,0,0,1,1.08.38c4.13,6.32,7.64,13,12.46,18.91,2.74,3.35,5.94,6.33,8.19,10.08a1.51,1.51,0,0,1-.31,1.06c-1.08,1.22-2.63,1.88-3.76,3-2.13,2.19-2.43,5-.76,7.08s4.45,2.36,7,.7c6.76-4.32,6.71-4.25,13.08.37a111.83,111.83,0,0,0,56.67,21.15c1.87.17,3.75.32,5.14,1.83,1.19,2.49.53,5.15.71,7.74.26,3.77,2,5.88,4.89,5.91s4.74-2.06,5-5.78c.18-2.59-.45-5.25.64-7.77,1.33-1.59,3.21-1.76,5.08-1.92a110.73,110.73,0,0,0,57.31-21.53c.91-.67,1.83-1.31,2.7-2,2.52-2.06,5-1.92,7.44.11a20.17,20.17,0,0,0,3,2.25c2.46,1.35,5.26.87,6.67-1.26a4.8,4.8,0,0,0-.66-6.47c-1.2-1.27-2.82-2.06-4-3.37a1.55,1.55,0,0,1-.34-1c2.28-4,5.75-7.09,8.6-10.67,4.58-5.74,8-12.18,12-18.34a3.62,3.62,0,0,1,1.08-.42c6.83-.17,13.29,1.6,19.68,3.76,1.29.44,2.55,1,3.81,1.53,4.21,1.78,7.08,1.09,8.25-1.93s-.39-5.55-4.55-7.31a76.06,76.06,0,0,0-18.6-5.41c-4.29-.63-5-1.66-3.58-5.73A108.71,108.71,0,0,0,300,141.06a12,12,0,0,1,1.15-4.31,3.86,3.86,0,0,1,3.23-1.58c11.22-.7,22.15.34,32.35,5.58A16.2,16.2,0,0,0,339.4,142c2.44.71,4.53.16,5.81-2.09a4.5,4.5,0,0,0-1.34-6.3,30.87,30.87,0,0,0-8-4,69.11,69.11,0,0,0-22.61-4.49,6.57,6.57,0,0,1-3.27-.58c-1.11-2.5,1.3-2.59,2.43-3.17,12.74-6.52,25.5-13,38.72-18.51q7.57-3.16,15.22-6.17C367.83,96.12,369.36,95.21,370.93,96.5Z"/><path class="cls-1" d="M305.08,323.22c0,7.06,0,14.12.15,21.18,0,2.07-.54,2.83-2.7,2.77-5.07-.13-10.16,0-15.24,0-2.06,1.63-4.51,1.18-6.84,1.18q-76.84,0-153.69,0-18.69,0-37.39,0c-2,0-4,.22-5.72-1.18-5.08,0-10.17-.11-15.24,0-2.16.06-2.74-.7-2.7-2.77.14-7.06.11-14.12.15-21.18,2-1.78,4.49-1.23,6.8-1.23q53-.06,106.09,0,59.76,0,119.53,0C300.59,322,303.06,321.44,305.08,323.22Z"/><path class="cls-3" d="M83.65,347.15H287.29q-.09,9-.17,17.92H83.82Q83.75,356.1,83.65,347.15Z"/><path class="cls-4" d="M305.08,323.22H65.86c-.06-3.84-1.62-8.68.55-11.21s7-.75,10.71-.76q45.19-.15,90.4-.12h35.9c32.38,0,64.75.11,97.12,0,3.66,0,5.27.72,4.71,4.64A59.77,59.77,0,0,0,305.08,323.22Z"/><path class="cls-5" d="M89.6,95.42a92.38,92.38,0,0,1,20.15-58.6C124.84,17.59,144.37,5.6,168.53,1.31A72.61,72.61,0,0,1,178.05,0a7.27,7.27,0,0,0,4.38,0h6.09a10.17,10.17,0,0,0,5.11,0,96.17,96.17,0,0,1,85.94,76.25,78.86,78.86,0,0,1,1.77,19.21,2.46,2.46,0,0,1,.29,2.88c-2.52.57-1.91-1.55-2.09-2.66-1.34-8.52-3.15-16.95-6.76-24.81-15.1-32.82-40.23-52.64-76.34-57.28-26.86-3.46-50.88,4.09-71.62,21.32C106,50.56,95.06,70.76,91.54,95c-.19,1.33,0,2.78-1.11,3.86a1,1,0,0,1-1.09-.4A2.58,2.58,0,0,1,89.6,95.42Z"/><path class="cls-6" d="M281.14,98.71c.07-1.08.13-2.15.2-3.22a125.76,125.76,0,0,1,46.05-7.8,128.5,128.5,0,0,1,40.68,6.9c1.05.37,2.63.2,2.86,1.91C364,98,357.67,101.25,351.18,104A450.21,450.21,0,0,0,309.6,124c-1.81,2.38-4.88,2.73-7.09,4.46-4.51,2.56-9,5.11-13.46,7.79a73,73,0,0,1-6.67,3.9c-1.08.51-2.57,1.61-3.18-.68a321.7,321.7,0,0,0,.94-33.3C280.29,103.69,279.5,101,281.14,98.71Z"/><path class="cls-6" d="M89.6,95.42l.21,3.27c1.64,2.58.63,5.47.93,8.2,0,10.87-.09,21.74,1,32.57-.55,2.3-2.06,1.28-3.16.76a58.76,58.76,0,0,1-6.71-4c-4.31-2.89-9-5.18-13.46-7.75-2.19-1.77-5.29-2.08-7.07-4.48A484,484,0,0,0,2.52,97,15,15,0,0,0,0,96.49C.28,94.83,1.83,95,2.89,94.62a132.22,132.22,0,0,1,63.32-5.19A144.34,144.34,0,0,1,89.6,95.42Z"/><path class="cls-7" d="M193.63,0a4.83,4.83,0,0,1-5.11,0Z"/><path class="cls-8" d="M182.43,0a3.56,3.56,0,0,1-4.38,0Z"/><path class="cls-9" d="M268.53,207.93c2.17.47,3.67,2,5.16,3.45a6,6,0,0,1,0,8.13,6.17,6.17,0,0,1-8.15.7c-6.25-4.36-6.13-4.2-12.25.24a110.48,110.48,0,0,1-50.46,20.44c-3.79.52-7.59,1-11.38,1.5l-.49-.5c-1.22-6.63-.88-13.28-.2-19.94.84-1.66,2.42-2.06,4.06-2.2a91.5,91.5,0,0,0,33.21-9.52,9.6,9.6,0,0,1,2.83-.93c8.49-.12,16.89.52,24.86,3.75a5.58,5.58,0,0,0,6.42-1C264.09,210.43,265.54,207.89,268.53,207.93Z"/><path class="cls-9" d="M179.45,242.39c-11.07-1.24-22-2.93-32.61-6.7a110.11,110.11,0,0,1-32.18-17.52c-2.73-2.18-4.75-2-7.1,0a27.69,27.69,0,0,1-2.22,2,6.13,6.13,0,0,1-8.14-.69,6.06,6.06,0,0,1,0-8.16,10,10,0,0,1,5.18-3.42c3.06.09,4.59,2.68,6.63,4.3a5.09,5.09,0,0,0,5.76,1c8.07-3.29,16.56-4,25.18-3.89,6.88,2.51,13.41,5.93,20.59,7.71a95.19,95.19,0,0,0,14.68,2.67c1.87.17,3.77.3,4.86,2.22a69.1,69.1,0,0,1-.16,20C179.78,242.06,179.62,242.23,179.45,242.39Z"/><path class="cls-9" d="M280.05,140.72l8.69-5.29c4,1.9,8.25.36,12.34,1l.4.42a98.62,98.62,0,0,1-5.77,26.41c-1.13,2.92-.84,4.06,2.75,4.37,7.34.63,14.27,3.14,20.92,6.27,3.6,1.69,4.75,5.13,3.11,8.35-1.57,3.07-4.8,4.1-8.3,2.45a64.18,64.18,0,0,0-24.75-6c-1.08-2.76,1.14-4.64,1.91-6.87,1.27-3.72,1.2-4-2.79-4a75.08,75.08,0,0,0-12.62.56c-1.56.27-3.44,1-4.82-.71-.46-2.31,1.11-4,1.87-5.93a94.47,94.47,0,0,0,5.48-17.83C278.69,142.74,278.66,141.35,280.05,140.72Z"/><path class="cls-9" d="M82.21,135.42l8.67,5.29c1.29.5,1.31,1.75,1.5,2.8a102.06,102.06,0,0,0,6.78,21.31c.49,1.13,1.13,2.27.36,3.54-5.22.64-10.34-.92-15.58-.63-6,.33-6,.15-3.6,5.79.7,1.62,2.24,3.14,1.16,5.19a63.41,63.41,0,0,0-24.07,5.7c-4.09,1.88-7.31,1.13-9-2.14-1.75-3.43-.43-6.74,3.77-8.69a65.15,65.15,0,0,1,21-6c2.75-.28,3.09-1.31,2.22-3.59a102.93,102.93,0,0,1-6-27.13l.4-.41C74,135.79,78.22,137.33,82.21,135.42Z"/><path class="cls-9" d="M102.42,207.2c-8.4-8.28-15.52-17.48-20.27-28.37,2.65-2,5.74-1.25,8.57-1a61.56,61.56,0,0,1,17,3.74c3.68,1.9,5.34,5.81,8.34,8.42a83.75,83.75,0,0,1,6.59,6.6c.83.91,2.32,1.74,1.3,3.42-6.47,1.58-12.86,3.35-18.67,6.75A3.15,3.15,0,0,1,102.42,207.2Z"/><path class="cls-9" d="M288.79,178.83c-4.74,10.89-11.87,20.08-20.26,28.37a3.18,3.18,0,0,1-2.83-.4c-5.8-3.37-12.12-5.27-18.61-6.69a1.25,1.25,0,0,1,0-2c5.37-5.51,10.35-11.4,16.14-16.51,7-2.32,14-4.06,21.44-3.93C286.1,177.73,287.66,177.53,288.79,178.83Z"/><path class="cls-9" d="M61.36,124a24.47,24.47,0,0,1,7.4,3.87c1.88,2.81,2.62,5.72.81,8.87l-.11.1a55.15,55.15,0,0,0-21.42.26,46.64,46.64,0,0,0-14.6,5.34c-3.78,2.14-7.28,1.17-8.95-2.14s-.37-6.51,3.48-8.56A67.33,67.33,0,0,1,61.36,124Z"/><path class="cls-9" d="M302.18,127.9A23.67,23.67,0,0,1,309.6,124,67.92,67.92,0,0,1,343,131.78c3.95,2.1,5.24,5.56,3.3,8.9-1.86,3.18-5.41,3.74-9.11,1.57a45.72,45.72,0,0,0-20.89-6c-4.9-.28-9.94-.94-14.81.65l-.11-.11A7.52,7.52,0,0,1,302.18,127.9Z"/><path class="cls-10" d="M102.42,207.2c6.93-3.56,13.77-7.36,21.85-7.59.11-.06.27-.2.33-.16,5.49,3,11,6,15.33,10.65-9.18.4-18.37.76-26.87,4.88-1.41.69-2.3.1-3.3-.79-2.41-2.13-4.9-4.18-7.35-6.26C102.41,207.68,102.41,207.44,102.42,207.2Z"/><path class="cls-10" d="M246.67,199.61c8.07.25,14.94,4,21.86,7.59v.73c-1.83,1.48-4,2.7-5.41,4.49-2.39,3-4.76,2.94-8,1.49-7.64-3.39-15.92-3.39-24.08-3.8-.06-1.25,1-1.6,1.76-2.13,3.75-2.58,7.68-4.9,11.23-7.75C244.77,199.62,245.58,199,246.67,199.61Z"/><path class="cls-10" d="M288.79,178.83c-8.23-.68-16.13,1-24,3.26a17,17,0,0,1-2.16.34c-.59-1.4.43-2.33,1.06-3.3a105.94,105.94,0,0,0,6.16-10.42c.3-.62.6-1.4,1.59-1.11a178.78,178.78,0,0,1,19.08-.87c2.73.06,4.11.39,2.51,3.5-1.41,2.73-2.44,5.65-3.63,8.48Z"/><path class="cls-10" d="M108.26,182.43c-4.94-.85-9.71-2.45-14.71-3.17a87.11,87.11,0,0,0-11.4-.43l-.65-.12c-1.35-3.17-2.67-6.35-4-9.51-.67-1.54-.34-2.4,1.44-2.4,6.89,0,13.81-.49,20.56,1.45A1.3,1.3,0,0,1,101,169c2.32,3.94,4.78,7.79,7.17,11.68A1.55,1.55,0,0,1,108.26,182.43Z"/><path class="cls-9" d="M191.49,242.39c0,3,.06,6-.06,8.93-.14,3.75-2.62,6.1-6.15,6-3.36-.09-5.64-2.39-5.77-6-.11-3,0-5.95-.06-8.93l.12-.12a14.68,14.68,0,0,1,11.8,0Z"/><path class="cls-11" d="M281.14,98.71c0,2.51-.05,5-.08,7.53-.37.78-.05,1.68-.39,2.47a18.68,18.68,0,0,0-.18,3.66c-.65,8.07-3.55,15.51-6.77,22.78-12.07,27.26-33,44.58-61.06,53.64-3.47,1.12-7.08,1.33-10.61,2.05a15.32,15.32,0,0,0-3.92.55,9.31,9.31,0,0,1-1.73.28c-2,.11-4-.12-5.92.55a17.17,17.17,0,0,1-6.19,0,12.3,12.3,0,0,0-4.18-.49c-1.82,0-3.63,0-5.44-.05a8.5,8.5,0,0,1-1.75-.26A10.7,10.7,0,0,0,169,191c-11.2-1.28-21.5-5.31-31.19-10.78a93.46,93.46,0,0,1-36-35.47,89.19,89.19,0,0,1-11.37-32.55,13,13,0,0,0-.34-4c0-.62,0-1.23,0-1.84.14-2.56-.31-5.13.26-7.67a91.25,91.25,0,0,1,21.35-52c14.4-17.33,32.82-28.7,55-32.95,28.09-5.37,54.07.39,76.81,17.9,21.52,16.57,34,38.63,37.08,65.8A5.33,5.33,0,0,0,281.14,98.71Z"/><path class="cls-12" d="M90.34,98.61l.08,8.31c-.19.32-.4.33-.61,0V98.69A4.85,4.85,0,0,0,90.34,98.61Z"/><path class="cls-13" d="M89.81,106.94c.2,0,.41,0,.61,0,0,.5,0,1,0,1.5.85,1.12-.19,2.61.72,3.71a113.41,113.41,0,0,0,8.47,26.26A91.39,91.39,0,0,0,120.05,166c13.14,12.38,28.81,20,46.37,23.89A14.17,14.17,0,0,0,169,190c1.11.91,2.6-.12,3.71.73l1.56,0c2,.78,4,.18,6,.37,1.22.13,2.48-.3,3.65.33h6.8c1.88-.91,4,.28,5.89-.7l1.56,0c1.12-.84,2.6.2,3.7-.72a78.28,78.28,0,0,0,22.73-6.7,106.94,106.94,0,0,0,21.79-13.45,88.73,88.73,0,0,0,22.7-27.31c5.16-9.51,9.1-19.56,10.64-30.39.91-1.11-.13-2.6.73-3.71.05-.77-.12-1.59.57-2.18a214.66,214.66,0,0,1-1,34.48,94.9,94.9,0,0,1-8.57,26.88,125.87,125.87,0,0,1-8.81,14.83c-4.74,6.28-10.37,11.73-16,17.18L231,210.11c-9.94,4.8-20.19,8.64-31.2,10.15l-8.43,1.17a14.13,14.13,0,0,1-11.83,0c-9.17-1.28-18.38-2.44-27.05-6-4.23-1.72-8.39-3.59-12.58-5.38l-15.66-10.49c-5.61-5.47-11.28-10.88-16-17.18l-8.82-14.18c-3.77-8.9-7.19-17.9-8.57-27.54C89.41,129.49,89.55,118.22,89.81,106.94Z"/><path class="cls-14" d="M302.18,127.9c-1.05,2.89-.58,5.91-.81,8.86-2.86-.07-5.6,1.41-8.47.73-1.5-.35-3.29-.36-4.16-2.06Z"/><path class="cls-14" d="M69.57,136.77a39.44,39.44,0,0,0-.81-8.87,118.06,118.06,0,0,1,13.45,7.52c-2.42,2.64-5.51,2.32-8.61,1.92C72.26,137.17,70.91,137,69.57,136.77Z"/><path class="cls-10" d="M179.56,221.43h11.83q0,10.42,0,20.85h-11.8Q179.57,231.86,179.56,221.43Z"/><path class="cls-13" d="M144.3,68c2.93-11.33,9.59-19.45,20.58-23.77,2-.81,2.75-2.06,2.68-4.26-.16-5.11-.08-10.22,0-15.34,0-4.39,2.36-6.9,6.16-6.79,3.63.1,5.76,2.55,5.79,6.79.05,4.61.1,9.23,0,13.84-.06,2.28.42,3.33,3.05,3.37,9,.16,9,.27,9-8.64,0-3.12-.09-6.24,0-9.36.12-3.63,2.43-5.93,5.82-6s6,2.29,6.1,6.09c.11,4.48.28,9-.05,13.46-.27,3.73,1.12,4.75,4.64,4.45s7,.05,10.46-.1c2.34-.1,3,.82,3,3-.11,5.86-.15,11.72,0,17.58.07,2.61-.77,3.43-3.39,3.41-13.22-.12-26.44-.07-39.65,0-5.77,0-8.42,1.65-10.24,6.21a8.52,8.52,0,0,0,8,11.72c5.48.1,11-.13,16.46.06,9.72.32,18.66,2.8,25.38,10.43,5.11,5.8,9.42,12,8.74,20.33a18.57,18.57,0,0,0,.65,4.38c-1,1.37.17,3.08-.73,4.46-2.85,11.85-9.78,20.19-21.31,24.44-1.66.61-1.94,1.56-1.92,3.07.05,5.36.06,10.72,0,16.08,0,4.13-2.34,6.58-6,6.57s-5.89-2.47-5.94-6.63c-.05-4.74-.08-9.47,0-14.21,0-2.12-.45-3.08-2.87-3.16-9.14-.29-9.14-.38-9.14,8.82,0,3,.07,6,0,9-.11,3.83-2.47,6.21-6,6.2s-5.87-2.4-5.94-6.26c-.08-4.85-.13-9.72,0-14.57.08-2.52-.87-3.25-3.26-3.15-4,.15-8,0-12,.07-2.1.06-2.85-.7-2.82-2.81.1-6,.16-12,0-17.94-.09-2.78,1.07-3.29,3.52-3.27,13.2.09,26.42-.16,39.62.11,8.33.18,10.54-4.39,10.74-9,.22-5.06-4.37-8.79-10.75-9-6.71-.23-13.43.25-20.15-.32-11.71-1-19.66-7.34-25.12-17.25-3-5.45-3.7-11.49-3.79-17.62C144.53,71.11,143.4,69.41,144.3,68Z"/><path class="cls-13" d="M263.28,98.64a9,9,0,1,1-9.11-8.93A9.35,9.35,0,0,1,263.28,98.64Z"/><path class="cls-13" d="M251.31,71.77a6,6,0,1,1-5.76-6A5.84,5.84,0,0,1,251.31,71.77Z"/><path class="cls-15" d="M180.22,191.44c-2-.25-4.09.75-5.92-.7h5.91c.26.15.35.31.26.46S180.3,191.44,180.22,191.44Z"/><path class="cls-16" d="M196.64,190.74c-1.82,1.45-3.93.45-5.89.7C192.57,190,194.68,191.05,196.64,190.74Z"/><path class="cls-17" d="M144.3,68c-.19,1.49.59,3.14-.73,4.45C143.81,71,143,69.33,144.3,68Z"/><path class="cls-17" d="M226.64,123.35c.19-1.49-.59-3.15.73-4.46C227.14,120.38,228,122,226.64,123.35Z"/><path class="cls-18" d="M172.74,190.71c-1.26-.13-2.67.51-3.71-.73C170.28,190.15,171.7,189.47,172.74,190.71Z"/><path class="cls-19" d="M201.9,190c-1,1.23-2.44.6-3.7.72C199.24,189.47,200.65,190.16,201.9,190Z"/><path class="cls-20" d="M180.22,191.44c0-.24,0-.47,0-.7,1.26.15,2.68-.5,3.74.7Z"/><path class="cls-18" d="M280.49,108.42c-.13,1.26.51,2.67-.73,3.71C279.92,110.88,279.24,109.46,280.49,108.42Z"/><path class="cls-21" d="M91.18,112.13c-1.24-1-.59-2.45-.72-3.71C91.7,109.46,91,110.88,91.18,112.13Z"/></g></g></svg>