<svg xmlns="http://www.w3.org/2000/svg" viewBox="0 0 359.49 335.36"><defs><style>.cls-1{fill:#d7e6ef;}.cls-2{fill:#65aee0;}.cls-3{fill:#fed20d;}.cls-4{fill:#f9a01f;}.cls-5{fill:#a6c3dc;}.cls-6{fill:#4083c4;}.cls-7{fill:#fbba16;}.cls-8{fill:#fbb517;}.cls-9{fill:#b9d1e4;}.cls-10{fill:#559cd4;}.cls-11{fill:#569cd4;}.cls-12{fill:#59a0d7;}.cls-13{fill:#565b6f;}</style></defs><g id="Layer_2" data-name="Layer 2"><g id="Layer_1-2" data-name="Layer 1"><path class="cls-1" d="M179.3,39.75c2.88-1.92,4.07-5.2,6.15-7.76C199,15.33,216.14,5,237.21,1,244-.31,250.79.11,257.61.1c1.23.72,2.58.19,3.86.35,16.31.36,30.26,7.08,42.59,17,23,18.43,34.17,42.89,32,72.1-2.29,30.94-17.57,54.44-45.27,69.37a86,86,0,0,1-31.23,9.51,15.06,15.06,0,0,1-2.49.34c-4.76,0-9.53.27-14.28-.19-7.12-1.13-14.22-2.44-21-5.05a85.35,85.35,0,0,1-38.92-29.7c-1.4-1.9-2.79-3.81-4.22-5.7-3.07-6.32-6.29-12.57-8.3-19.36a79.65,79.65,0,0,1-2.95-14.48,24,24,0,0,1-.74-5.52c0-3.23,0-6.46,0-9.69a24.25,24.25,0,0,1,.76-5.55C168.87,61.37,172.44,50,179.3,39.75Z"/><path class="cls-2" d="M89.26,335.15C47.76,338.09,11,309.48,2.13,270.26A84,84,0,0,1,67.78,169.05c2.26-.45,4.77,0,6.81-1.47,4.56-2,9.29-.81,14-.76a13.78,13.78,0,0,0,4.86.59c15.6,1.33,29.45,7.15,41.82,16.57,18.23,13.89,28.77,32.39,32.57,54.86a25.92,25.92,0,0,1,.21,3.73,12.47,12.47,0,0,0,.55,4.12,32,32,0,0,1,0,8.8,13.71,13.71,0,0,0-.55,4.72c-.62,13.19-5.29,25.11-12.15,36.1-12,19.25-29.32,31.57-51.25,37.4a46.52,46.52,0,0,1-11.47,1.17C91.86,335,90.53,334.61,89.26,335.15Z"/><path class="cls-3" d="M167.64,256v-9.76c-.45-1.17-.16-2.38-.24-3.57.69-12.85,5-24.5,11.64-35.41a86.38,86.38,0,0,1,31.48-30,80.36,80.36,0,0,1,27-9.38,13.56,13.56,0,0,1,4.45,0l15.63-.06c1.32.67,2.6-.07,3.89-.1,12.18.48,23.16,4.83,33.37,11,23.8,14.44,37.52,35.65,40.79,63.28,3.23,27.3-5.77,50.62-24.79,70-10.58,10.81-23.68,17.73-38.33,21.57a44,44,0,0,1-11.1,1.28c-1.52.12-3.07-.28-4.57.25-32.36,1.29-57.55-11.62-75.82-38.26-.42-.61-.92-1.17-1.38-1.75-3.89-3.13-5.27-7.78-6.94-12.13-2.79-7.31-5.32-14.76-5.29-22.76C167.5,258.81,167.18,257.37,167.64,256Z"/><path class="cls-3" d="M89.25,167.79l-14.67-.21c-7.49-1.56-15.08-2.81-22.15-5.94C23.25,148.72,5.5,126.77.94,95-5.42,50.77,24.39,11.18,65.53,2A89.28,89.28,0,0,1,90,.19c1.26.52,2.58.15,3.87.26C106.11.39,117,5,127.17,11.1,149.38,24.34,162.49,44,167.41,69.3a17.34,17.34,0,0,1,.29,4.82,7.89,7.89,0,0,0,0,4.49V89.13a7.75,7.75,0,0,0,0,4.45c-.05,8.4-2.66,16.2-5.95,23.74C152,139.73,135.38,155,112.59,163.64a57,57,0,0,1-18.52,4c-1.43,0-2.86,0-4.29.05Z"/><path class="cls-4" d="M261.33,334.54c16.16-1.65,30.4-8,43-18a84,84,0,0,0,30.45-73.95,82.93,82.93,0,0,0-15.22-39.89c-13-18.11-30.58-29.1-52.37-33.48-1.94-.39-3.92-.55-5.88-.82-.26-.53-.1-.87.47-1,5.4-.25,10.77-1.11,16.2-.82,1.69.09,3.5-.24,4.84,1.22,6.72,1.21,13.46,2.21,20,4.44,35.69,12.25,59.49,48.17,56.35,85.17-3.31,38.9-31.32,70-68.81,76.56-9.66,1.69-19.35,1.36-29.05,1.23-.24-.14-.32-.28-.23-.41S261.24,334.54,261.33,334.54Z"/><path class="cls-5" d="M282.84,167.74l-21.53,0c-.56.27-1.09.35-1.51-.25,3.14-.55,6.32-.95,9.42-1.67,16.91-3.92,31.66-11.84,43.46-24.62a83,83,0,0,0,22-47.48c2.77-22.93-3.24-43.45-17.14-61.48-13-16.87-30.3-27.24-51.47-30.85a22.82,22.82,0,0,0-4.78-.65c-.26-.15-.34-.29-.26-.44s.18-.21.27-.21c13.82-.31,27.63-.53,40.9,4.29,29.58,10.73,48.47,31.48,55.18,62.06,5.79,26.39-.6,50.5-18,71.43-13.49,16.21-30.94,25.36-51.52,28.92C286.18,167.13,284.32,166.38,282.84,167.74Z"/><path class="cls-4" d="M167.05,74.11c-1.17-13.29-5.94-25.36-13.14-36.4-10.71-16.4-25.77-27.35-44.22-33.65a66.11,66.11,0,0,0-16-3.29c-.26-.12-.35-.24-.27-.38s.17-.2.25-.2C108.91-.36,124,0,138.43,5.79c17.31,7,30.75,18.42,40.87,34,.51,1.55-.65,2.54-1.27,3.68a84.06,84.06,0,0,0-9.73,30C168.07,74,167.73,74.39,167.05,74.11Z"/><path class="cls-6" d="M167.74,260.35c1.1,5,2,10.15,3.36,15.14,1.86,6.95,5.16,13.32,8.54,19.63-8.18,12.49-18.42,22.77-31.66,29.93a83.5,83.5,0,0,1-40.06,10.2c-5,0-10-.08-14.94-.12-.27-.13-.35-.26-.26-.39a.36.36,0,0,1,.27-.18c16.26-1.21,30.52-7.54,43.14-17.53,15.44-12.23,25.23-28.17,29.64-47.37a35.91,35.91,0,0,0,1.28-9.17C167.22,260.15,167.45,260.09,167.74,260.35Z"/><path class="cls-7" d="M261.33,334.54q0,.3,0,.6h-4.46C258.21,334,259.83,334.69,261.33,334.54Z"/><path class="cls-8" d="M93.7.19a5.82,5.82,0,0,0,0,.59C92.46.69,91.09,1.24,90,.19Z"/><path class="cls-9" d="M261.33.14a4.7,4.7,0,0,0,0,.65c-1.25-.14-2.66.52-3.72-.69Z"/><path class="cls-10" d="M93,334.56a3.62,3.62,0,0,0,0,.57l-3.72,0C90.37,334.07,91.73,334.65,93,334.56Z"/><path class="cls-5" d="M251.87,24a59.84,59.84,0,1,1-60.12,59A59.74,59.74,0,0,1,251.87,24Z"/><path class="cls-4" d="M179.29,128c-11.56,17.75-27.24,30.05-47.6,36.27-5.49,1.67-11.18,2.22-16.75,3.4-1.28,1.31-3,1-4.53,1.11A121.22,121.22,0,0,1,95.29,168,11.21,11.21,0,0,1,94,168a.65.65,0,0,1-.27-1,77.35,77.35,0,0,0,32.9-11c19.77-11.71,32.29-29,38.42-51a45.43,45.43,0,0,0,2-11.3c.68-.28,1,.08,1.26.66a83.86,83.86,0,0,0,9.73,30C178.66,125.44,179.84,126.43,179.29,128Z"/><path class="cls-7" d="M168.31,94.29l-1.26-.67c.15-1.5-.55-3.12.61-4.49Z"/><path class="cls-7" d="M167.05,74.11l1.25-.66c-.21,1.72-.43,3.44-.64,5.16C166.5,77.24,167.2,75.61,167.05,74.11Z"/><path class="cls-8" d="M259.8,167.54l1.51.25c0,.19,0,.39,0,.58-1.27-.09-2.63.46-3.75-.58Z"/><path class="cls-6" d="M143.82,251.81a59.85,59.85,0,1,1-59-60.22C117.15,191.74,143.85,218.9,143.82,251.81Z"/><path class="cls-6" d="M93.66,167.79l21.28-.14c6.94,1.34,14,2.21,20.69,4.67a84.51,84.51,0,0,1,41.84,32.38c.7,1,1.46,2,2.2,3-5.06,9.17-9,18.74-10.86,29.1-.35,1.92.13,4-1.07,5.76-.28.29-.5.23-.67-.11-1.32-16.23-7.53-30.54-17.54-43.15a81.38,81.38,0,0,0-47.38-29.62c-2.77-.62-5.62-.87-8.43-1.28-.22-.12-.31-.24-.25-.38S93.59,167.79,93.66,167.79Z"/><path class="cls-11" d="M93.66,167.79q0,.3.06.6c-1.5-.16-3.1.54-4.47-.6l-.07-.25a9.34,9.34,0,0,1,4.52,0Z"/><path class="cls-12" d="M167.74,260.35a5.63,5.63,0,0,1-.69.14c.14-1.51-.54-3.13.59-4.51C167.68,257.43,167.71,258.89,167.74,260.35Z"/><path class="cls-10" d="M167.07,242.44a5.2,5.2,0,0,1,.67.11l-.09,3.67C166.6,245.09,167.14,243.72,167.07,242.44Z"/><path class="cls-4" d="M194.76,269.46c-3.17-7.37-3.56-15.2-2.92-23a58,58,0,0,1,17.59-37.64c13-12.72,29-18.5,47.16-17.14a59.83,59.83,0,0,1,54.22,51.48c1.16,9,.68,17.72-2.43,26.26-1.24,1.1-2.77,1-4.26,1q-5.79,0-11.58,0c-5.49,0-6.05-.55-6.07-5.94,0-11,0-21.93-.05-32.89,0-2.25,1-5.37-1.57-6.43s-4,1.93-5.61,3.5c-7.9,7.77-15.69,15.67-23.55,23.48-3.7,3.67-4.53,3.67-8.23,0-8-7.9-15.86-15.85-23.79-23.77a20.88,20.88,0,0,0-3-2.78c-2-1.33-3.2-.84-3.75,1.53a18.11,18.11,0,0,0-.2,4.1c0,11.09,0,22.17,0,33.26,0,5.39-.58,5.9-6.07,5.94q-5.79,0-11.59,0C197.54,270.44,196,270.56,194.76,269.46Z"/><path class="cls-13" d="M303.11,281.43c-9.26,16.09-23.19,26-41.34,28.87-24.87,3.93-44.88-4.94-59.7-25.35a37,37,0,0,1-2-3.52c1.3-1.32,3-1.06,4.58-1.07,5.48-.05,11,0,16.44,0,4.95,0,5.49-.59,5.51-5.67,0-7,0-13.94,0-20.91a19.86,19.86,0,0,1,.16-3.36c.35-2,1.3-2.61,3.07-1.36a22,22,0,0,1,2.76,2.52c4.94,4.92,9.83,9.89,14.8,14.77,3.51,3.45,4.9,3.45,8.41,0,5-4.89,9.87-9.85,14.8-14.77a21.94,21.94,0,0,1,2.76-2.52c1.78-1.25,2.73-.6,3.06,1.37a19.75,19.75,0,0,1,.17,3.35c0,7,0,13.95,0,20.92,0,5.08.55,5.63,5.52,5.66,5.47,0,10.95,0,16.43,0C300.12,280.37,301.81,280.12,303.11,281.43Z"/><path class="cls-1" d="M303.11,281.43c-7.48,0-15,0-22.44,0-4.42,0-5.14-.76-5.15-5.27,0-9.06,0-18.13-.87-27.88-1.87,2-3.69,4.17-5.64,6.14-4.72,4.8-9.54,9.5-14.25,14.31-2.21,2.25-4.15,2.24-6.36,0-6.63-6.76-13.33-13.44-20.77-20.93V254c0,7.36,0,14.71,0,22.07,0,4.51-.74,5.26-5.14,5.28-7.48,0-15,0-22.44,0a35.32,35.32,0,0,1-5.28-12c5.73,0,11.47-.25,17.18.05,3.28.16,3.83-1,3.79-4-.17-12.33-.08-24.66-.06-37,0-1.82-.44-3.87,1.77-4.87,2.43-1.11,3.66.82,5,2.17,9,9,18,17.91,26.92,27,1.71,1.74,2.66,1.78,4.4,0,8.89-9.07,17.9-18,26.9-27,1.37-1.35,2.59-3.29,5-2.18,2.21,1,1.78,3.05,1.78,4.87,0,12.33.11,24.66-.06,37,0,3,.5,4.12,3.78,4,5.71-.3,11.45-.06,17.18-.05A35.78,35.78,0,0,1,303.11,281.43Z"/><path class="cls-4" d="M143.82,84.17a59.91,59.91,0,0,1-60.34,59.58c-32.41-.19-59.79-27.13-59.42-60.58A60.12,60.12,0,0,1,84.82,24C117.2,24.25,143.84,51.22,143.82,84.17Z"/><path class="cls-7" d="M93.7,167.54H89.18c1.39-1.12,3-.45,4.54-.6C93.71,167.14,93.7,167.34,93.7,167.54Z"/><path class="cls-6" d="M251.91,131.76a6.36,6.36,0,0,1-5.72-3.32c-5.8-9.73-11.66-19.41-17.48-29.12-1.69-2.8-1.58-5.56.83-7.82s5.14-2.17,7.86-.36c3.62,2.41,7.36,4.67,10.84,7.28,2.33,1.73,4.11,2,6.55.11,3.43-2.67,7.22-4.87,10.83-7.31,2.84-1.91,5.67-2,8.14.44s2.25,5.07.57,7.85q-8.67,14.38-17.29,28.8A6.41,6.41,0,0,1,251.91,131.76Z"/><path class="cls-2" d="M257.6,87c-4.25,3.57-6.67,3.86-11,1Q238.78,83,231.1,77.71c-3.75-2.56-4.6-5.59-2.27-9.63,5.57-9.67,11.23-19.28,17.08-28.78,3.26-5.3,9.25-4.23,12.33,2,1,13.78.27,27.59.45,41.39A11.42,11.42,0,0,1,257.6,87Z"/><path class="cls-6" d="M257.6,87q0-21.84,0-43.69c0-.74,0-1.5.68-2Q266.13,54.55,274,67.8c2.43,4.07,1.92,6.92-1.9,9.52C267.33,80.59,262.45,83.77,257.6,87Z"/><path class="cls-1" d="M67.4,258.21c-2.51.81-4.36,1.45-6.24,2a2.9,2.9,0,0,1-3.92-1.88c-.64-1.84.37-3.1,2.08-3.81a5.7,5.7,0,0,1,1.41-.47c7.5-.92,10.93-5.48,12.94-12.55,2.6-9.19,6.34-18.06,9.68-27,1.77-4.76,4.94-6.47,8.84-5s5.16,4.91,3.5,9.56c-3,8.42-6.12,16.82-9.27,25.48,2.85.82,5.11-.81,7.47-1.52,2-.61,3.87-.74,4.72,1.44,1,2.47-.73,3.6-2.85,4.28a45.27,45.27,0,0,1-5.66,1.89c-5,.89-8,3.57-9.18,8.7-.85,3.73-2.52,7.28-3.81,10.91-1.62,4.55-1.61,4.55,3.39,4.55h24.67a29.83,29.83,0,0,1,3,.05c3.73.43,6.38,3.22,6.36,6.63A6.51,6.51,0,0,1,108.1,288c-14.08.15-28.16.2-42.24,0-4.87-.08-7.46-4.33-5.88-9C62.26,272.22,64.75,265.59,67.4,258.21Z"/><path class="cls-3" d="M66,83.85c0-6.85-.09-13.7,0-20.55.06-2.56-.67-3.74-3.34-3.4a14.23,14.23,0,0,1-3,0A6,6,0,0,1,59.7,48c5.76-.52,5.76-.52,6.32-6.35A6,6,0,0,1,78,41.72a16.48,16.48,0,0,1,0,3C77.71,47,78.45,48,81,48c2.72,0,3.15-1.25,3-3.44a16.59,16.59,0,0,1,0-3A5.79,5.79,0,0,1,89.81,36c3.38-.07,6.22,2.24,6,5.72-.26,4.35.7,6.74,5.39,8.29,11.05,3.64,17.53,19.07,8.27,31.71-1.3,1.78-1.25,2.57,0,4.33,9,12.46,3.65,28.37-11,32.89-2,.62-2.61,1.52-2.53,3.38a28,28,0,0,1,0,4.1,5.74,5.74,0,0,1-6.1,5.32c-3.33-.16-5.26-2-5.78-5.26a14,14,0,0,1,0-3.36c.19-2.22-.3-3.42-3-3.41s-3.29,1.06-3,3.35a17.62,17.62,0,0,1,0,2.62c-.2,3.78-2.61,6.16-6.14,6.07-3.36-.08-5.61-2.39-5.82-6a6.18,6.18,0,0,1,0-1.49c.6-3.61-.86-4.76-4.48-4.54-4.87.29-7.41-1.92-7.5-5.75-.09-4,2.53-6.36,7.57-6.06,3.71.22,4.63-1.07,4.48-4.61C65.8,96.82,66,90.33,66,83.85Z"/><path class="cls-4" d="M86.92,107.8c-8.94,0-8.94,0-8.94-8.89,0-9.06,0-9.13,9.16-9,4,0,8.24-1,11.65,2.37,2.73,2.68,3.93,5.67,2.53,9.39a8.82,8.82,0,0,1-8.06,6.12C91.16,107.93,89,107.8,86.92,107.8Z"/><path class="cls-4" d="M86.81,77.86c-8.83,0-8.83,0-8.83-8.62,0-9.32,0-9.38,9.28-9.28,4,0,8.23-1,11.62,2.44,2.71,2.73,3.82,5.73,2.41,9.43a8.77,8.77,0,0,1-7.78,6C91.3,78,89,77.86,86.81,77.86Z"/></g></g></svg>