<svg xmlns="http://www.w3.org/2000/svg" viewBox="0 0 341.29 347.3"><defs><style>.cls-1{fill:#f05446;}.cls-2{fill:#69a844;}.cls-3{fill:#4fb8e5;}.cls-4{fill:#80c342;}.cls-5{fill:#81c342;}.cls-6{fill:#faa71b;}.cls-7{fill:#f4c067;}.cls-8{fill:#f5b142;}.cls-9{fill:#ec8623;}</style></defs><g id="Layer_2" data-name="Layer 2"><g id="Layer_1-2" data-name="Layer 1"><path class="cls-1" d="M262.35,24c-6.57,0-13.15-.08-19.72.05-2.28,0-3.3-.35-3.21-3,.21-6.1.15-12.22,0-18.32C239.39.61,240,0,242.14,0q30.3.12,60.6,0c2.22,0,2.63.78,2.63,2.79q-.11,30.12,0,60.23c0,2.27-.52,3-2.88,2.93-6.11-.17-12.22-.18-18.33,0-2.43.07-2.87-.79-2.83-3,.13-6.71.05-13.42.05-20.79-1.36,1.26-2.35,2.11-3.27,3q-41.93,41.91-83.79,83.9c-2.22,2.23-3.26,2.19-5.45,0-18.15-18.35-36.48-36.53-54.65-54.86-1.94-2-2.9-2.08-4.91,0-22.23,22.39-44.59,44.63-66.82,67-2.08,2.1-3.18,2.13-5.17,0-4.23-4.57-8.69-8.94-13.21-13.24-1.7-1.62-1.91-2.56-.08-4.38q42.81-42.63,85.43-85.44c1.91-1.92,2.85-1.73,4.64.08,18.19,18.32,36.52,36.49,54.65,54.86,2.39,2.43,3.53,2.18,5.77-.08q32.67-32.94,65.56-65.64a23.2,23.2,0,0,1,3-2.21Z"/><path class="cls-2" d="M324.79,251.6c4.72,0,9.45,0,14.18-.16,1.8-.06,2.31.54,2.31,2.32q-.11,21.66,0,43.33c0,2.24-1,2.31-2.72,2.29-6.1-.06-12.2.11-18.3-.08-2.55-.09-3,.8-3,3.14.1,13.95,0,27.9.06,41.84,0,1.68.23,3-2.35,3-19.17-.14-38.34-.13-57.52-.18-2.09-4-1-8.27-.81-12.45.68-2.17,2.62-2.84,4.43-3.64,14-6.19,25.47-15.77,35.52-27.16.78-.89,1.77-1.75,1.87-3.37-4.34-.39-8.65-.05-13-.21-1.67-.06-3.56.39-4.71-1.45a40.44,40.44,0,0,1-.22-11.93c.48-1.93,2.08-2.7,3.68-3.39,15.23-6.66,27.64-16.93,38.05-29.75A6.1,6.1,0,0,1,324.79,251.6Z"/><path class="cls-3" d="M305.33,138.11c0,14.58-.06,29.17.05,43.75,0,2.77-.48,4-3.62,3.84-5.72-.27-11.47-.18-17.2,0-2.35.06-3.23-.53-3.23-3.08q.14-44.86,0-89.73c0-2.57.92-3.12,3.25-3.06,5.86.13,11.72.19,17.57,0,2.78-.1,3.24,1,3.23,3.47C305.28,108.2,305.33,123.16,305.33,138.11Z"/><path class="cls-3" d="M125.76,185.6c0,14.71-.1,29.41.07,44.12,0,3.21-1,4-4,3.86-5.6-.24-11.22-.16-16.82,0-2.32.06-3.27-.46-3.26-3.05q.13-44.85,0-89.72c0-2.54.85-3.15,3.22-3.1,5.86.15,11.72.19,17.57,0,2.75-.09,3.27,1,3.26,3.44C125.71,155.94,125.76,170.77,125.76,185.6Z"/><path class="cls-4" d="M179.75,245.49c0-13.21-.05-26.42-.15-39.62,0-1.79.53-2.33,2.32-2.32,17.19.09,34.39.11,51.58.15,1.27,1.29,1.17,3,1.18,4.54q.06,16.15,0,32.3a7.08,7.08,0,0,1-.93,4.29c-3.58,1.76-7.5,1.73-11.3,1.78-12.58.18-25.17.08-37.75,0C183,246.66,181.17,246.85,179.75,245.49Z"/><path class="cls-5" d="M203.7,293.38l-.2-41.86c1.13-1.25,2.67-1.21,4.14-1.21,8.55,0,17.1-.16,25.65.06,7.89.17,15.81-.68,23.68.49a2.31,2.31,0,0,1,1,1,5.08,5.08,0,0,1,.52,2.15c.19,11.86.13,23.73,0,35.59a5.13,5.13,0,0,1-.92,3.16c-3.6,1.67-7.5,1.68-11.31,1.73-12.57.17-25.13.08-37.7.05C206.92,294.55,205.11,294.74,203.7,293.38Z"/><path class="cls-4" d="M179.78,299.35l23.72,0a5.8,5.8,0,0,1,3.86-1.13c7.58-.05,15.16-.07,22.74,0a5.71,5.71,0,0,1,3.54.95,5.81,5.81,0,0,1,1,3.89q.09,17,0,34a5.91,5.91,0,0,1-.91,3.56c-3.54,1.8-7.45,1.75-11.23,1.81-12.75.18-25.51.08-38.27.06-1.61,0-3.25.06-4.67-.9-1.26-1.46-1.12-3.25-1.12-5,0-4.34-.14-8.69.06-13,.13-7.7-.51-15.42.37-23.12A2.27,2.27,0,0,1,179.78,299.35Z"/><path class="cls-2" d="M300.84,203.71c4.48-.05,9,0,13.44-.18,2.46-.13,3.09.65,3.08,3.08-.09,14.94,0,29.88,0,44.82-1.15,1.24-2.69,1.21-4.17,1.21-10.58,0-21.16.15-31.74-.06-6.63.18-13.26.07-19.89.06a5.76,5.76,0,0,1-4.15-1.2l.05.05c-2.13-4-.94-8.2-.89-12.34.43-1.94,2-2.77,3.6-3.47,15.28-6.67,27.73-16.94,38.16-29.8A6.24,6.24,0,0,1,300.84,203.71Z"/><path class="cls-3" d="M42,257.28V253c0-27,.07-54.08-.09-81.12,0-3.55,1.06-4.39,4.38-4.24,5.47.26,11,.17,16.44,0,2.32-.06,3.28.46,3.26,3-.1,20.06-.06,40.12,0,60.19a4.68,4.68,0,0,1-1.22,3.74C57.35,241.86,50.06,249.19,42,257.28Z"/><path class="cls-3" d="M245.47,161.75c0,7-.08,13.95.05,20.93,0,2.25-.6,3-2.94,3-6.1-.15-12.21-.12-18.31,0-2.1,0-2.79-.63-2.78-2.76q.12-21.3,0-42.6c0-1.91.56-2.63,2.55-2.6,6.1.1,12.21.14,18.3,0,2.44-.06,3.23.68,3.17,3.15C245.37,147.8,245.47,154.78,245.47,161.75Z"/><path class="cls-6" d="M257.56,238l-.09,13.52-23.9-.06a5.64,5.64,0,0,1-.19-6.71l.12-41h23.94c1.28,1.3,1.17,3,1.18,4.57,0,8.34,0,16.68,0,25A9.36,9.36,0,0,1,257.56,238Z"/><path class="cls-7" d="M71.8,275.35c0-7,.13-13.93,0-20.89,0-2.14.42-3.06,2.84-3,15,.14,30.08.13,45.12.17a2.76,2.76,0,0,1,.93,1.95c.15,7.1.68,14.21-.31,21.3a2.3,2.3,0,0,1-1,1.07c-5.91,1.33-11.89.42-17.85.6-8.56.22-17.12.09-25.68.07C74.46,276.57,72.92,276.61,71.8,275.35Z"/><path class="cls-6" d="M233.38,340.5l.19-41.09a2.57,2.57,0,0,1,1.93-1c7.15-.17,14.32-.73,21.46.33a2.34,2.34,0,0,1,1,1c.82,1.89.61,3.9.62,5.88,0,7.57,0,15.15,0,22.72a10.27,10.27,0,0,1-1.07,5.4l-.12,13.38H233.5A5.68,5.68,0,0,1,233.38,340.5Z"/><path class="cls-6" d="M71.8,275.35l30,.15c.16.19.43.36.45.57,1,7.82,1.49,15.64-.26,23.43a6.39,6.39,0,0,1-4.26,1c-8.58,0-17.16.14-25.74-.07-4.11-.22-8.33,1-12.31-.95a5.42,5.42,0,0,1-.95-3.51c-.09-5.56-.08-11.12,0-16.68,0-1.36.09-2.74,1.18-3.78Z"/><path class="cls-7" d="M12,299.37c-3,0-6-.13-9,0-2.23.12-3.07-.51-3-2.89.17-6.11.13-12.22,0-18.33,0-2.06.51-2.83,2.7-2.81,13.09.13,26.18.13,39.27.17.16.18.44.36.46.56.95,7.83,1.53,15.65-.32,23.44a6.1,6.1,0,0,1-3.91,1c-7.34.07-14.68.05-22,0A6.09,6.09,0,0,1,12,299.37Z"/><path class="cls-7" d="M137.79,275.4l23.91.14a2.81,2.81,0,0,1,.94,2c.11,7.14.73,14.29-.37,21.41a2.26,2.26,0,0,1-1,1,7.63,7.63,0,0,1-3.26.58q-17.25.09-34.49,0a6.17,6.17,0,0,1-3.89-1,5.41,5.41,0,0,1-1-3.52c-.09-5.59-.07-11.19,0-16.78a5.43,5.43,0,0,1,1.16-3.84h0c1.55-1.36,3.47-1.3,5.29-1.16C129.31,274.6,133.72,273.14,137.79,275.4Z"/><path class="cls-6" d="M12,299.37l29.94-.05a15.79,15.79,0,0,1,12.2-.12,5,5,0,0,1,.93,3.15c.13,5.93.11,11.87,0,17.81a5.37,5.37,0,0,1-.85,3.18c-4,2.12-8.2.82-12.31,1.07-8.58.2-17.16.07-25.73.06-1.48,0-3,0-4.19-1.17Z"/><path class="cls-7" d="M12,323.3l29.94.05a2.45,2.45,0,0,1,.78,1.23,99.18,99.18,0,0,1-.09,21.65c0,.38-.4.61-.62.9-13.09,0-26.18,0-39.27.16-2.19,0-2.74-.75-2.7-2.81.11-6.1.15-12.22,0-18.32-.06-2.39.78-3,3-2.9C6,323.43,9,323.3,12,323.3Z"/><path class="cls-6" d="M101.82,347.12H59.94c-.23-.29-.6-.52-.64-.89-.75-7.68-1.32-15.35.35-23,4-2.07,8.18-.8,12.29-1,8.69-.19,17.38-.08,26.07-.06a6.3,6.3,0,0,1,3.92.94,5.19,5.19,0,0,1,1,3.5q.14,8.55,0,17.11A4.48,4.48,0,0,1,101.82,347.12Z"/><path class="cls-7" d="M161.7,347.13h-42c-.16-.19-.43-.37-.45-.57-1-7.8-1.45-15.6.26-23.37a5.18,5.18,0,0,1,3.51-1c11.92-.08,23.85-.11,35.78,0a6.35,6.35,0,0,1,2.19.42,2.67,2.67,0,0,1,1.12.93C163,331.42,163.83,339.3,161.7,347.13Z"/><path class="cls-4" d="M257.56,238l-.12-34.27h43.4c-5.68,8.63-13.17,15.52-21.31,21.71A102.13,102.13,0,0,1,257.56,238Z"/><path class="cls-4" d="M281.31,251.52l36.06-.09,7.42.17c-5.75,8.65-13.26,15.59-21.46,21.82a106,106,0,0,1-21.83,12.46c-1.41-1.21-1.28-2.9-1.29-4.48q-.09-12.84,0-25.67C280.22,254.24,280.22,252.73,281.31,251.52Z"/><path class="cls-3" d="M161.67,170.32c0-4,.06-8,0-11.95,0-1.78.32-2.75,2.43-2.71,6.34.1,12.7.1,19,0,2,0,2.54.75,2.52,2.63q-.1,12.32,0,24.65c0,1.78-.32,2.75-2.43,2.72q-9.53-.16-19.05,0c-2,0-2.56-.76-2.52-2.64C161.74,178.79,161.67,174.56,161.67,170.32Z"/><path class="cls-8" d="M161.65,299.33q0-11.9,0-23.79c5.09,0,10.18,0,15.27-.17,2.15-.07,2.72.66,2.7,2.75-.06,7.07.06,14.15.11,21.23l-.2.21C173.58,301,167.6,301.37,161.65,299.33Z"/><path class="cls-8" d="M54,299.39l-12-.07q0-11.9.07-23.78H59.94q0,11.9,0,23.78C57.93,300.87,56,300.73,54,299.39Z"/><path class="cls-8" d="M59.89,323.34q0,11.9,0,23.79H42q0-11.89-.07-23.78l12-.08C56,321.94,57.93,321.8,59.89,323.34Z"/><path class="cls-8" d="M137.79,275.4l-18,0,0-23.83c5.09,0,10.18,0,15.26-.16,2.15-.08,2.74.65,2.71,2.74C137.68,261.24,137.77,268.32,137.79,275.4Z"/><path class="cls-9" d="M119.8,323.32q0,11.91-.08,23.82l-17.9,0q0-11.87,0-23.73c3.75-2.32,7.87-.84,11.81-1.17C115.75,322.3,118,321.69,119.8,323.32Z"/><path class="cls-8" d="M161.7,347.13l0-23.8a3.52,3.52,0,0,1,3-1.11c5,.33,10-1.26,14.85,1.07l.24,18a4.8,4.8,0,0,1-.12,5.86Z"/><path class="cls-2" d="M233.38,244.72c.07,2.24.13,4.47.19,6.71l-30.07.09c-6.58,0-13.17-.24-19.73,0-3.4.15-4.76-.82-4.15-4.21a16.11,16.11,0,0,0,.13-1.85C197.63,245.24,215.52,246.12,233.38,244.72Z"/><path class="cls-2" d="M257.47,299.39l-23.9,0-30.07-.09c.07-2,.13-4,.2-5.94,17.87-.25,35.77.63,53.63-.77C259.07,294.84,259,297.1,257.47,299.39Z"/><path class="cls-2" d="M179.63,347.13l.12-5.86c17.88-.26,35.77.63,53.63-.77l.12,6.62Z"/><path class="cls-6" d="M257.47,299.39q-.08-3.39-.14-6.78l.09-41.17,23.89.08q.1,17.18.19,34.36l-.18,13.44c-.44.23.2.15-.27.24-7.89,1.53-15.77,1.84-23.63-.22Z"/><path class="cls-4" d="M257.42,299.34l23.9,0H300c-1.29,7.51-21.1,23.5-42.46,34.42Q257.49,316.55,257.42,299.34Z"/><path class="cls-9" d="M179.51,323.29l-17.86,0,0-.05a2.52,2.52,0,0,1-.77-1.25,107.77,107.77,0,0,1,0-21.4,2.5,2.5,0,0,1,.77-1.24l0-.06,17.93.23Q179.55,311.43,179.51,323.29Z"/><path class="cls-9" d="M119.77,275.41l0,23.93c-1.82,1.63-4,1-6.14,1.11-3.94-.33-8.07,1.15-11.82-1.17V275.5Z"/><path class="cls-7" d="M101.84,299.28l11.89.13c1.79,3.53,1.79,20.31,0,23.85l-11.89.12-29.93-.09a2.64,2.64,0,0,1-.77-1.25,106.48,106.48,0,0,1,0-21.42,2.57,2.57,0,0,1,.77-1.24Z"/><path class="cls-9" d="M71.91,299.38v23.91l-12,0L54,323.27V299.39l5.94-.07Z"/><path class="cls-6" d="M113.73,323.26V299.41l6.07-.07,41.89.05v23.89l-41.89,0Z"/></g></g></svg>