<svg xmlns="http://www.w3.org/2000/svg" viewBox="0 0 263.46 359.2"><defs><style>.cls-1{fill:#ffd55d;}.cls-2{fill:#fee69e;}.cls-3{fill:#fec23b;}.cls-4{fill:#f2a71f;}.cls-5{fill:#fec23c;}</style></defs><g id="Layer_2" data-name="Layer 2"><g id="Layer_1-2" data-name="Layer 1"><path class="cls-1" d="M263.29,317.34c.9,11.85-1.74,22.52-10.39,31.19a34.52,34.52,0,0,1-25.13,10.62q-96.11.09-192.22,0A35.6,35.6,0,0,1,.06,323.61q-.12-144,0-288A35.76,35.76,0,0,1,35.5,0C39.62,0,43.73.08,47.84.11a7.07,7.07,0,0,1,1.63,3.31c3,9.08,8.75,13.36,18.37,13.37q44.3,0,88.61,0c23.3,0,46.61-.05,69.92,0,10,0,17.8,6.19,19.81,15.44a34.42,34.42,0,0,1,.42,7.45V294c0,1.74,0,3.49,0,5.23a17.32,17.32,0,0,0,11.91,16.07C260.18,315.85,262,316,263.29,317.34Z"/><path class="cls-2" d="M263.29,317.34c-10.66-.64-17.85-8.3-17.86-19.07,0-86.92-.1-173.84.14-260.76a19.64,19.64,0,0,0-19.68-19.68c-53,.31-106,.14-159,.14C56.14,18,48.47,10.76,47.84.11c1.62,0,3.24-.1,4.86-.1H229.2c15.39,0,30.56,12.74,33.49,28a50.41,50.41,0,0,1,.7,9.64v274.5C263.38,313.86,263.32,315.6,263.29,317.34Z"/><path class="cls-3" d="M68.06,24H195.35c13.64,2.44,21.23,11.49,21.11,25.58,0,4,1.19,8.15-1,12-1.65.17-2.82-.85-4-1.72A24.7,24.7,0,0,0,195.66,55c-3,.08-6-.09-9,.06-4.05.2-5.88,1.76-5.93,5.68-.2,13.45-.15,26.91,0,40.36,0,2.79,1.27,5.14,4.19,5.33,7.06.45,14.2,1.18,21.05-1.52a38.23,38.23,0,0,0,6.17-3.49c1.13-.72,2.34-2.13,3.89-.6a9.54,9.54,0,0,1,.65,4.38q0,25.13,0,50.25a12.33,12.33,0,0,1-.38,3.68c-1.45,2.67-3,.58-4.28-.08-7.86-4-15.19-2.81-21,3.51a16.12,16.12,0,0,0-2.7,18.37,17.11,17.11,0,0,0,16.8,9.54c4.85-.52,5.37,0,5.39,4.83a20.7,20.7,0,0,1-.09,2.61c-.34,3.15-1.92,5.41-5,6.26s-5.6-.17-7.57-2.69a9.44,9.44,0,0,0-9.6-2.7c-1.71.63-1.31,1.83-1,3.06,2.21,9.58,13.28,15.25,22.32,11.44,1.38-.58,2.66-1.36,4-2,.9-.39,1.88-.88,2.57.4a13.93,13.93,0,0,1,.52,5.17q0,45.94,0,91.89a30.87,30.87,0,0,1-1.29,9.58c-3.18,9.72-9.49,15.84-20,16.9H68.06c-13.64-2.48-21.26-11.64-21.28-25.75q-.06-46.32,0-92.64a13.68,13.68,0,0,1,.52-5.17c1.24-1.72,2.52-.48,3.54.16,12.55,8,26.87-3.13,26.06-16.06-.44-7.07,0-14.19-.09-21.29-.14-13.86-13.08-21.64-25.46-15.4-1.23.63-2.61,2.47-4.12.27a12.1,12.1,0,0,1-.5-4.43q0-23.53,0-47.07a12.92,12.92,0,0,1,.46-4.42c.84-1.79,2.09-1,3.06-.3,4.77,3.32,10.11,3.86,15.7,3.63a17.59,17.59,0,0,0,16.83-16.8c.41-10.11-.57-11.16-10.71-11.06-1.65,0-3.89-.79-4.72,1.19a11.79,11.79,0,0,0-.1,7.34C67.57,88.73,69,88.6,70,88.94c2.48.79,3,2.22,1.67,4.5a4.39,4.39,0,0,1-.42.61c-3.61,4-8.22,3-12.58,2.28-3.34-.57-5.58-3.72-5.73-7.43-.21-5.34-.24-10.71,0-16.05a7.84,7.84,0,0,1,7.83-7.92c3.09-.19,6.19-.36,9.14,1.16,1.95,1,7.35-1.19,8.55-3.13.7-1.14.08-1.9-.6-2.64a14,14,0,0,0-6.8-4.41c-7-1.71-13.81-1.8-20.17,2.26-.93.59-1.82,1.36-3.07,1.07-3.42-14.42,1.25-28,13.38-33.73C63.41,24.48,65.83,24.74,68.06,24Z"/><path class="cls-4" d="M47.86,102.62q0,28.75,0,57.51c.47,1.48-.71,2.27-1.38,3.25-4.83,7-4.76,13.88.25,20.74a9,9,0,0,1,2,3.53c.23,3.12.53,6.24-.24,9.33a2.63,2.63,0,0,1-2,1.38c-3.58.91-3.52,1.12-2.59,4.6.81,3,3.81,4.83,4,8.07v98.31c0,13.15,6.62,21.8,19.27,25.24a3.23,3.23,0,0,1,.89.63q-10.29,0-20.57,0A23.53,23.53,0,0,1,24,311.79V47.41A23.51,23.51,0,0,1,47.49,24c6.86,0,13.71,0,20.57,0-5.42,2-10.8,3.86-14.58,8.82a25.72,25.72,0,0,0-5.55,15c-.14,3.72,0,7.45-.07,11.18A3.63,3.63,0,0,1,47,61.79c-3.33,4.38-4.28,9.38-4,14.75.14,3.22.12,6.46,0,9.68a20.65,20.65,0,0,0,3.84,13.33A4.13,4.13,0,0,1,47.86,102.62Z"/><path class="cls-4" d="M215.51,160.13q-.06-30-.13-60c-.72-1.57.51-2.54,1.14-3.69q8.5-15.63,0-31.25c-.63-1.15-1.86-2.12-1.14-3.69-.06-6,.8-12.12-.51-18.13q-3.28-15.06-18.27-18.71a5.44,5.44,0,0,1-1.25-.68c6.86,0,13.71,0,20.57,0a23.5,23.5,0,0,1,23.52,23.45q0,132.18,0,264.38a23.51,23.51,0,0,1-23.53,23.45l-20.56,0c5.48-1.95,10.82-3.95,14.64-8.84a25.67,25.67,0,0,0,5.49-16.25q.08-49.55,0-99.08c-.42-1.44.61-2.33,1.31-3.31a19.85,19.85,0,0,0,3.63-11.9c0-6.34-.1-12.67,0-19,.1-5.13-.88-9.87-4.09-14C215.78,162.06,215.13,161.24,215.51,160.13Z"/><path class="cls-2" d="M166.55,244.78c-1.78,6.95-3.35,13-4.88,19.12-2,8-4.06,15.89-5.95,23.87-.78,3.32-2.49,5.48-6,5.51s-5.27-2.1-6.08-5.42c-3.17-12.91-6.43-25.79-9.68-38.68-.29-1.18-.71-2.33-1.16-3.77-1.57,1.29-1.05,2.72-1.05,3.94,0,15.32-.1,30.66,0,46,0,3-.55,4.15-3.84,4.07-8.19-.18-8.2,0-8.2-8.23V241.44c0-6.14,1.84-7.95,8-8,2.86,0,5.73,0,8.6,0,4.62,0,6.23,1.28,7.36,5.71,1.84,7.19,3.66,14.4,5.66,22.31,1.95-3.65,2.22-7.1,3.13-10.31,1.2-4.17,2.1-8.43,3.14-12.65.83-3.35,2.94-5.08,6.43-5.06,3.74,0,7.48-.08,11.22,0,4,.11,6.23,2.32,6.24,6.36.06,18.94,0,37.88.05,56.83,0,1.86-.53,2.57-2.52,2.68-9.48.52-9.47.58-9.47-8.8q0-20.38,0-40.76C167.59,248.5,168,247.11,166.55,244.78Z"/><path class="cls-2" d="M215.38,61.51c6.48,8.35,7.21,17.82,5.36,27.77-.76,4.12-3.19,7.43-5.36,10.86-8.75,8.78-19.87,8-30.84,7.46-3-.17-4.89-2.53-4.91-5.67q-.09-21.12,0-42.23c0-3,1.76-5.48,4.57-5.55,8.37-.22,17-1.8,24.81,2.83C211.25,58.3,213.26,60,215.38,61.51Z"/><path class="cls-2" d="M119.72,184.52c0,5.37.1,9.61,0,13.84-.24,8.72-8.12,16.72-16.75,17.13-9.13.44-17.69-6.4-19-15.11-.33-2.13.35-3,2.55-2.85a33.78,33.78,0,0,0,5.6,0c2.27-.22,3.57.38,4.45,2.71,1,2.8,3.62,3.75,6.46,3.17a5.63,5.63,0,0,0,4.73-5.51c0-.49,0-1,0-1.49.07-5.19.07-5.19-5.05-4.85-8.85.59-17.35-6.36-18.78-15.35s4.65-17.65,14-20.11c8.07-2.11,17.38,3,20.51,11C120.81,173.22,119.14,179.5,119.72,184.52Z"/><path class="cls-2" d="M161.63,185.82c0,3.74,0,7.48,0,11.22-.06,9.36-7,17.38-15.84,18.42-9.09,1.06-17.73-5.32-19.81-14.52-.52-2.31-.2-3.65,2.58-3.41a35.83,35.83,0,0,0,4.86,0c2.32-.12,4.22-.16,5.12,2.85.74,2.48,3.21,3.36,5.8,3.1a5.47,5.47,0,0,0,5-4c.77-2.41.4-4.95.26-7.42-.1-1.78-1.52-1.28-2.56-1-10.1,2.76-21.71-6.57-21.3-18.08.33-9.22,8.37-17.27,17.64-17.38,9.58-.11,18,7.68,18.26,17.08.13,4.36,0,8.72,0,13.08Z"/><path class="cls-2" d="M215.51,160.13c4.52,4.65,6.29,10.22,6,16.67-.24,5.85-.24,11.72,0,17.57.26,6.45-1.51,12-6,16.67-11.59,8.75-22.65,3.42-27.42-4.52-1.48-2.46-3.34-5.47-2.12-8,1.12-2.31,4.5-.63,6.86-1,2.59-.36,4.64-.06,5.7,3.08.76,2.26,3.15,3.07,5.6,2.84a5.5,5.5,0,0,0,5-3.9c.82-2.41.39-4.94.31-7.42-.06-1.76-1.44-1.32-2.52-1.09-7.77,1.67-13.75-1.36-18.15-7.49a16.24,16.24,0,0,1-1-18.33c3.61-6.47,9.3-9.89,16.9-9.59C208.78,155.85,212.26,157.73,215.51,160.13Z"/><path class="cls-2" d="M47.9,187.09c-8-9.64-8-17.33,0-27,10.94-8.54,22.45-3.76,27.39,4.45a17.33,17.33,0,0,1,2.55,9.21q-.06,11.4,0,22.78c0,7.36-3,13-9.45,16.6-6.79,3.83-13.35,3-19.55-1.53-.3-.22-.63-.41-.94-.61a24.27,24.27,0,0,1-5.48-9.56c-.93-3.36,0-4.32,3.21-3.93a12.85,12.85,0,0,0,2.23-.09c4-1.5,5.24-1.17,7.5,2.07,2,2.82,4.53,3.63,7,2.22,2.13-1.24,3.43-6.09,2.31-8.42-.66-1.41-1.84-1-2.9-.9A17.93,17.93,0,0,1,52,190.73,7.83,7.83,0,0,1,47.9,187.09Z"/><path class="cls-2" d="M131.69,81.61c-.38,4.78,1,10.59-1.91,16-3.53,6.48-8.83,9.85-16.19,10.17-7.14.32-14-.11-19.13-6.07a17.48,17.48,0,0,1-4.63-11.49c-.07-6.22-.09-12.45,0-18.68a18.07,18.07,0,0,1,17.69-17.61c4.32,0,8.66-.46,12.88,1.28,6.24,2.58,11.09,9.11,11.28,15.84C131.77,74.27,131.69,77.51,131.69,81.61Z"/><path class="cls-2" d="M47.86,102.62c-4.53-4.76-6.3-10.45-6-17,.21-4.2,0-8.42,0-12.63,0-5.48,2.29-10,5.93-14,7.61-6.22,16.17-6.44,25-3.59,3.46,1.12,7.72,3.72,7.48,6.93S74.82,66.19,72,68.26A1,1,0,0,1,70.62,68c-2.89-3.2-6.71-2.15-10.21-2.1A6.5,6.5,0,0,0,54,72.4c-.16,5.6-.15,11.21,0,16.81a6.5,6.5,0,0,0,6.43,6.5c2.93.07,6,.81,8.76-.9,1.45-.89,2.69-2.28,2.46-3.92-.28-2-2.24-.77-3.42-1.08-5-1.3-1.45-5.15-2.18-7.71-.39-1.4-1.38-4.31,2.18-4.27,3.36,0,6.73-.08,10.09.06A5.53,5.53,0,0,1,83.52,82c3.56,10.64-3.6,23.58-14.57,25.46C61.45,108.73,54,108.06,47.86,102.62Z"/><path class="cls-2" d="M88.68,254.42c-1.64,1.87-2.94,4.35-5,5.48-4.35,2.4-4.84-3-7.44-4.44-1.28-.69-3.16-2-1-4.05,5.45-5.3,10.74-10.75,16.16-16.08a5.74,5.74,0,0,1,6.86-1.28c2.58,1.18,3.51,3.32,3.5,6,0,14.45.08,28.9-.07,43.34,0,3.06.74,4.05,3.91,4,8.19-.18,8.08,0,8.19,8.13,0,2.82-.58,3.91-3.68,3.84-9.71-.21-19.43-.15-29.14,0-2.41,0-3.19-.66-3.22-3.14-.08-8.73-.18-8.72,8.65-8.89,1.49,0,3.41.6,3.39-2.11,0-10.06,0-20.11,0-30.16Z"/><path class="cls-2" d="M137.69,79.13c0-7.35.08-14.7-.05-22,0-2.36.58-3.23,3.11-3.26,8.91-.1,8.91-.2,8.91,8.62,0,10,.11,19.94-.07,29.9-.05,2.88.89,3.6,3.63,3.51,5.84-.19,11.7,0,17.56-.09,2,0,2.79.53,2.88,2.71.36,9.3.43,9.29-9,9.29-6.48,0-13,0-19.43,0-5.61,0-7.54-2-7.56-7.7Q137.68,89.59,137.69,79.13Z"/><path class="cls-2" d="M173.91,215.52c-6.29,0-6.34,0-6.28-6.61.07-6.37-1-5.27,6.78-5.36,5.18-.05,5.21,0,5.17,7C179.55,216.29,180.22,215.43,173.91,215.52Z"/><path class="cls-3" d="M47.9,187.09c4.68,3.41,9.66,5.59,15.63,3.94.68-.19,1.8-.47,2,.37a15.83,15.83,0,0,1-.14,8.42,5.4,5.4,0,0,1-5.12,3.7c-2.15.15-4.59-.54-5.05-2.41-1.1-4.52-4.45-3.37-7.33-3.66C47.87,194,47.88,190.54,47.9,187.09Z"/><path class="cls-3" d="M191.56,80.52c0-4,.09-8,0-11.93-.06-2.14.74-2.71,2.81-2.78,10.45-.37,15.18,4.1,15.19,14.57,0,8.9-2.7,13.37-9.12,15.07-2.32.62-4.69.24-7.05.32-1.89.06-1.79-1.3-1.79-2.56Z"/><path class="cls-5" d="M101.67,179.58a6,6,0,1,1,6.07-5.77A5.87,5.87,0,0,1,101.67,179.58Z"/><path class="cls-5" d="M143.55,179.58a6,6,0,1,1,6.09-5.76A5.87,5.87,0,0,1,143.55,179.58Z"/><path class="cls-5" d="M209.5,173.72a6,6,0,1,1-5.77-6.08A5.86,5.86,0,0,1,209.5,173.72Z"/><path class="cls-5" d="M60,179.58a6,6,0,1,1,5.81-6A5.88,5.88,0,0,1,60,179.58Z"/><path class="cls-3" d="M119.73,80.71c0,3,.08,6,0,9-.13,3.79-2.32,6-6.12,6.08-8.4.17-12.49,1.13-11.84-11.27.22-4.1,0-8.22.06-12.33s2.27-6.18,6.31-6.28c8.47-.22,12.31-.76,11.63,11.09C119.67,78.21,119.73,79.46,119.73,80.71Z"/></g></g></svg>