<svg xmlns="http://www.w3.org/2000/svg" viewBox="0 0 218.58 159.93"><defs><style>.cls-1{fill:#9d6b2d;}.cls-2{fill:#da3928;}.cls-3{fill:#414042;}.cls-4{fill:#d94e42;}.cls-5{fill:#cea66d;}.cls-6{fill:#e89b33;}.cls-7{fill:#f9f7f4;}.cls-8{fill:#f1f1f1;}</style></defs><g id="Layer_2" data-name="Layer 2"><g id="Layer_1-2" data-name="Layer 1"><path class="cls-1" d="M32.55,35.78c-1.66-4.15-3.48-8.26-3.44-12.86,0-2.07.35-4.16,2.52-5,2-.76,2.88,1.26,3.94,2.37C42.91,28,51.24,34.09,61.71,36.79a13.84,13.84,0,0,0,5.89.58c3.59,5.42,9.62,6.82,15.15,8.54a155.84,155.84,0,0,0,57.45,6.17,70.78,70.78,0,0,0,12.16-2.36c3.72-.94,6.2-3.11,5.41-7.48a11.31,11.31,0,0,0,8-8.87c6.93-2.82,12.35-7.66,17.41-13,1.32-1.39,2.44-3.68,4.82-2.78,2.6,1,2.53,3.57,2.59,5.95.12,4.57-2.26,8.5-3.42,12.56.82.91,1.45.43,2,.27,1.92-.52,3.63-3.32,5.77-1.23,1.92,1.89.73,4.4,0,6.58a33.5,33.5,0,0,1-10.11,15.16c-1.91,1.61-2.07,2.74-.79,4.92,10,17.12,13.27,35.66,10.85,55.23-.45,3.61.13,5.9,3.31,8.32a54.74,54.74,0,0,1,19.46,28.86c1.61,5.49,1.58,5.54-4.08,5.54q-67.37.08-134.74.1c-25,0-49.9,0-74.86.08-3.59,0-4.68-.7-3.56-4.5,3.67-12.51,10.15-23.12,20.5-31.11,2.27-1.76,3-3.38,2.77-6.18-1.44-15.94-.1-31.53,6-46.51,1.78-4.35,5.89-8.18,6.12-12.31s-6-6.31-8-10.5C26.42,46,24.74,43.27,24,40.17c-.4-1.72-1.22-3.79.51-5.13s3.43.05,5,1c.58.32,1.19.58,1.79.88s1.08,1,1.61.19C33.09,36.84,32.69,36.22,32.55,35.78Zm88.14,89.28c15.18,11.49,36.77,10.49,49.87-.5,11.91-10,18.15-27,13.8-42.5C180.2,67.22,165.83,55,150.69,53.4,132.24,50.83,119,58.77,109,74.91c-1.28-3.74-3.62-5.65-5.47-8-11.06-13.91-34.74-18-50-8.88-15.07,9.06-21.1,22.34-20,39.78,1.07,16.17,15.59,31.62,30,34.58,12.63,2.59,23.65-.67,34.08-7.4,2.79,4.62,5.49,9.3,8.4,13.85,1.92,3,3.56,3.43,6-.11C115.19,134.32,116.9,129,120.69,125.06Z"/><path class="cls-2" d="M165.4,33.35a8.82,8.82,0,0,1-2.12,5.39c-2.61,3-6.89,3.75-10.84,4.22-26.63,3.2-54.15,1.4-79.34-7.81A14,14,0,0,1,69,33.08a10.7,10.7,0,0,1-2.58-3.23,17.23,17.23,0,0,1-2.23-8.44c0-8.2,6.68-15.2,14.29-18.28A42.48,42.48,0,0,1,91.1.39,55.57,55.57,0,0,1,104,.38c8.88,1.43,17.43,4.36,25.78,7.64,6.33,2.49,12.6,5.14,18.88,7.74,4.94,2,10.08,4.23,13.54,8.31A13.45,13.45,0,0,1,165.4,33.35Z"/><path class="cls-3" d="M68.78,33.33c23.35,9.9,47.87,11.91,72.86,10.84,5.43-.23,10.64-2.23,16.13-1.93.79,4.37-1.69,6.54-5.41,7.48a70.78,70.78,0,0,1-12.16,2.36,155.84,155.84,0,0,1-57.45-6.17c-5.53-1.72-11.56-3.12-15.15-8.54C68,36,68.38,34.67,68.78,33.33Z"/><path class="cls-4" d="M143,13.21l-1.3-.58Z"/><path class="cls-5" d="M170.56,124.57c-13.09,11-34.68,12-49.87.5.43-2.72.87-5.44,1.3-8.15,2.06-.07,3.21,1.57,4.69,2.55,11.95,7.93,26.22,7.51,37.61-1.16,10.9-8.29,15-22.28,10.62-35.6C171,70.8,162,64.76,150.67,61.37l-4-.06c-19.81-.33-34,14.23-33.16,34,.15,3.29.84,6.56,1.29,9.84-3.81-1.74-7.65-2.94-11.74-.88-.49-1.56.35-2.93.66-4.37,3-13.78-1.94-26.21-13.53-33.73a32,32,0,0,0-36.49,1.6C39.77,78.3,37.52,100,49,113.65c11.93,14.27,32.22,15.29,46.53,2.32q1.08,4.53,2.17,9c-10.43,6.74-21.45,10-34.08,7.4-14.4-2.95-28.92-18.4-30-34.58-1.14-17.43,4.88-30.72,20-39.78s38.9-5,50,8.88c1.85,2.32,4.2,4.23,5.47,8,10-16.15,23.27-24.09,41.72-21.52C165.83,55,180.2,67.22,184.36,82.07,188.71,97.55,182.48,114.57,170.56,124.57Z"/><path class="cls-6" d="M122,116.91q-.66,4.08-1.3,8.16c-3.79,4-5.5,9.25-8.61,13.69-2.47,3.54-4.11,3.11-6,.11-2.91-4.55-5.61-9.23-8.4-13.85-.73-3-1.45-6-2.18-9q3.81-5.84,7.6-11.67c4.09-2.06,7.94-.85,11.74.88C116.64,109.44,121,112.14,122,116.91Z"/><path class="cls-7" d="M122,116.91c-1-4.77-5.35-7.47-7.18-11.73-.44-3.28-1.13-6.54-1.28-9.84-.89-19.8,13.35-34.37,33.15-34l4,0C162,64.76,171,70.79,174.91,82.7c4.38,13.32.28,27.32-10.62,35.61-11.39,8.66-25.66,9.09-37.61,1.16C125.2,118.48,124.05,116.84,122,116.91ZM143.09,73c-11.53,0-19.55,8.24-19.52,19.94a18.87,18.87,0,0,0,19.18,19.24,19.77,19.77,0,0,0,20-19.8A19.11,19.11,0,0,0,143.09,73Z"/><path class="cls-7" d="M103.07,104.3q-3.79,5.83-7.6,11.67c-14.31,13-34.59,12-46.52-2.33C37.51,100,39.77,78.29,53.72,67.8A32,32,0,0,1,90.2,66.21c11.6,7.51,16.58,20,13.54,33.73C103.42,101.38,102.59,102.74,103.07,104.3ZM74.85,73C63.73,73,55.4,81.27,55.26,92.5a19.05,19.05,0,0,0,19.36,19.74,19.71,19.71,0,0,0,20-19.86C94.64,81.43,86.05,73,74.85,73Z"/><path class="cls-3" d="M143.09,73a19.11,19.11,0,0,1,19.63,19.38,19.77,19.77,0,0,1-20,19.8A18.87,18.87,0,0,1,123.57,93C123.54,81.27,131.56,73.08,143.09,73Zm-5.73,5.33c-3.16.17-5,1.93-5.13,5s1.54,5,4.72,5.18c3.41.14,5.31-1.71,5.37-5.08C142.37,80.21,140.36,78.73,137.36,78.36Z"/><path class="cls-3" d="M74.85,73c11.2,0,19.79,8.44,19.77,19.39a19.71,19.71,0,0,1-20,19.86A19.05,19.05,0,0,1,55.26,92.5C55.4,81.27,63.73,73,74.85,73ZM68.9,88.47c3-.19,4.6-2,4.59-5.09a4.63,4.63,0,0,0-5-4.94c-3.25,0-5.21,2-5,5.37C63.62,87,65.53,88.48,68.9,88.47Z"/><path class="cls-8" d="M137.36,78.36c3,.37,5,1.85,5,5.06-.06,3.37-2,5.22-5.37,5.08-3.18-.14-4.89-2.08-4.72-5.18S134.2,78.53,137.36,78.36Z"/><path class="cls-8" d="M68.9,88.47c-3.37,0-5.28-1.49-5.45-4.66-.18-3.4,1.78-5.37,5-5.37a4.63,4.63,0,0,1,5,4.94C73.5,86.42,71.86,88.28,68.9,88.47Z"/></g></g></svg>