<svg width="1901" height="1142" viewBox="0 0 1901 1142" fill="none" xmlns="http://www.w3.org/2000/svg">
<g filter="url(#filter0_i_27_2047)">
<path d="M1901 979H1900.5V1088.5C1762 1032.67 1386.9 954.5 994.5 1088.5C605.592 1221.31 176.052 1072.36 5.04492 979H0V0H1901V979Z" fill="url(#paint0_linear_27_2047)"/>
</g>
<mask id="mask0_27_2047" style="mask-type:alpha" maskUnits="userSpaceOnUse" x="0" y="0" width="1901" height="1142">
<path d="M1901 979H1900.5V1088.5C1762 1032.67 1386.9 954.5 994.5 1088.5C605.592 1221.31 176.052 1072.36 5.04492 979H0V0H1901V979Z" fill="url(#paint1_linear_27_2047)"/>
</mask>
<g mask="url(#mask0_27_2047)">
<g opacity="0.9">
<mask id="mask1_27_2047" style="mask-type:alpha" maskUnits="userSpaceOnUse" x="1345" y="-29" width="668" height="675">
<path d="M1380.1 66C1377.81 66 1375.95 67.8562 1375.95 70.1466C1375.95 72.437 1377.81 74.2932 1380.1 74.2932C1382.39 74.2932 1384.24 72.437 1384.24 70.1466C1384.25 67.8576 1382.39 66 1380.1 66Z" fill="white"/>
<path d="M1679.95 634.244C1679.95 632.761 1678.75 631.559 1677.27 631.559C1675.78 631.559 1674.58 632.761 1674.58 634.244C1674.58 635.727 1675.78 636.929 1677.27 636.929C1678.75 636.929 1679.95 635.727 1679.95 634.244Z" fill="white"/>
<path d="M1763.89 463.039C1763.89 459.512 1761.03 456.653 1757.51 456.653C1753.98 456.653 1751.12 459.512 1751.12 463.039C1751.12 466.565 1753.98 469.425 1757.51 469.425C1761.03 469.425 1763.89 466.565 1763.89 463.039Z" fill="white"/>
<path d="M1404.26 99.391C1405.76 99.391 1406.98 98.1743 1406.98 96.6735C1406.98 95.1726 1405.76 93.9559 1404.26 93.9559C1402.76 93.9559 1401.55 95.1726 1401.55 96.6735C1401.55 98.1743 1402.76 99.391 1404.26 99.391Z" fill="white"/>
<path d="M1375.52 635.969C1372.77 635.969 1370.55 638.194 1370.55 640.937C1370.55 643.681 1372.77 645.906 1375.52 645.906C1378.26 645.906 1380.49 643.681 1380.49 640.937C1380.49 638.194 1378.26 635.969 1375.52 635.969Z" fill="white"/>
<path d="M1572.63 253.292C1572.63 255.057 1574.06 256.489 1575.83 256.489C1577.59 256.489 1579.02 255.057 1579.02 253.292C1579.02 251.526 1577.59 250.094 1575.83 250.094C1574.06 250.094 1572.63 251.526 1572.63 253.292Z" fill="white"/>
<path d="M1901.9 314.953C1901.9 313.749 1900.93 312.773 1899.72 312.773C1898.52 312.773 1897.54 313.749 1897.54 314.953C1897.54 316.156 1898.52 317.132 1899.72 317.132C1900.93 317.132 1901.9 316.156 1901.9 314.953Z" fill="white"/>
<path d="M1630.42 249.823C1630.42 248.817 1629.6 248.001 1628.6 248.001C1627.59 248.001 1626.77 248.817 1626.77 249.823C1626.77 250.829 1627.59 251.645 1628.6 251.645C1629.6 251.645 1630.42 250.829 1630.42 249.823Z" fill="white"/>
<path d="M1368.99 386.517C1368.99 389.212 1371.18 391.398 1373.87 391.398C1376.57 391.398 1378.75 389.212 1378.75 386.517C1378.75 383.823 1376.57 381.637 1373.87 381.637C1371.18 381.637 1368.99 383.823 1368.99 386.517Z" fill="white"/>
<path d="M1572.83 576.881C1572.83 580.751 1575.96 583.888 1579.83 583.888C1583.7 583.888 1586.84 580.751 1586.84 576.881C1586.84 573.012 1583.7 569.875 1579.83 569.875C1575.96 569.875 1572.83 573.012 1572.83 576.881Z" fill="white"/>
<path d="M1879.78 38.8798C1876.35 38.8798 1873.56 41.6669 1873.56 45.1053C1873.56 48.5438 1876.35 51.3309 1879.78 51.3309C1883.22 51.3309 1886.01 48.5438 1886.01 45.1053C1886.01 41.6669 1883.22 38.8798 1879.78 38.8798Z" fill="white"/>
<path d="M1899.09 511.217C1900.92 511.217 1902.4 509.736 1902.4 507.909C1902.4 506.083 1900.92 504.601 1899.09 504.601C1897.27 504.601 1895.79 506.083 1895.79 507.909C1895.79 509.737 1897.27 511.217 1899.09 511.217Z" fill="white"/>
<path d="M1695.76 530.639C1699.48 530.639 1702.49 527.625 1702.49 523.907C1702.49 520.189 1699.48 517.175 1695.76 517.175C1692.04 517.175 1689.03 520.189 1689.03 523.907C1689.03 527.625 1692.04 530.639 1695.76 530.639Z" fill="white"/>
<path d="M1429.03 452.135C1429.03 453.574 1430.19 454.741 1431.63 454.741C1433.07 454.741 1434.24 453.575 1434.24 452.135C1434.24 450.696 1433.07 449.528 1431.63 449.528C1430.19 449.529 1429.03 450.696 1429.03 452.135Z" fill="white"/>
<path d="M1748.27 113.108C1749.71 113.108 1750.88 111.939 1750.88 110.497C1750.88 109.055 1749.71 107.886 1748.27 107.886C1746.83 107.886 1745.66 109.055 1745.66 110.497C1745.66 111.939 1746.83 113.108 1748.27 113.108Z" fill="white"/>
<path d="M1399.74 292.047C1399.74 294.491 1401.72 296.473 1404.17 296.473C1406.61 296.473 1408.59 294.492 1408.59 292.047C1408.59 289.602 1406.61 287.621 1404.17 287.621C1401.72 287.621 1399.74 289.602 1399.74 292.047Z" fill="white"/>
<path d="M1485.22 96.4834C1484.14 96.4834 1483.27 97.359 1483.27 98.4403C1483.27 99.5203 1484.14 100.396 1485.22 100.396C1486.3 100.396 1487.18 99.5203 1487.18 98.4403C1487.18 97.359 1486.3 96.4834 1485.22 96.4834Z" fill="white"/>
<path d="M1844.66 318.231C1846.03 318.231 1847.14 317.123 1847.14 315.757C1847.14 314.391 1846.03 313.284 1844.66 313.284C1843.3 313.284 1842.19 314.391 1842.19 315.757C1842.19 317.123 1843.3 318.231 1844.66 318.231Z" fill="white"/>
<path d="M1554.12 430.316C1554.12 431.579 1555.14 432.602 1556.4 432.602C1557.67 432.602 1558.69 431.579 1558.69 430.316C1558.69 429.053 1557.67 428.03 1556.4 428.03C1555.14 428.03 1554.12 429.053 1554.12 430.316Z" fill="white"/>
<path d="M1653.65 81.8939C1653.65 80.8679 1652.82 80.0363 1651.79 80.0363C1650.76 80.0363 1649.93 80.8679 1649.93 81.8939C1649.93 82.9199 1650.76 83.7514 1651.79 83.7514C1652.82 83.7514 1653.65 82.9199 1653.65 81.8939Z" fill="white"/>
<path d="M1564.54 642.259C1567.18 642.259 1569.32 640.121 1569.32 637.484C1569.32 634.846 1567.18 632.708 1564.54 632.708C1561.91 632.708 1559.77 634.846 1559.77 637.484C1559.77 640.121 1561.91 642.259 1564.54 642.259Z" fill="white"/>
<path d="M1806.29 297.149C1806.29 298.907 1807.71 300.332 1809.47 300.332C1811.23 300.332 1812.65 298.907 1812.65 297.149C1812.65 295.39 1811.23 293.966 1809.47 293.966C1807.71 293.966 1806.29 295.39 1806.29 297.149Z" fill="white"/>
<path d="M1746.39 303.901C1750.1 303.901 1753.1 300.895 1753.1 297.188C1753.1 293.481 1750.1 290.476 1746.39 290.476C1742.68 290.476 1739.68 293.481 1739.68 297.188C1739.68 300.895 1742.68 303.901 1746.39 303.901Z" fill="white"/>
<path d="M1817.54 11.9509C1817.54 10.9561 1816.73 10.1487 1815.73 10.1487C1814.74 10.1487 1813.93 10.9561 1813.93 11.9509C1813.93 12.9457 1814.74 13.7532 1815.73 13.7532C1816.73 13.7532 1817.54 12.9471 1817.54 11.9509Z" fill="white"/>
<path d="M1795.99 84.0323C1795.99 81.9817 1794.33 80.3199 1792.28 80.3199C1790.23 80.3199 1788.57 81.9817 1788.57 84.0323C1788.57 86.0829 1790.23 87.7446 1792.28 87.7446C1794.33 87.7446 1795.99 86.0829 1795.99 84.0323Z" fill="white"/>
<path d="M1478.67 348.21C1478.67 350.348 1480.4 352.08 1482.54 352.08C1484.68 352.08 1486.41 350.348 1486.41 348.21C1486.41 346.073 1484.68 344.341 1482.54 344.341C1480.4 344.341 1478.67 346.073 1478.67 348.21Z" fill="white"/>
<path d="M1558.72 329.156C1557.69 329.156 1556.87 329.983 1556.87 331.004C1556.87 332.024 1557.69 332.851 1558.72 332.851C1559.74 332.851 1560.56 332.024 1560.56 331.004C1560.56 329.983 1559.74 329.156 1558.72 329.156Z" fill="white"/>
<path d="M1610.03 407.7C1611.17 407.7 1612.1 406.775 1612.1 405.635C1612.1 404.496 1611.17 403.571 1610.03 403.571C1608.89 403.571 1607.97 404.494 1607.97 405.635C1607.97 406.776 1608.89 407.7 1610.03 407.7Z" fill="white"/>
<path d="M1444.85 403.996C1444.85 407.476 1447.67 410.298 1451.15 410.298C1454.63 410.298 1457.45 407.477 1457.45 403.996C1457.45 400.517 1454.63 397.695 1451.15 397.695C1447.67 397.695 1444.85 400.517 1444.85 403.996Z" fill="white"/>
<path d="M1476.61 267.914C1476.61 264.906 1474.17 262.468 1471.16 262.468C1468.15 262.468 1465.72 264.906 1465.72 267.914C1465.72 270.921 1468.15 273.36 1471.16 273.36C1474.17 273.359 1476.61 270.921 1476.61 267.914Z" fill="white"/>
<path d="M1712.56 195.054C1708.88 195.054 1705.9 198.037 1705.9 201.716C1705.9 205.396 1708.88 208.379 1712.56 208.379C1716.24 208.379 1719.22 205.396 1719.22 201.716C1719.22 198.037 1716.24 195.054 1712.56 195.054Z" fill="white"/>
<path d="M1417.13 234.645C1420.27 234.645 1422.81 232.102 1422.81 228.966C1422.81 225.829 1420.27 223.286 1417.13 223.286C1414 223.286 1411.45 225.829 1411.45 228.966C1411.45 232.102 1414 234.645 1417.13 234.645Z" fill="white"/>
<path d="M1816.02 422.544C1816.02 424.081 1817.27 425.328 1818.8 425.328C1820.34 425.328 1821.59 424.082 1821.59 422.544C1821.59 421.007 1820.34 419.76 1818.8 419.76C1817.27 419.76 1816.02 421.005 1816.02 422.544Z" fill="white"/>
<path d="M1351.68 485.658C1353.79 485.658 1355.5 483.945 1355.5 481.832C1355.5 479.719 1353.79 478.006 1351.68 478.006C1349.57 478.006 1347.85 479.719 1347.85 481.832C1347.85 483.945 1349.57 485.658 1351.68 485.658Z" fill="white"/>
<path d="M1734.56 558.283C1734.56 557.121 1733.62 556.178 1732.46 556.178C1731.29 556.178 1730.35 557.121 1730.35 558.283C1730.35 559.445 1731.29 560.387 1732.46 560.387C1733.62 560.387 1734.56 559.445 1734.56 558.283Z" fill="white"/>
<path d="M1533.93 546.811C1533.93 550.06 1536.57 552.695 1539.82 552.695C1543.07 552.695 1545.7 550.06 1545.7 546.811C1545.7 543.561 1543.07 540.926 1539.82 540.926C1536.57 540.927 1533.93 543.561 1533.93 546.811Z" fill="white"/>
<path d="M1612.35 471.006C1615.43 471.006 1617.93 468.508 1617.93 465.426C1617.93 462.344 1615.43 459.846 1612.35 459.846C1609.27 459.846 1606.77 462.344 1606.77 465.426C1606.77 468.508 1609.27 471.006 1612.35 471.006Z" fill="white"/>
<path d="M1362.09 282.129C1362.09 279.376 1359.86 277.144 1357.11 277.144C1354.36 277.144 1352.12 279.376 1352.12 282.129C1352.12 284.882 1354.36 287.114 1357.11 287.114C1359.86 287.116 1362.09 284.883 1362.09 282.129Z" fill="white"/>
<path d="M1516.73 281.628C1516.73 283.335 1518.11 284.719 1519.82 284.719C1521.52 284.719 1522.91 283.335 1522.91 281.628C1522.91 279.921 1521.52 278.537 1519.82 278.537C1518.11 278.537 1516.73 279.921 1516.73 281.628Z" fill="white"/>
<path d="M1814.52 173.837C1818.06 173.837 1820.93 170.966 1820.93 167.425C1820.93 163.884 1818.06 161.014 1814.52 161.014C1810.98 161.014 1808.11 163.884 1808.11 167.425C1808.11 170.966 1810.98 173.837 1814.52 173.837Z" fill="white"/>
<path d="M1623.45 607.138C1623.45 608.399 1624.47 609.422 1625.73 609.422C1626.99 609.422 1628.02 608.399 1628.02 607.138C1628.02 605.876 1626.99 604.853 1625.73 604.853C1624.47 604.853 1623.45 605.876 1623.45 607.138Z" fill="white"/>
<path d="M1491.82 446.017C1491.82 447.148 1492.73 448.065 1493.86 448.065C1494.99 448.065 1495.91 447.148 1495.91 446.017C1495.91 444.886 1494.99 443.969 1493.86 443.969C1492.73 443.969 1491.82 444.886 1491.82 446.017Z" fill="white"/>
<path d="M1755.28 598.813C1758 598.813 1760.19 596.615 1760.19 593.903C1760.19 591.191 1758 588.993 1755.28 588.993C1752.57 588.993 1750.37 591.191 1750.37 593.903C1750.37 596.615 1752.57 598.813 1755.28 598.813Z" fill="white"/>
<path d="M1684.1 322.136C1682.94 322.136 1682 323.074 1682 324.232C1682 325.39 1682.94 326.328 1684.1 326.328C1685.25 326.328 1686.19 325.39 1686.19 324.232C1686.19 323.075 1685.25 322.136 1684.1 322.136Z" fill="white"/>
<path d="M1396.83 592.263C1396.83 595.879 1399.76 598.811 1403.38 598.811C1406.99 598.811 1409.92 595.879 1409.92 592.263C1409.92 588.647 1406.99 585.715 1403.38 585.715C1399.76 585.715 1396.83 588.646 1396.83 592.263Z" fill="white"/>
<path d="M1353.65 596.279C1355.25 596.279 1356.54 594.983 1356.54 593.385C1356.54 591.787 1355.25 590.49 1353.65 590.49C1352.05 590.49 1350.75 591.786 1350.75 593.385C1350.75 594.983 1352.05 596.279 1353.65 596.279Z" fill="white"/>
<path d="M1811.98 565.514C1810.88 565.514 1809.99 566.408 1809.99 567.511C1809.99 568.614 1810.88 569.508 1811.98 569.508C1813.09 569.508 1813.98 568.614 1813.98 567.511C1813.98 566.408 1813.09 565.514 1811.98 565.514Z" fill="white"/>
<path d="M1497.3 36.6006C1497.3 34.113 1495.28 32.0964 1492.8 32.0964C1490.31 32.0964 1488.29 34.113 1488.29 36.6006C1488.29 39.0883 1490.31 41.1048 1492.8 41.1048C1495.28 41.1048 1497.3 39.0883 1497.3 36.6006Z" fill="white"/>
<path d="M1683.75 399.464C1683.75 402.188 1685.96 404.398 1688.69 404.398C1691.41 404.398 1693.62 402.188 1693.62 399.464C1693.62 396.738 1691.41 394.529 1688.69 394.529C1685.96 394.528 1683.75 396.738 1683.75 399.464Z" fill="white"/>
<path d="M1411.82 521.727C1409.31 521.727 1407.29 523.754 1407.29 526.254C1407.29 528.754 1409.31 530.781 1411.82 530.781C1414.32 530.781 1416.34 528.754 1416.34 526.254C1416.34 523.755 1414.32 521.727 1411.82 521.727Z" fill="white"/>
<path d="M1349.4 2.05994C1347.95 2.05994 1346.77 3.23494 1346.77 4.68242C1346.77 6.12989 1347.95 7.30631 1349.4 7.30631C1350.85 7.30631 1352.02 6.13131 1352.02 4.68242C1352.02 3.23352 1350.85 2.05994 1349.4 2.05994Z" fill="white"/>
<path d="M1542.59 110C1545.89 110 1548.57 107.322 1548.57 104.019C1548.57 100.715 1545.89 98.0374 1542.59 98.0374C1539.29 98.0374 1536.61 100.715 1536.61 104.019C1536.61 107.322 1539.29 110 1542.59 110Z" fill="white"/>
<path d="M1889.01 155.887C1891.75 155.887 1893.97 153.663 1893.97 150.921C1893.97 148.178 1891.75 145.956 1889.01 145.956C1886.26 145.956 1884.04 148.18 1884.04 150.921C1884.04 153.663 1886.27 155.887 1889.01 155.887Z" fill="white"/>
<path d="M1579.7 176.727C1582.45 176.727 1584.68 174.497 1584.68 171.745C1584.68 168.993 1582.45 166.762 1579.7 166.762C1576.95 166.762 1574.72 168.993 1574.72 171.745C1574.72 174.497 1576.95 176.727 1579.7 176.727Z" fill="white"/>
<path d="M1447.16 183.911C1444.45 183.911 1442.25 186.11 1442.25 188.825C1442.25 191.538 1444.45 193.739 1447.16 193.739C1449.88 193.739 1452.08 191.54 1452.08 188.825C1452.08 186.11 1449.88 183.911 1447.16 183.911Z" fill="white"/>
<path d="M1506.91 600.397C1509.17 600.397 1511.01 598.561 1511.01 596.295C1511.01 594.029 1509.17 592.192 1506.91 592.192C1504.64 592.192 1502.8 594.029 1502.8 596.295C1502.8 598.561 1504.64 600.397 1506.91 600.397Z" fill="white"/>
<path d="M1900.94 608.787C1900.94 610.593 1902.4 612.056 1904.21 612.056C1906.01 612.056 1907.48 610.592 1907.48 608.787C1907.48 606.98 1906.01 605.517 1904.21 605.517C1902.4 605.517 1900.94 606.982 1900.94 608.787Z" fill="white"/>
<path d="M1364.79 142.696C1364.79 138.836 1361.66 135.707 1357.8 135.707C1353.94 135.707 1350.81 138.836 1350.81 142.696C1350.81 146.556 1353.94 149.685 1357.8 149.685C1361.66 149.687 1364.79 146.558 1364.79 142.696Z" fill="white"/>
<path d="M1811.16 619.251C1809.79 619.251 1808.68 620.365 1808.68 621.739C1808.68 623.112 1809.79 624.226 1811.16 624.226C1812.54 624.226 1813.65 623.112 1813.65 621.739C1813.65 620.364 1812.54 619.251 1811.16 619.251Z" fill="white"/>
<path d="M1647.09 151.839C1647.09 150.549 1646.05 149.505 1644.76 149.505C1643.47 149.505 1642.42 150.551 1642.42 151.839C1642.42 153.128 1643.47 154.174 1644.76 154.174C1646.05 154.174 1647.09 153.128 1647.09 151.839Z" fill="white"/>
<path d="M1899.18 425.307C1900.7 425.307 1901.93 424.079 1901.93 422.564C1901.93 421.049 1900.7 419.821 1899.18 419.821C1897.67 419.821 1896.44 421.049 1896.44 422.564C1896.44 424.079 1897.67 425.307 1899.18 425.307Z" fill="white"/>
<path d="M1720.09 628.817C1723.1 628.817 1725.53 626.38 1725.53 623.375C1725.53 620.369 1723.1 617.933 1720.09 617.933C1717.08 617.933 1714.65 620.369 1714.65 623.375C1714.65 626.38 1717.08 628.817 1720.09 628.817Z" fill="white"/>
<path d="M1775.79 228.68C1779.24 228.68 1782.04 225.884 1782.04 222.435C1782.04 218.986 1779.24 216.189 1775.79 216.189C1772.34 216.189 1769.55 218.986 1769.55 222.435C1769.55 225.884 1772.34 228.68 1775.79 228.68Z" fill="white"/>
<path d="M1804.6 363.186C1804.6 361.94 1803.59 360.93 1802.34 360.93C1801.1 360.93 1800.09 361.94 1800.09 363.186C1800.09 364.432 1801.1 365.442 1802.34 365.442C1803.59 365.442 1804.6 364.432 1804.6 363.186Z" fill="white"/>
<path d="M1345 341.973C1345 343.489 1346.23 344.716 1347.74 344.716C1349.26 344.716 1350.49 343.488 1350.49 341.973C1350.49 340.459 1349.26 339.23 1347.74 339.23C1346.23 339.23 1345 340.459 1345 341.973Z" fill="white"/>
<path d="M1842.06 490.928C1842.06 487.83 1839.55 485.319 1836.45 485.319C1833.35 485.319 1830.84 487.83 1830.84 490.928C1830.84 494.026 1833.35 496.538 1836.45 496.538C1839.55 496.537 1842.06 494.026 1842.06 490.928Z" fill="white"/>
<path d="M1518.06 181.361C1519.09 181.361 1519.92 180.531 1519.92 179.507C1519.92 178.484 1519.09 177.654 1518.06 177.654C1517.04 177.654 1516.21 178.484 1516.21 179.507C1516.21 180.531 1517.04 181.361 1518.06 181.361Z" fill="white"/>
<path d="M1862.93 229.557C1862.93 227.976 1861.65 226.693 1860.07 226.693C1858.49 226.693 1857.21 227.975 1857.21 229.557C1857.21 231.138 1858.49 232.419 1860.07 232.419C1861.65 232.419 1862.93 231.138 1862.93 229.557Z" fill="white"/>
<path d="M1407.19 337.133C1407.19 339.381 1409.01 341.203 1411.26 341.203C1413.51 341.203 1415.33 339.381 1415.33 337.133C1415.33 334.885 1413.51 333.063 1411.26 333.063C1409.01 333.063 1407.19 334.885 1407.19 337.133Z" fill="white"/>
<path d="M1503.19 506.443C1502.03 506.443 1501.09 507.383 1501.09 508.542C1501.09 509.701 1502.03 510.641 1503.19 510.641C1504.35 510.641 1505.29 509.701 1505.29 508.542C1505.29 507.383 1504.35 506.443 1503.19 506.443Z" fill="white"/>
<path d="M1377.53 204.062C1378.74 204.062 1379.72 203.082 1379.72 201.872C1379.72 200.663 1378.74 199.683 1377.53 199.683C1376.32 199.683 1375.34 200.663 1375.34 201.872C1375.34 203.082 1376.32 204.062 1377.53 204.062Z" fill="white"/>
<path d="M1688.03 46.7046C1688.03 49.8975 1690.62 52.4874 1693.81 52.4874C1697.01 52.4874 1699.6 49.8989 1699.6 46.7046C1699.6 43.5102 1697.01 40.9218 1693.81 40.9218C1690.62 40.9218 1688.03 43.5102 1688.03 46.7046Z" fill="white"/>
<path d="M1482.38 633.689C1482.38 635.615 1483.94 637.176 1485.86 637.176C1487.79 637.176 1489.35 635.615 1489.35 633.689C1489.35 631.763 1487.79 630.202 1485.86 630.202C1483.94 630.202 1482.38 631.763 1482.38 633.689Z" fill="white"/>
</mask>
<g mask="url(#mask1_27_2047)">
<path d="M1379.06 48.3405C1355.79 48.3405 1360.37 72.9381 1365.58 85.2369L1396.09 183.864V267.59L1379.06 332.868C1388.28 346.586 1408.86 380.833 1417.37 408.08C1428.02 442.138 1386.86 515.931 1396.09 543.603C1405.31 571.276 1490.46 563.471 1516.71 570.566C1542.96 577.661 1607.53 630.168 1619.59 630.168C1631.66 630.168 1696.23 614.558 1721.77 590.433C1747.31 566.309 1779.95 578.371 1798.4 590.433C1816.85 602.496 1916.89 547.861 1927.54 543.603C1936.05 540.197 1941.02 475.014 1942.44 442.848C1948.59 425.109 1957.2 388.355 1942.44 383.246C1923.99 376.86 1935.34 304.486 1942.44 284.619C1949.53 264.752 1933.92 193.088 1906.25 194.507C1878.58 195.926 1821.11 127.81 1798.4 124.262C1775.69 120.714 1740.22 48.3405 1721.77 24.216C1703.32 0.0914078 1625.98 48.3405 1596.89 72.465C1567.8 96.5896 1408.15 48.3405 1379.06 48.3405Z" fill="#D9D9D9"/>
</g>
</g>
<g opacity="0.9">
<mask id="mask2_27_2047" style="mask-type:alpha" maskUnits="userSpaceOnUse" x="1678" y="-482" width="668" height="675">
<path d="M1708.52 182.969C1705.77 182.969 1703.55 185.194 1703.55 187.937C1703.55 190.681 1705.77 192.906 1708.52 192.906C1711.26 192.906 1713.49 190.681 1713.49 187.937C1713.49 185.194 1711.26 182.969 1708.52 182.969Z" fill="white"/>
<path d="M1762.03 -0.865411C1762.03 0.573547 1763.19 1.74147 1764.63 1.74147C1766.07 1.74147 1767.24 0.574966 1767.24 -0.865411C1767.24 -2.30437 1766.07 -3.47229 1764.63 -3.47229C1763.19 -3.47087 1762.03 -2.30437 1762.03 -0.865411Z" fill="white"/>
<path d="M1897.54 189.259C1900.18 189.259 1902.32 187.121 1902.32 184.484C1902.32 181.846 1900.18 179.708 1897.54 179.708C1894.91 179.708 1892.77 181.846 1892.77 184.484C1892.77 187.121 1894.91 189.259 1897.54 189.259Z" fill="white"/>
<path d="M1684.68 32.6579C1686.79 32.6579 1688.5 30.945 1688.5 28.832C1688.5 26.719 1686.79 25.0061 1684.68 25.0061C1682.57 25.0061 1680.85 26.719 1680.85 28.832C1680.85 30.945 1682.57 32.6579 1684.68 32.6579Z" fill="white"/>
<path d="M1866.94 93.8105C1866.94 97.0602 1869.57 99.6955 1872.82 99.6955C1876.07 99.6955 1878.7 97.0602 1878.7 93.8105C1878.7 90.5608 1876.07 87.9255 1872.82 87.9255C1869.57 87.927 1866.94 90.5608 1866.94 93.8105Z" fill="white"/>
<path d="M1729.83 139.263C1729.83 142.879 1732.76 145.811 1736.38 145.811C1739.99 145.811 1742.92 142.879 1742.92 139.263C1742.92 135.647 1739.99 132.715 1736.38 132.715C1732.76 132.715 1729.83 135.646 1729.83 139.263Z" fill="white"/>
<path d="M1686.65 143.279C1688.25 143.279 1689.54 141.983 1689.54 140.385C1689.54 138.787 1688.25 137.49 1686.65 137.49C1685.05 137.49 1683.75 138.786 1683.75 140.385C1683.75 141.983 1685.05 143.279 1686.65 143.279Z" fill="white"/>
<path d="M1744.82 68.7271C1742.31 68.7271 1740.29 70.7535 1740.29 73.254C1740.29 75.7544 1742.31 77.7809 1744.82 77.7809C1747.32 77.7809 1749.34 75.7544 1749.34 73.254C1749.34 70.7549 1747.32 68.7271 1744.82 68.7271Z" fill="white"/>
<path d="M1839.91 147.397C1842.17 147.397 1844.01 145.561 1844.01 143.295C1844.01 141.029 1842.17 139.192 1839.91 139.192C1837.64 139.192 1835.8 141.029 1835.8 143.295C1835.8 145.561 1837.64 147.397 1839.91 147.397Z" fill="white"/>
<path d="M1836.19 53.4431C1835.03 53.4431 1834.09 54.3826 1834.09 55.542C1834.09 56.7014 1835.03 57.6408 1836.19 57.6408C1837.35 57.6408 1838.29 56.7014 1838.29 55.542C1838.29 54.3826 1837.35 53.4431 1836.19 53.4431Z" fill="white"/>
<path d="M1815.38 180.689C1815.38 182.615 1816.94 184.176 1818.86 184.176C1820.79 184.176 1822.35 182.615 1822.35 180.689C1822.35 178.763 1820.79 177.202 1818.86 177.202C1816.94 177.202 1815.38 178.763 1815.38 180.689Z" fill="white"/>
</mask>
<g mask="url(#mask2_27_2047)">
<path d="M1712.06 -404.659C1688.79 -404.659 1693.37 -380.062 1698.58 -367.763L1729.09 -269.136V-185.41L1712.06 -120.132C1721.28 -106.414 1741.86 -72.1665 1750.37 -44.92C1761.02 -10.8618 1719.86 62.931 1729.09 90.6032C1738.31 118.276 1823.46 110.471 1849.71 117.566C1875.96 124.661 1940.53 177.168 1952.59 177.168C1964.66 177.168 2029.23 161.558 2054.77 137.433C2080.31 113.309 2112.95 125.371 2131.4 137.433C2149.85 149.496 2249.89 94.8605 2260.54 90.6032C2269.05 87.1974 2274.02 22.0138 2275.44 -10.1522C2281.59 -27.8909 2290.2 -64.6453 2275.44 -69.7541C2256.99 -76.14 2268.34 -148.514 2275.44 -168.381C2282.53 -188.248 2266.92 -259.912 2239.25 -258.493C2211.58 -257.074 2154.11 -325.19 2131.4 -328.738C2108.69 -332.286 2073.22 -404.659 2054.77 -428.784C2036.32 -452.909 1958.98 -404.659 1929.89 -380.535C1900.8 -356.41 1741.15 -404.659 1712.06 -404.659Z" fill="#D9D9D9"/>
</g>
</g>
<g opacity="0.9">
<mask id="mask3_27_2047" style="mask-type:alpha" maskUnits="userSpaceOnUse" x="1182" y="-559" width="668" height="675">
<path d="M1516.95 104.244C1516.95 102.761 1515.75 101.559 1514.27 101.559C1512.78 101.559 1511.58 102.761 1511.58 104.244C1511.58 105.727 1512.78 106.929 1514.27 106.929C1515.75 106.929 1516.95 105.727 1516.95 104.244Z" fill="white"/>
<path d="M1212.52 105.969C1209.77 105.969 1207.55 108.194 1207.55 110.937C1207.55 113.681 1209.77 115.906 1212.52 115.906C1215.26 115.906 1217.49 113.681 1217.49 110.937C1217.49 108.194 1215.26 105.969 1212.52 105.969Z" fill="white"/>
<path d="M1409.83 46.8814C1409.83 50.7513 1412.96 53.8875 1416.83 53.8875C1420.7 53.8875 1423.84 50.7513 1423.84 46.8814C1423.84 43.0116 1420.7 39.8754 1416.83 39.8754C1412.96 39.8754 1409.83 43.0116 1409.83 46.8814Z" fill="white"/>
<path d="M1827.78 104.645C1827.78 105.639 1828.59 106.443 1829.58 106.443C1830.58 106.443 1831.38 105.639 1831.38 104.645C1831.38 103.652 1830.58 102.847 1829.58 102.847C1828.59 102.847 1827.78 103.652 1827.78 104.645Z" fill="white"/>
<path d="M1532.76 0.638906C1536.48 0.638906 1539.49 -2.37521 1539.49 -6.09329C1539.49 -9.81136 1536.48 -12.8254 1532.76 -12.8254C1529.04 -12.8254 1526.03 -9.81136 1526.03 -6.09329C1526.03 -2.37521 1529.04 0.638906 1532.76 0.638906Z" fill="white"/>
<path d="M1846.46 28.1421C1844.81 28.1421 1843.48 29.4746 1843.48 31.1194C1843.48 32.7641 1844.81 34.0966 1846.46 34.0966C1848.1 34.0966 1849.43 32.7641 1849.43 31.1194C1849.43 29.4746 1848.1 28.1421 1846.46 28.1421Z" fill="white"/>
<path d="M1401.54 112.259C1404.18 112.259 1406.32 110.121 1406.32 107.484C1406.32 104.846 1404.18 102.708 1401.54 102.708C1398.91 102.708 1396.77 104.846 1396.77 107.484C1396.77 110.121 1398.91 112.259 1401.54 112.259Z" fill="white"/>
<path d="M1571.56 28.2829C1571.56 27.1207 1570.62 26.1785 1569.46 26.1785C1568.29 26.1785 1567.35 27.1207 1567.35 28.2829C1567.35 29.4452 1568.29 30.3875 1569.46 30.3875C1570.62 30.3875 1571.56 29.4452 1571.56 28.2829Z" fill="white"/>
<path d="M1370.93 16.8105C1370.93 20.0602 1373.57 22.6955 1376.82 22.6955C1380.07 22.6955 1382.7 20.0602 1382.7 16.8105C1382.7 13.5608 1380.07 10.9255 1376.82 10.9255C1373.57 10.927 1370.93 13.5608 1370.93 16.8105Z" fill="white"/>
<path d="M1460.45 77.1376C1460.45 78.3992 1461.47 79.4224 1462.73 79.4224C1463.99 79.4224 1465.02 78.3992 1465.02 77.1376C1465.02 75.876 1463.99 74.8529 1462.73 74.8529C1461.47 74.8529 1460.45 75.876 1460.45 77.1376Z" fill="white"/>
<path d="M1592.28 68.8133C1595 68.8133 1597.19 66.615 1597.19 63.9032C1597.19 61.1915 1595 58.9932 1592.28 58.9932C1589.57 58.9932 1587.37 61.1915 1587.37 63.9032C1587.37 66.615 1589.57 68.8133 1592.28 68.8133Z" fill="white"/>
<path d="M1233.83 62.263C1233.83 65.8788 1236.76 68.8107 1240.38 68.8107C1243.99 68.8107 1246.92 65.8788 1246.92 62.263C1246.92 58.6472 1243.99 55.7153 1240.38 55.7153C1236.76 55.7153 1233.83 58.6457 1233.83 62.263Z" fill="white"/>
<path d="M1190.65 66.2788C1192.25 66.2788 1193.54 64.9832 1193.54 63.3853C1193.54 61.7874 1192.25 60.4904 1190.65 60.4904C1189.05 60.4904 1187.75 61.786 1187.75 63.3853C1187.75 64.9832 1189.05 66.2788 1190.65 66.2788Z" fill="white"/>
<path d="M1648.98 35.5143C1647.88 35.5143 1646.99 36.4083 1646.99 37.511C1646.99 38.6136 1647.88 39.5076 1648.98 39.5076C1650.09 39.5076 1650.98 38.6136 1650.98 37.511C1650.98 36.4083 1650.09 35.5143 1648.98 35.5143Z" fill="white"/>
<path d="M1248.82 -8.27295C1246.31 -8.27295 1244.29 -6.24648 1244.29 -3.74604C1244.29 -1.24561 1246.31 0.78086 1248.82 0.78086C1251.32 0.78086 1253.34 -1.24561 1253.34 -3.74604C1253.34 -6.24506 1251.32 -8.27295 1248.82 -8.27295Z" fill="white"/>
<path d="M1343.91 70.3973C1346.17 70.3973 1348.01 68.5605 1348.01 66.2947C1348.01 64.0289 1346.17 62.1921 1343.91 62.1921C1341.64 62.1921 1339.8 64.0289 1339.8 66.2947C1339.8 68.5605 1341.64 70.3973 1343.91 70.3973Z" fill="white"/>
<path d="M1737.94 78.7867C1737.94 80.5932 1739.4 82.0563 1741.21 82.0563C1743.01 82.0563 1744.48 80.5918 1744.48 78.7867C1744.48 76.9802 1743.01 75.5171 1741.21 75.5171C1739.4 75.5171 1737.94 76.9816 1737.94 78.7867Z" fill="white"/>
<path d="M1648.16 89.251C1646.79 89.251 1645.68 90.3649 1645.68 91.7386C1645.68 93.1123 1646.79 94.2263 1648.16 94.2263C1649.54 94.2263 1650.65 93.1123 1650.65 91.7386C1650.65 90.3635 1649.54 89.251 1648.16 89.251Z" fill="white"/>
<path d="M1557.09 98.817C1560.1 98.817 1562.53 96.3805 1562.53 93.3748C1562.53 90.3692 1560.1 87.9326 1557.09 87.9326C1554.08 87.9326 1551.65 90.3692 1551.65 93.3748C1551.65 96.3805 1554.08 98.817 1557.09 98.817Z" fill="white"/>
<path d="M1319.38 103.689C1319.38 105.615 1320.94 107.176 1322.86 107.176C1324.79 107.176 1326.35 105.615 1326.35 103.689C1326.35 101.763 1324.79 100.202 1322.86 100.202C1320.94 100.202 1319.38 101.763 1319.38 103.689Z" fill="white"/>
</mask>
<g mask="url(#mask3_27_2047)">
<path d="M1216.06 -481.659C1192.79 -481.659 1197.37 -457.062 1202.58 -444.763L1233.09 -346.136V-262.41L1216.06 -197.132C1225.28 -183.414 1245.86 -149.167 1254.37 -121.92C1265.02 -87.8618 1223.86 -14.069 1233.09 13.6032C1242.31 41.2755 1327.46 33.4705 1353.71 40.566C1379.96 47.6614 1444.53 100.168 1456.59 100.168C1468.66 100.168 1533.23 84.5578 1558.77 60.4332C1584.31 36.3087 1616.95 48.371 1635.4 60.4332C1653.85 72.4955 1753.89 17.8605 1764.54 13.6032C1773.05 10.1974 1778.02 -54.9862 1779.44 -87.1522C1785.59 -104.891 1794.2 -141.645 1779.44 -146.754C1760.99 -153.14 1772.34 -225.514 1779.44 -245.381C1786.53 -265.248 1770.92 -336.912 1743.25 -335.493C1715.58 -334.074 1658.11 -402.19 1635.4 -405.738C1612.69 -409.286 1577.22 -481.659 1558.77 -505.784C1540.32 -529.909 1462.98 -481.659 1433.89 -457.535C1404.8 -433.41 1245.15 -481.659 1216.06 -481.659Z" fill="#D9D9D9"/>
</g>
</g>
<g opacity="0.39">
<mask id="mask4_27_2047" style="mask-type:alpha" maskUnits="userSpaceOnUse" x="846" y="356" width="905" height="914">
<path d="M912.991 829.061C911.268 830.57 911.094 833.19 912.603 834.913C914.112 836.636 916.732 836.809 918.455 835.3C920.178 833.791 920.351 831.172 918.842 829.449C917.335 827.726 914.714 827.552 912.991 829.061Z" fill="white"/>
<path d="M1634.76 737.826C1635.99 736.75 1636.11 734.883 1635.04 733.654C1633.96 732.426 1632.09 732.302 1630.86 733.378C1629.64 734.454 1629.51 736.321 1630.59 737.549C1631.66 738.777 1633.53 738.901 1634.76 737.826Z" fill="white"/>
<path d="M1512.94 1059.01C1511.96 1057.89 1510.27 1057.78 1509.15 1058.75C1508.04 1059.73 1507.92 1061.43 1508.9 1062.54C1509.88 1063.66 1511.57 1063.77 1512.69 1062.79C1513.81 1061.82 1513.92 1060.12 1512.94 1059.01Z" fill="white"/>
<path d="M1463.3 874.906C1460.97 872.253 1456.94 871.985 1454.29 874.308C1451.63 876.632 1451.37 880.667 1453.69 883.32C1456.01 885.973 1460.05 886.241 1462.7 883.917C1465.35 881.593 1465.62 877.558 1463.3 874.906Z" fill="white"/>
<path d="M953.17 838.261C954.299 837.272 954.412 835.555 953.424 834.426C952.435 833.297 950.718 833.183 949.589 834.172C948.46 835.161 948.346 836.877 949.335 838.007C950.324 839.136 952.04 839.249 953.17 838.261Z" fill="white"/>
<path d="M1181.22 843.119C1182.39 844.447 1184.41 844.581 1185.74 843.418C1187.06 842.255 1187.2 840.234 1186.03 838.906C1184.87 837.578 1182.85 837.444 1181.52 838.608C1180.19 839.771 1180.06 841.791 1181.22 843.119Z" fill="white"/>
<path d="M1469.56 672.576C1468.77 671.671 1467.39 671.579 1466.49 672.372C1465.58 673.165 1465.49 674.543 1466.28 675.448C1467.07 676.353 1468.45 676.445 1469.36 675.652C1470.26 674.859 1470.35 673.481 1469.56 672.576Z" fill="white"/>
<path d="M1222.41 802.437C1221.75 801.68 1220.6 801.604 1219.84 802.267C1219.09 802.93 1219.01 804.081 1219.67 804.838C1220.34 805.595 1221.49 805.671 1222.24 805.008C1223 804.346 1223.08 803.194 1222.41 802.437Z" fill="white"/>
<path d="M1394.69 512.184C1395.71 510.097 1394.85 507.577 1392.76 506.555C1390.67 505.533 1388.15 506.396 1387.13 508.483C1386.11 510.569 1386.97 513.09 1389.06 514.112C1391.14 515.134 1393.66 514.271 1394.69 512.184Z" fill="white"/>
<path d="M1115.8 1077.5C1117.57 1079.53 1120.66 1079.74 1122.69 1077.96C1124.71 1076.18 1124.92 1073.1 1123.14 1071.07C1121.37 1069.05 1118.28 1068.84 1116.26 1070.62C1114.23 1072.39 1114.02 1075.48 1115.8 1077.5Z" fill="white"/>
<path d="M1394.56 1086.43C1397.11 1089.34 1401.53 1089.63 1404.44 1087.08C1407.35 1084.53 1407.65 1080.11 1405.1 1077.2C1402.55 1074.28 1398.12 1073.99 1395.21 1076.54C1392.3 1079.09 1392.01 1083.52 1394.56 1086.43Z" fill="white"/>
<path d="M1271.04 479.457C1268.45 481.722 1268.19 485.655 1270.46 488.242C1272.72 490.828 1276.66 491.089 1279.24 488.824C1281.83 486.558 1282.09 482.625 1279.83 480.039C1277.56 477.452 1273.63 477.191 1271.04 479.457Z" fill="white"/>
<path d="M1747.05 854.525C1747.7 855.273 1748.84 855.348 1749.58 854.693C1750.33 854.039 1750.41 852.903 1749.75 852.156C1749.1 851.409 1747.96 851.334 1747.21 851.988C1746.47 852.643 1746.39 853.778 1747.05 854.525Z" fill="white"/>
<path d="M1596.75 822.077C1598.12 820.874 1598.26 818.783 1597.06 817.409C1595.86 816.035 1593.77 815.896 1592.39 817.1C1591.02 818.304 1590.88 820.394 1592.08 821.768C1593.29 823.143 1595.38 823.281 1596.75 822.077Z" fill="white"/>
<path d="M1456.58 970.649C1459.37 968.199 1459.65 963.946 1457.21 961.149C1454.76 958.352 1450.5 958.07 1447.71 960.519C1444.91 962.969 1444.63 967.222 1447.08 970.019C1449.53 972.816 1453.78 973.098 1456.58 970.649Z" fill="white"/>
<path d="M1204.19 1087.32C1205.14 1088.4 1206.79 1088.51 1207.87 1087.56C1208.95 1086.61 1209.06 1084.96 1208.12 1083.88C1207.17 1082.8 1205.52 1082.69 1204.44 1083.64C1203.35 1084.59 1203.25 1086.23 1204.19 1087.32Z" fill="white"/>
<path d="M1221 621.945C1222.09 620.994 1222.2 619.345 1221.25 618.26C1220.3 617.175 1218.65 617.066 1217.56 618.016C1216.48 618.966 1216.37 620.616 1217.32 621.7C1218.27 622.785 1219.92 622.895 1221 621.945Z" fill="white"/>
<path d="M1710.69 784.671C1709.45 785.754 1709.33 787.635 1710.41 788.872C1711.5 790.109 1713.38 790.234 1714.61 789.15C1715.85 788.067 1715.98 786.187 1714.89 784.949C1713.81 783.712 1711.93 783.587 1710.69 784.671Z" fill="white"/>
<path d="M1076.69 986.176C1078.3 988.015 1081.1 988.201 1082.94 986.59C1084.78 984.98 1084.96 982.184 1083.35 980.344C1081.74 978.505 1078.95 978.32 1077.11 979.93C1075.27 981.541 1075.08 984.337 1076.69 986.176Z" fill="white"/>
<path d="M1012.16 782.736C1011.35 783.448 1011.27 784.683 1011.98 785.497C1012.69 786.309 1013.93 786.391 1014.74 785.68C1015.55 784.968 1015.63 783.732 1014.92 782.919C1014.21 782.106 1012.97 782.024 1012.16 782.736Z" fill="white"/>
<path d="M1428.66 712.752C1429.69 711.852 1429.79 710.289 1428.89 709.261C1427.99 708.234 1426.43 708.13 1425.4 709.03C1424.37 709.93 1424.27 711.493 1425.17 712.521C1426.07 713.548 1427.63 713.652 1428.66 712.752Z" fill="white"/>
<path d="M1096.38 547.754C1093.54 550.241 1093.26 554.56 1095.75 557.4C1098.23 560.24 1102.55 560.526 1105.39 558.039C1108.23 555.552 1108.52 551.233 1106.03 548.393C1103.54 545.553 1099.23 545.266 1096.38 547.754Z" fill="white"/>
<path d="M1283.93 988.49C1284.76 989.44 1286.2 989.535 1287.15 988.703C1288.1 987.871 1288.2 986.427 1287.37 985.477C1286.53 984.527 1285.09 984.432 1284.14 985.264C1283.19 986.096 1283.09 987.539 1283.93 988.49Z" fill="white"/>
<path d="M1129.25 660.799C1128.58 660.028 1127.41 659.95 1126.63 660.626C1125.86 661.302 1125.78 662.475 1126.46 663.247C1127.14 664.019 1128.31 664.097 1129.08 663.421C1129.85 662.745 1129.93 661.571 1129.25 660.799Z" fill="white"/>
<path d="M1431.4 1141.07C1433.38 1139.33 1433.58 1136.31 1431.85 1134.33C1430.11 1132.34 1427.09 1132.14 1425.11 1133.88C1423.12 1135.62 1422.92 1138.64 1424.66 1140.62C1426.4 1142.6 1429.42 1142.8 1431.4 1141.07Z" fill="white"/>
<path d="M1385.9 722.175C1387.06 723.498 1389.07 723.631 1390.39 722.472C1391.71 721.314 1391.85 719.304 1390.69 717.981C1389.53 716.658 1387.52 716.525 1386.2 717.683C1384.87 718.842 1384.74 720.852 1385.9 722.175Z" fill="white"/>
<path d="M1345.29 766.716C1348.08 764.274 1348.36 760.033 1345.91 757.244C1343.47 754.456 1339.23 754.175 1336.44 756.617C1333.65 759.059 1333.37 763.3 1335.81 766.089C1338.26 768.878 1342.5 769.159 1345.29 766.716Z" fill="white"/>
<path d="M1206.47 500.208C1205.81 499.46 1204.68 499.383 1203.93 500.04C1203.18 500.695 1203.1 501.835 1203.76 502.583C1204.41 503.331 1205.55 503.407 1206.3 502.751C1207.05 502.095 1207.13 500.958 1206.47 500.208Z" fill="white"/>
<path d="M1581.44 724.709C1583.76 727.355 1587.78 727.622 1590.42 725.304C1593.07 722.987 1593.34 718.963 1591.02 716.317C1588.7 713.671 1584.68 713.405 1582.03 715.722C1579.39 718.038 1579.12 722.063 1581.44 724.709Z" fill="white"/>
<path d="M1237.75 568.628C1236.4 567.085 1234.06 566.929 1232.51 568.28C1230.97 569.631 1230.82 571.976 1232.17 573.519C1233.52 575.062 1235.86 575.217 1237.41 573.866C1238.95 572.515 1239.1 570.17 1237.75 568.628Z" fill="white"/>
<path d="M862.251 762.02C863.034 761.334 863.113 760.142 862.427 759.359C861.741 758.575 860.549 758.496 859.766 759.182C858.982 759.869 858.903 761.06 859.589 761.844C860.276 762.627 861.467 762.706 862.251 762.02Z" fill="white"/>
<path d="M1173.07 976.429C1174.48 978.037 1176.92 978.199 1178.53 976.791C1180.14 975.383 1180.3 972.938 1178.89 971.33C1177.49 969.722 1175.04 969.56 1173.43 970.968C1171.83 972.376 1171.66 974.821 1173.07 976.429Z" fill="white"/>
<path d="M1220.74 909.358C1219.97 910.031 1219.89 911.198 1220.56 911.966C1221.24 912.733 1222.4 912.811 1223.17 912.138C1223.94 911.466 1224.02 910.299 1223.34 909.531C1222.67 908.764 1221.51 908.686 1220.74 909.358Z" fill="white"/>
<path d="M1311.09 934.64C1311.95 933.888 1312.03 932.584 1311.28 931.726C1310.53 930.869 1309.23 930.783 1308.37 931.533C1307.51 932.284 1307.42 933.589 1308.18 934.447C1308.93 935.305 1310.23 935.391 1311.09 934.64Z" fill="white"/>
<path d="M1339.64 405.449C1338.74 406.232 1338.65 407.592 1339.44 408.487C1340.22 409.381 1341.58 409.471 1342.47 408.688C1343.37 407.905 1343.46 406.545 1342.67 405.65C1341.89 404.756 1340.53 404.666 1339.64 405.449Z" fill="white"/>
<path d="M1184.38 1040.68C1186.67 1043.29 1190.66 1043.56 1193.27 1041.27C1195.89 1038.97 1196.16 1034.99 1193.86 1032.37C1191.57 1029.76 1187.59 1029.49 1184.97 1031.79C1182.35 1034.08 1182.09 1038.06 1184.38 1040.68Z" fill="white"/>
<path d="M1584.97 661.185C1585.89 662.237 1587.49 662.343 1588.54 661.422C1589.6 660.501 1589.7 658.901 1588.78 657.849C1587.86 656.798 1586.26 656.692 1585.21 657.613C1584.16 658.534 1584.05 660.134 1584.97 661.185Z" fill="white"/>
<path d="M1118.62 917.379C1116.64 915.116 1113.2 914.888 1110.94 916.87C1108.67 918.851 1108.44 922.292 1110.43 924.556C1112.41 926.818 1115.85 927.047 1118.11 925.065C1120.37 923.083 1120.6 919.641 1118.62 917.379Z" fill="white"/>
<path d="M1248.13 707.117C1245.36 709.541 1245.08 713.751 1247.5 716.519C1249.93 719.287 1254.14 719.566 1256.91 717.142C1259.67 714.717 1259.95 710.508 1257.53 707.74C1255.1 704.972 1250.9 704.693 1248.13 707.117Z" fill="white"/>
<path d="M1051.96 931.534C1054.32 929.468 1054.56 925.88 1052.49 923.52C1050.42 921.16 1046.84 920.923 1044.48 922.989C1042.12 925.056 1041.88 928.644 1043.94 931.003C1046.01 933.363 1049.6 933.601 1051.96 931.534Z" fill="white"/>
<path d="M1475.83 810.098C1476.85 811.254 1478.61 811.371 1479.76 810.358C1480.92 809.345 1481.04 807.586 1480.02 806.429C1479.01 805.273 1477.25 805.155 1476.1 806.169C1474.94 807.181 1474.82 808.94 1475.83 810.098Z" fill="white"/>
<path d="M1479.46 518.353C1478.55 517.323 1476.99 517.219 1475.96 518.122C1474.93 519.024 1474.82 520.59 1475.73 521.62C1476.63 522.65 1478.19 522.754 1479.22 521.852C1480.25 520.95 1480.36 519.384 1479.46 518.353Z" fill="white"/>
<path d="M1229.59 438.335C1231.55 436.615 1231.75 433.63 1230.03 431.666C1228.31 429.703 1225.32 429.505 1223.36 431.224C1221.4 432.944 1221.2 435.929 1222.92 437.893C1224.64 439.856 1227.62 440.054 1229.59 438.335Z" fill="white"/>
<path d="M1503.98 965.882C1503.21 965.008 1501.88 964.92 1501.01 965.685C1500.14 966.451 1500.05 967.781 1500.81 968.655C1501.58 969.529 1502.91 969.617 1503.78 968.852C1504.66 968.086 1504.74 966.756 1503.98 965.882Z" fill="white"/>
<path d="M1345.49 1089.43C1347.63 1091.87 1351.35 1092.12 1353.79 1089.98C1356.24 1087.84 1356.49 1084.12 1354.34 1081.67C1352.2 1079.23 1348.48 1078.98 1346.04 1081.12C1343.6 1083.26 1343.35 1086.98 1345.49 1089.43Z" fill="white"/>
<path d="M1521.35 569.399C1522.59 568.313 1522.71 566.429 1521.63 565.19C1520.54 563.95 1518.66 563.825 1517.42 564.911C1516.18 565.996 1516.05 567.881 1517.14 569.12C1518.22 570.36 1520.11 570.484 1521.35 569.399Z" fill="white"/>
<path d="M1315.36 361.28C1316.25 359.464 1315.5 357.27 1313.68 356.379C1311.87 355.488 1309.67 356.238 1308.78 358.054C1307.89 359.87 1308.64 362.064 1310.45 362.955C1312.27 363.846 1314.47 363.096 1315.36 361.28Z" fill="white"/>
<path d="M1354.54 980.738C1356.86 978.707 1357.09 975.183 1355.06 972.864C1353.03 970.545 1349.51 970.312 1347.19 972.342C1344.87 974.372 1344.63 977.898 1346.67 980.216C1348.7 982.535 1352.22 982.769 1354.54 980.738Z" fill="white"/>
<path d="M1041.84 1003.52C1040.02 1001.45 1036.87 1001.24 1034.8 1003.05C1032.73 1004.86 1032.52 1008.01 1034.34 1010.09C1036.15 1012.16 1039.3 1012.36 1041.37 1010.55C1043.44 1008.74 1043.65 1005.59 1041.84 1003.52Z" fill="white"/>
<path d="M1412.02 454.781C1411.24 453.892 1409.89 453.802 1409 454.581C1408.11 455.36 1408.02 456.711 1408.8 457.601C1409.58 458.49 1410.93 458.579 1411.82 457.801C1412.71 457.022 1412.8 455.67 1412.02 454.781Z" fill="white"/>
<path d="M1157.84 901.266C1158.96 902.55 1160.91 902.68 1162.2 901.555C1163.48 900.43 1163.61 898.478 1162.49 897.194C1161.36 895.909 1159.41 895.78 1158.13 896.905C1156.84 898.029 1156.71 899.982 1157.84 901.266Z" fill="white"/>
<path d="M1310.85 623.983C1313.52 621.65 1313.79 617.6 1311.45 614.936C1309.12 612.272 1305.07 612.004 1302.41 614.337C1299.74 616.669 1299.47 620.72 1301.81 623.384C1304.14 626.048 1308.19 626.316 1310.85 623.983Z" fill="white"/>
<path d="M1452.58 1075.84C1453.41 1076.79 1454.85 1076.88 1455.8 1076.05C1456.75 1075.22 1456.84 1073.78 1456.01 1072.83C1455.18 1071.88 1453.74 1071.78 1452.79 1072.61C1451.84 1073.45 1451.74 1074.89 1452.58 1075.84Z" fill="white"/>
<path d="M1247.4 1041.35C1248.14 1042.2 1249.44 1042.28 1250.29 1041.54C1251.14 1040.79 1251.22 1039.5 1250.48 1038.65C1249.73 1037.8 1248.44 1037.71 1247.59 1038.46C1246.74 1039.2 1246.65 1040.5 1247.4 1041.35Z" fill="white"/>
<path d="M1546.27 982.721C1548.31 980.934 1548.52 977.832 1546.73 975.792C1544.94 973.752 1541.84 973.546 1539.8 975.333C1537.76 977.119 1537.56 980.221 1539.34 982.261C1541.13 984.302 1544.23 984.507 1546.27 982.721Z" fill="white"/>
<path d="M1310.44 821.474C1309.57 822.237 1309.48 823.561 1310.24 824.432C1311 825.303 1312.33 825.391 1313.2 824.628C1314.07 823.865 1314.16 822.541 1313.4 821.67C1312.63 820.801 1311.31 820.712 1310.44 821.474Z" fill="white"/>
<path d="M980.255 666.825C978.619 668.258 978.455 670.745 979.887 672.38C981.319 674.016 983.806 674.181 985.442 672.748C987.077 671.316 987.242 668.829 985.81 667.193C984.379 665.557 981.89 665.393 980.255 666.825Z" fill="white"/>
<path d="M1342.31 487.356C1343.77 486.08 1343.92 483.864 1342.64 482.406C1341.36 480.948 1339.15 480.802 1337.69 482.078C1336.23 483.354 1336.08 485.571 1337.36 487.028C1338.64 488.486 1340.85 488.633 1342.31 487.356Z" fill="white"/>
<path d="M1566.99 920.314C1566.16 921.04 1566.08 922.302 1566.8 923.132C1567.53 923.961 1568.79 924.045 1569.62 923.318C1570.45 922.592 1570.53 921.33 1569.81 920.501C1569.08 919.671 1567.82 919.588 1566.99 920.314Z" fill="white"/>
<path d="M981.795 729.729C980.156 727.858 977.31 727.669 975.439 729.308C973.567 730.947 973.379 733.792 975.017 735.664C976.656 737.535 979.502 737.724 981.373 736.085C983.245 734.446 983.433 731.601 981.795 729.729Z" fill="white"/>
<path d="M1361.12 879.875C1362.92 881.925 1366.04 882.132 1368.09 880.337C1370.14 878.541 1370.34 875.424 1368.55 873.374C1366.75 871.323 1363.63 871.118 1361.58 872.913C1359.53 874.707 1359.33 877.824 1361.12 879.875Z" fill="white"/>
<path d="M847.771 801.184C846.681 802.138 846.571 803.797 847.525 804.886C848.479 805.974 850.138 806.085 851.228 805.131C852.318 804.176 852.428 802.518 851.473 801.428C850.518 800.338 848.861 800.229 847.771 801.184Z" fill="white"/>
<path d="M1064.22 755.111C1066.71 752.934 1066.96 749.155 1064.78 746.67C1062.61 744.185 1058.83 743.935 1056.34 746.111C1053.86 748.287 1053.61 752.066 1055.78 754.552C1057.96 757.037 1061.74 757.287 1064.22 755.111Z" fill="white"/>
<path d="M1355.07 561.405C1357.13 559.598 1357.34 556.461 1355.53 554.399C1353.72 552.335 1350.59 552.128 1348.52 553.935C1346.46 555.742 1346.25 558.879 1348.06 560.941C1349.86 563.004 1353 563.212 1355.07 561.405Z" fill="white"/>
<path d="M1136.1 780.859C1138.17 779.046 1138.38 775.898 1136.57 773.828C1134.76 771.758 1131.61 771.55 1129.54 773.363C1127.47 775.175 1127.26 778.323 1129.07 780.393C1130.89 782.463 1134.03 782.672 1136.1 780.859Z" fill="white"/>
<path d="M1041.13 873.581C1039.09 875.369 1038.88 878.473 1040.67 880.516C1042.46 882.557 1045.56 882.764 1047.6 880.975C1049.64 879.188 1049.85 876.083 1048.06 874.04C1046.27 871.998 1043.17 871.793 1041.13 873.581Z" fill="white"/>
<path d="M1510.13 626.347C1512.62 624.171 1512.87 620.393 1510.69 617.908C1508.51 615.424 1504.74 615.174 1502.25 617.349C1499.77 619.525 1499.52 623.303 1501.69 625.788C1503.87 628.272 1507.65 628.522 1510.13 626.347Z" fill="white"/>
<path d="M1360.46 1147.55C1362.16 1146.05 1362.34 1143.46 1360.84 1141.76C1359.35 1140.05 1356.76 1139.88 1355.05 1141.37C1353.35 1142.87 1353.18 1145.46 1354.67 1147.16C1356.16 1148.87 1358.76 1149.04 1360.46 1147.55Z" fill="white"/>
<path d="M1522.77 700.391C1523.45 701.172 1524.64 701.251 1525.42 700.567C1526.2 699.884 1526.28 698.696 1525.6 697.916C1524.91 697.135 1523.73 697.056 1522.95 697.74C1522.17 698.425 1522.09 699.611 1522.77 700.391Z" fill="white"/>
<path d="M1662.42 894.263C1663.61 895.622 1665.67 895.758 1667.03 894.569C1668.39 893.379 1668.53 891.313 1667.34 889.955C1666.15 888.596 1664.08 888.46 1662.72 889.65C1661.37 890.84 1661.23 892.905 1662.42 894.263Z" fill="white"/>
<path d="M952.006 896.843C949.463 893.94 945.047 893.647 942.143 896.19C939.24 898.733 938.947 903.148 941.49 906.052C944.033 908.956 948.448 909.249 951.352 906.706C954.257 904.164 954.55 899.748 952.006 896.843Z" fill="white"/>
<path d="M1423.57 599.952C1421.59 597.693 1418.15 597.465 1415.89 599.443C1413.63 601.422 1413.41 604.856 1415.39 607.115C1417.36 609.374 1420.8 609.602 1423.06 607.623C1425.32 605.645 1425.54 602.21 1423.57 599.952Z" fill="white"/>
<path d="M1601.77 961.282C1600.74 962.187 1600.64 963.758 1601.54 964.792C1602.45 965.825 1604.02 965.929 1605.05 965.024C1606.09 964.119 1606.19 962.547 1605.28 961.514C1604.38 960.48 1602.81 960.377 1601.77 961.282Z" fill="white"/>
<path d="M1170.41 717.737C1169.56 716.767 1168.08 716.67 1167.11 717.519C1166.14 718.369 1166.04 719.844 1166.89 720.813C1167.74 721.783 1169.22 721.88 1170.19 721.031C1171.16 720.182 1171.25 718.707 1170.41 717.737Z" fill="white"/>
<path d="M1673.12 755.104C1675.4 753.108 1675.63 749.642 1673.64 747.362C1671.64 745.083 1668.17 744.853 1665.9 746.849C1663.62 748.846 1663.39 752.312 1665.38 754.591C1667.38 756.87 1670.84 757.1 1673.12 755.104Z" fill="white"/>
<path d="M1540.22 757.386C1541.36 756.388 1541.47 754.655 1540.48 753.515C1539.48 752.376 1537.75 752.261 1536.61 753.259C1535.47 754.257 1535.35 755.99 1536.35 757.13C1537.35 758.27 1539.08 758.384 1540.22 757.386Z" fill="white"/>
<path d="M1539.56 1028.48C1541.82 1026.5 1542.05 1023.06 1540.07 1020.8C1538.09 1018.54 1534.65 1018.31 1532.39 1020.29C1530.13 1022.27 1529.9 1025.71 1531.88 1027.97C1533.86 1030.23 1537.3 1030.46 1539.56 1028.48Z" fill="white"/>
<path d="M1317.85 690.757C1320.44 688.485 1320.71 684.539 1318.43 681.944C1316.16 679.349 1312.22 679.088 1309.62 681.36C1307.03 683.633 1306.76 687.579 1309.04 690.173C1311.31 692.768 1315.25 693.03 1317.85 690.757Z" fill="white"/>
<path d="M1428.14 772.966C1427.32 772.029 1425.89 771.934 1424.95 772.755C1424.02 773.576 1423.92 775.002 1424.74 775.939C1425.56 776.876 1426.99 776.971 1427.93 776.15C1428.86 775.329 1428.96 773.903 1428.14 772.966Z" fill="white"/>
<path d="M1068.4 1059.8C1069.4 1060.94 1071.13 1061.05 1072.27 1060.06C1073.41 1059.06 1073.53 1057.32 1072.53 1056.19C1071.53 1055.05 1069.8 1054.93 1068.66 1055.93C1067.52 1056.93 1067.41 1058.66 1068.4 1059.8Z" fill="white"/>
<path d="M1540.48 844.39C1538.43 842.059 1534.89 841.824 1532.56 843.865C1530.23 845.906 1529.99 849.451 1532.04 851.781C1534.08 854.112 1537.62 854.347 1539.95 852.306C1542.28 850.264 1542.52 846.72 1540.48 844.39Z" fill="white"/>
<path d="M1092.79 824.953C1093.56 824.279 1093.63 823.108 1092.96 822.338C1092.28 821.568 1091.11 821.49 1090.34 822.164C1089.57 822.839 1089.5 824.01 1090.17 824.78C1090.84 825.55 1092.02 825.627 1092.79 824.953Z" fill="white"/>
<path d="M1383.99 634.005C1382.94 632.816 1381.14 632.695 1379.94 633.738C1378.76 634.779 1378.63 636.588 1379.68 637.779C1380.72 638.968 1382.53 639.088 1383.72 638.045C1384.91 637.003 1385.03 635.195 1383.99 634.005Z" fill="white"/>
<path d="M896.875 733.924C895.974 734.713 895.883 736.083 896.672 736.984C897.462 737.885 898.831 737.976 899.732 737.187C900.633 736.398 900.724 735.028 899.935 734.127C899.146 733.226 897.776 733.135 896.875 733.924Z" fill="white"/>
<path d="M1112 1015.19C1113.48 1016.88 1116.05 1017.05 1117.74 1015.57C1119.44 1014.08 1119.61 1011.51 1118.12 1009.82C1116.64 1008.13 1114.07 1007.96 1112.38 1009.44C1110.69 1010.92 1110.52 1013.49 1112 1015.19Z" fill="white"/>
<path d="M1295.76 1079.31C1294.89 1080.08 1294.8 1081.4 1295.57 1082.28C1296.33 1083.15 1297.66 1083.24 1298.53 1082.47C1299.4 1081.71 1299.49 1080.38 1298.73 1079.51C1297.96 1078.64 1296.64 1078.55 1295.76 1079.31Z" fill="white"/>
<path d="M1002.02 934.617C1002.93 933.82 1003.02 932.437 1002.22 931.527C1001.43 930.617 1000.04 930.526 999.132 931.323C998.222 932.119 998.131 933.503 998.927 934.412C999.724 935.322 1001.11 935.414 1002.02 934.617Z" fill="white"/>
<path d="M1131.94 611.674C1134.04 614.076 1137.7 614.32 1140.1 612.215C1142.5 610.111 1142.74 606.458 1140.64 604.055C1138.53 601.652 1134.88 601.41 1132.48 603.514C1130.08 605.619 1129.83 609.271 1131.94 611.674Z" fill="white"/>
<path d="M1040.91 610.66C1039.27 612.09 1039.11 614.575 1040.54 616.209C1041.97 617.842 1044.46 618.007 1046.09 616.576C1047.72 615.146 1047.89 612.661 1046.46 611.027C1045.03 609.394 1042.54 609.228 1040.91 610.66Z" fill="white"/>
</mask>
<g mask="url(#mask4_27_2047)">
<path d="M900.575 816.46C883.067 831.793 902.724 847.275 914.741 853.099L1002.67 907.196L1057.83 970.184L1088.03 1030.51C1104 1034.75 1142.05 1046.96 1166.4 1061.85C1196.85 1080.46 1214.5 1163.09 1239.67 1177.83C1264.84 1192.57 1323.76 1130.6 1348.18 1118.65C1372.61 1106.69 1455.77 1103.65 1464.85 1095.7C1473.92 1087.76 1512.21 1033.47 1515.54 998.496C1518.86 963.519 1551.36 951.09 1573.19 948.01C1595.01 944.931 1634.28 837.917 1639.49 827.702C1643.65 819.531 1604.44 767.22 1584.32 742.087C1577.26 724.691 1559.52 691.368 1545.05 697.248C1526.96 704.598 1487.82 642.672 1480.07 623.051C1472.32 603.43 1413.36 559.801 1393.48 579.099C1373.6 598.398 1285.48 585.018 1266.07 597.308C1246.65 609.597 1172.28 578.523 1142.5 572.528C1112.73 566.533 1086.34 653.784 1080.34 691.099C1074.35 728.414 922.461 797.294 900.575 816.46Z" fill="#D9D9D9"/>
</g>
</g>
<g opacity="0.21">
<mask id="mask5_27_2047" style="mask-type:alpha" maskUnits="userSpaceOnUse" x="350" y="716" width="905" height="914">
<path d="M1138.76 1097.83C1139.99 1096.75 1140.11 1094.88 1139.04 1093.65C1137.96 1092.43 1136.09 1092.3 1134.86 1093.38C1133.64 1094.45 1133.51 1096.32 1134.59 1097.55C1135.66 1098.78 1137.53 1098.9 1138.76 1097.83Z" fill="white"/>
<path d="M973.562 1032.58C972.769 1031.67 971.391 1031.58 970.486 1032.37C969.58 1033.16 969.489 1034.54 970.282 1035.45C971.075 1036.35 972.453 1036.44 973.358 1035.65C974.263 1034.86 974.354 1033.48 973.562 1032.58Z" fill="white"/>
<path d="M898.686 872.184C899.708 870.097 898.845 867.577 896.758 866.555C894.672 865.533 892.151 866.396 891.129 868.483C890.107 870.569 890.97 873.09 893.057 874.112C895.143 875.134 897.664 874.271 898.686 872.184Z" fill="white"/>
<path d="M775.041 839.457C772.454 841.722 772.194 845.655 774.459 848.242C776.724 850.828 780.657 851.089 783.244 848.824C785.831 846.558 786.091 842.625 783.826 840.039C781.561 837.452 777.628 837.191 775.041 839.457Z" fill="white"/>
<path d="M725.003 981.945C726.088 980.994 726.197 979.345 725.247 978.26C724.297 977.175 722.647 977.066 721.562 978.016C720.477 978.966 720.368 980.616 721.318 981.7C722.268 982.785 723.918 982.895 725.003 981.945Z" fill="white"/>
<path d="M932.66 1072.75C933.688 1071.85 933.791 1070.29 932.891 1069.26C931.991 1068.23 930.429 1068.13 929.401 1069.03C928.373 1069.93 928.27 1071.49 929.17 1072.52C930.07 1073.55 931.632 1073.65 932.66 1072.75Z" fill="white"/>
<path d="M600.385 907.754C597.545 910.241 597.259 914.56 599.746 917.4C602.232 920.24 606.552 920.526 609.392 918.039C612.231 915.552 612.518 911.233 610.031 908.393C607.544 905.553 603.226 905.266 600.385 907.754Z" fill="white"/>
<path d="M633.255 1020.8C632.579 1020.03 631.405 1019.95 630.634 1020.63C629.862 1021.3 629.784 1022.48 630.46 1023.25C631.136 1024.02 632.309 1024.1 633.081 1023.42C633.853 1022.74 633.931 1021.57 633.255 1020.8Z" fill="white"/>
<path d="M889.9 1082.17C891.058 1083.5 893.069 1083.63 894.392 1082.47C895.714 1081.31 895.848 1079.3 894.689 1077.98C893.531 1076.66 891.52 1076.52 890.198 1077.68C888.875 1078.84 888.742 1080.85 889.9 1082.17Z" fill="white"/>
<path d="M849.286 1126.72C852.075 1124.27 852.356 1120.03 849.914 1117.24C847.472 1114.46 843.231 1114.17 840.442 1116.62C837.653 1119.06 837.372 1123.3 839.815 1126.09C842.257 1128.88 846.498 1129.16 849.286 1126.72Z" fill="white"/>
<path d="M710.47 860.208C709.815 859.46 708.676 859.384 707.927 860.04C707.179 860.695 707.103 861.835 707.758 862.583C708.414 863.332 709.553 863.407 710.302 862.752C711.051 862.095 711.126 860.958 710.47 860.208Z" fill="white"/>
<path d="M1085.44 1084.71C1087.76 1087.36 1091.78 1087.62 1094.42 1085.3C1097.07 1082.99 1097.34 1078.96 1095.02 1076.32C1092.7 1073.67 1088.68 1073.41 1086.03 1075.72C1083.39 1078.04 1083.12 1082.06 1085.44 1084.71Z" fill="white"/>
<path d="M741.752 928.627C740.401 927.085 738.057 926.929 736.514 928.28C734.971 929.631 734.816 931.976 736.167 933.519C737.518 935.062 739.863 935.217 741.405 933.866C742.948 932.515 743.103 930.17 741.752 928.627Z" fill="white"/>
<path d="M366.251 1122.02C367.034 1121.33 367.113 1120.14 366.427 1119.36C365.741 1118.58 364.549 1118.5 363.766 1119.18C362.982 1119.87 362.903 1121.06 363.589 1121.84C364.276 1122.63 365.467 1122.71 366.251 1122.02Z" fill="white"/>
<path d="M843.637 765.449C842.742 766.232 842.652 767.592 843.436 768.487C844.219 769.381 845.579 769.471 846.474 768.688C847.368 767.905 847.458 766.545 846.675 765.65C845.891 764.756 844.531 764.666 843.637 765.449Z" fill="white"/>
<path d="M1088.97 1021.19C1089.89 1022.24 1091.49 1022.34 1092.54 1021.42C1093.6 1020.5 1093.7 1018.9 1092.78 1017.85C1091.86 1016.8 1090.26 1016.69 1089.21 1017.61C1088.16 1018.53 1088.05 1020.13 1088.97 1021.19Z" fill="white"/>
<path d="M752.127 1067.12C749.359 1069.54 749.08 1073.75 751.504 1076.52C753.929 1079.29 758.138 1079.57 760.906 1077.14C763.674 1074.72 763.953 1070.51 761.529 1067.74C759.105 1064.97 754.895 1064.69 752.127 1067.12Z" fill="white"/>
<path d="M983.455 878.353C982.553 877.323 980.987 877.219 979.957 878.122C978.927 879.024 978.823 880.59 979.725 881.62C980.627 882.65 982.193 882.754 983.223 881.852C984.254 880.95 984.357 879.384 983.455 878.353Z" fill="white"/>
<path d="M733.587 798.335C735.551 796.615 735.749 793.63 734.029 791.666C732.31 789.703 729.324 789.505 727.361 791.225C725.397 792.944 725.2 795.93 726.919 797.893C728.638 799.856 731.624 800.054 733.587 798.335Z" fill="white"/>
<path d="M1025.35 929.399C1026.59 928.313 1026.71 926.429 1025.63 925.19C1024.54 923.95 1022.66 923.825 1021.42 924.911C1020.18 925.996 1020.05 927.881 1021.14 929.12C1022.22 930.36 1024.11 930.484 1025.35 929.399Z" fill="white"/>
<path d="M819.356 721.28C820.247 719.464 819.497 717.27 817.681 716.379C815.865 715.488 813.671 716.238 812.78 718.054C811.889 719.87 812.639 722.064 814.455 722.955C816.271 723.846 818.465 723.096 819.356 721.28Z" fill="white"/>
<path d="M916.022 814.781C915.243 813.891 913.891 813.802 913.002 814.581C912.112 815.359 912.023 816.711 912.802 817.6C913.58 818.49 914.932 818.579 915.821 817.8C916.711 817.022 916.8 815.67 916.022 814.781Z" fill="white"/>
<path d="M814.853 983.983C817.517 981.65 817.785 977.6 815.453 974.936C813.12 972.272 809.069 972.004 806.405 974.337C803.741 976.669 803.473 980.72 805.806 983.384C808.139 986.048 812.189 986.316 814.853 983.983Z" fill="white"/>
<path d="M484.255 1026.83C482.619 1028.26 482.455 1030.74 483.887 1032.38C485.319 1034.02 487.806 1034.18 489.442 1032.75C491.077 1031.32 491.242 1028.83 489.81 1027.19C488.379 1025.56 485.89 1025.39 484.255 1026.83Z" fill="white"/>
<path d="M846.311 847.356C847.768 846.08 847.915 843.864 846.639 842.406C845.362 840.948 843.146 840.802 841.689 842.078C840.231 843.354 840.084 845.571 841.361 847.028C842.637 848.486 844.853 848.633 846.311 847.356Z" fill="white"/>
<path d="M485.795 1089.73C484.156 1087.86 481.31 1087.67 479.439 1089.31C477.567 1090.95 477.379 1093.79 479.017 1095.66C480.656 1097.54 483.502 1097.72 485.373 1096.09C487.245 1094.45 487.433 1091.6 485.795 1089.73Z" fill="white"/>
<path d="M568.222 1115.11C570.708 1112.93 570.958 1109.16 568.782 1106.67C566.605 1104.19 562.826 1103.93 560.341 1106.11C557.856 1108.29 557.605 1112.07 559.782 1114.55C561.958 1117.04 565.737 1117.29 568.222 1115.11Z" fill="white"/>
<path d="M859.065 921.405C861.129 919.598 861.336 916.461 859.53 914.399C857.722 912.335 854.585 912.128 852.523 913.935C850.459 915.742 850.252 918.879 852.059 920.941C853.865 923.004 857.003 923.212 859.065 921.405Z" fill="white"/>
<path d="M640.104 1140.86C642.174 1139.05 642.383 1135.9 640.57 1133.83C638.757 1131.76 635.609 1131.55 633.539 1133.36C631.469 1135.18 631.26 1138.32 633.073 1140.39C634.886 1142.46 638.034 1142.67 640.104 1140.86Z" fill="white"/>
<path d="M1014.13 986.347C1016.62 984.171 1016.87 980.393 1014.69 977.908C1012.51 975.424 1008.74 975.174 1006.25 977.349C1003.77 979.525 1003.52 983.304 1005.69 985.788C1007.87 988.272 1011.65 988.522 1014.13 986.347Z" fill="white"/>
<path d="M1026.77 1060.39C1027.45 1061.17 1028.64 1061.25 1029.42 1060.57C1030.2 1059.88 1030.28 1058.7 1029.6 1057.92C1028.91 1057.14 1027.73 1057.06 1026.95 1057.74C1026.17 1058.42 1026.09 1059.61 1026.77 1060.39Z" fill="white"/>
<path d="M927.565 959.952C925.587 957.693 922.153 957.465 919.894 959.443C917.635 961.422 917.407 964.856 919.386 967.115C921.364 969.374 924.798 969.602 927.057 967.623C929.316 965.645 929.543 962.21 927.565 959.952Z" fill="white"/>
<path d="M674.406 1077.74C673.556 1076.77 672.081 1076.67 671.112 1077.52C670.141 1078.37 670.045 1079.84 670.894 1080.81C671.743 1081.78 673.218 1081.88 674.188 1081.03C675.158 1080.18 675.255 1078.71 674.406 1077.74Z" fill="white"/>
<path d="M1177.12 1115.1C1179.4 1113.11 1179.63 1109.64 1177.64 1107.36C1175.64 1105.08 1172.17 1104.85 1169.9 1106.85C1167.62 1108.85 1167.39 1112.31 1169.38 1114.59C1171.38 1116.87 1174.84 1117.1 1177.12 1115.1Z" fill="white"/>
<path d="M1044.22 1117.39C1045.36 1116.39 1045.47 1114.66 1044.48 1113.52C1043.48 1112.38 1041.75 1112.26 1040.61 1113.26C1039.47 1114.26 1039.35 1115.99 1040.35 1117.13C1041.35 1118.27 1043.08 1118.38 1044.22 1117.39Z" fill="white"/>
<path d="M821.85 1050.76C824.445 1048.48 824.706 1044.54 822.433 1041.94C820.161 1039.35 816.215 1039.09 813.62 1041.36C811.026 1043.63 810.764 1047.58 813.037 1050.17C815.309 1052.77 819.255 1053.03 821.85 1050.76Z" fill="white"/>
<path d="M932.138 1132.97C931.317 1132.03 929.892 1131.93 928.954 1132.75C928.017 1133.58 927.922 1135 928.743 1135.94C929.564 1136.88 930.99 1136.97 931.927 1136.15C932.865 1135.33 932.959 1133.9 932.138 1132.97Z" fill="white"/>
<path d="M887.986 994.005C886.944 992.816 885.135 992.695 883.945 993.738C882.755 994.779 882.635 996.588 883.677 997.779C884.718 998.968 886.527 999.088 887.717 998.045C888.907 997.003 889.027 995.195 887.986 994.005Z" fill="white"/>
<path d="M400.875 1093.92C399.974 1094.71 399.883 1096.08 400.672 1096.98C401.462 1097.89 402.831 1097.98 403.732 1097.19C404.633 1096.4 404.724 1095.03 403.935 1094.13C403.146 1093.23 401.776 1093.14 400.875 1093.92Z" fill="white"/>
<path d="M635.938 971.674C638.042 974.076 641.695 974.32 644.098 972.215C646.502 970.111 646.744 966.458 644.639 964.055C642.535 961.652 638.882 961.41 636.479 963.514C634.076 965.619 633.834 969.271 635.938 971.674Z" fill="white"/>
<path d="M544.908 970.66C543.274 972.09 543.11 974.575 544.54 976.209C545.971 977.842 548.456 978.007 550.089 976.576C551.722 975.146 551.887 972.661 550.457 971.027C549.026 969.394 546.542 969.228 544.908 970.66Z" fill="white"/>
</mask>
<g mask="url(#mask5_27_2047)">
<path d="M404.575 1176.46C387.067 1191.79 406.724 1207.27 418.741 1213.1L506.671 1267.2L561.831 1330.18L592.027 1390.51C608.003 1394.75 646.046 1406.96 670.402 1421.85C700.847 1440.46 718.503 1523.09 743.673 1537.83C768.843 1552.57 827.757 1490.6 852.182 1478.65C876.607 1466.69 959.774 1463.65 968.848 1455.7C977.923 1447.76 1016.21 1393.47 1019.54 1358.5C1022.86 1323.52 1055.36 1311.09 1077.19 1308.01C1099.01 1304.93 1138.28 1197.92 1143.49 1187.7C1147.65 1179.53 1108.44 1127.22 1088.32 1102.09C1081.26 1084.69 1063.52 1051.37 1049.05 1057.25C1030.96 1064.6 991.823 1002.67 984.072 983.051C976.321 963.43 917.364 919.801 897.481 939.099C877.598 958.398 789.485 945.018 770.066 957.308C750.647 969.597 676.277 938.523 646.504 932.528C616.732 926.533 590.336 1013.78 584.344 1051.1C578.352 1088.41 426.461 1157.29 404.575 1176.46Z" fill="#D9D9D9"/>
</g>
</g>
<g opacity="0.79">
<mask id="mask6_27_2047" style="mask-type:alpha" maskUnits="userSpaceOnUse" x="1554" y="587" width="668" height="675">
<path d="M1589.1 682C1586.81 682 1584.95 683.856 1584.95 686.147C1584.95 688.437 1586.81 690.293 1589.1 690.293C1591.39 690.293 1593.24 688.437 1593.24 686.147C1593.25 683.858 1591.39 682 1589.1 682Z" fill="white"/>
<path d="M1613.26 715.391C1614.76 715.391 1615.98 714.174 1615.98 712.673C1615.98 711.173 1614.76 709.956 1613.26 709.956C1611.76 709.956 1610.55 711.173 1610.55 712.673C1610.55 714.174 1611.76 715.391 1613.26 715.391Z" fill="white"/>
<path d="M1781.63 869.291C1781.63 871.057 1783.06 872.489 1784.83 872.489C1786.59 872.489 1788.02 871.057 1788.02 869.291C1788.02 867.526 1786.59 866.094 1784.83 866.094C1783.06 866.094 1781.63 867.526 1781.63 869.291Z" fill="white"/>
<path d="M1839.42 865.823C1839.42 864.817 1838.6 864.001 1837.6 864.001C1836.59 864.001 1835.77 864.817 1835.77 865.823C1835.77 866.829 1836.59 867.645 1837.6 867.645C1838.6 867.645 1839.42 866.829 1839.42 865.823Z" fill="white"/>
<path d="M1577.99 1002.52C1577.99 1005.21 1580.18 1007.4 1582.87 1007.4C1585.57 1007.4 1587.75 1005.21 1587.75 1002.52C1587.75 999.822 1585.57 997.637 1582.87 997.637C1580.18 997.637 1577.99 999.822 1577.99 1002.52Z" fill="white"/>
<path d="M1904.76 1146.64C1908.48 1146.64 1911.49 1143.62 1911.49 1139.91C1911.49 1136.19 1908.48 1133.17 1904.76 1133.17C1901.04 1133.17 1898.03 1136.19 1898.03 1139.91C1898.03 1143.62 1901.04 1146.64 1904.76 1146.64Z" fill="white"/>
<path d="M1638.03 1068.13C1638.03 1069.57 1639.19 1070.74 1640.63 1070.74C1642.07 1070.74 1643.24 1069.57 1643.24 1068.13C1643.24 1066.7 1642.07 1065.53 1640.63 1065.53C1639.19 1065.53 1638.03 1066.7 1638.03 1068.13Z" fill="white"/>
<path d="M1608.74 908.047C1608.74 910.491 1610.72 912.473 1613.17 912.473C1615.61 912.473 1617.59 910.492 1617.59 908.047C1617.59 905.602 1615.61 903.621 1613.17 903.621C1610.72 903.621 1608.74 905.602 1608.74 908.047Z" fill="white"/>
<path d="M1694.22 712.483C1693.14 712.483 1692.27 713.359 1692.27 714.44C1692.27 715.52 1693.14 716.396 1694.22 716.396C1695.3 716.396 1696.18 715.52 1696.18 714.44C1696.18 713.359 1695.3 712.483 1694.22 712.483Z" fill="white"/>
<path d="M1763.12 1046.32C1763.12 1047.58 1764.14 1048.6 1765.4 1048.6C1766.67 1048.6 1767.69 1047.58 1767.69 1046.32C1767.69 1045.05 1766.67 1044.03 1765.4 1044.03C1764.14 1044.03 1763.12 1045.05 1763.12 1046.32Z" fill="white"/>
<path d="M1862.65 697.894C1862.65 696.868 1861.82 696.036 1860.79 696.036C1859.76 696.036 1858.93 696.868 1858.93 697.894C1858.93 698.92 1859.76 699.751 1860.79 699.751C1861.82 699.751 1862.65 698.92 1862.65 697.894Z" fill="white"/>
<path d="M1595.09 598.136C1596.13 598.136 1596.98 597.292 1596.98 596.25C1596.98 595.208 1596.13 594.364 1595.09 594.364C1594.05 594.364 1593.21 595.208 1593.21 596.25C1593.21 597.292 1594.05 598.136 1595.09 598.136Z" fill="white"/>
<path d="M1687.67 964.21C1687.67 966.348 1689.4 968.08 1691.54 968.08C1693.68 968.08 1695.41 966.348 1695.41 964.21C1695.41 962.073 1693.68 960.341 1691.54 960.341C1689.4 960.341 1687.67 962.073 1687.67 964.21Z" fill="white"/>
<path d="M1767.72 945.156C1766.69 945.156 1765.87 945.984 1765.87 947.004C1765.87 948.024 1766.69 948.852 1767.72 948.852C1768.74 948.852 1769.56 948.024 1769.56 947.004C1769.56 945.984 1768.74 945.156 1767.72 945.156Z" fill="white"/>
<path d="M1819.03 1023.7C1820.17 1023.7 1821.1 1022.78 1821.1 1021.64C1821.1 1020.5 1820.17 1019.57 1819.03 1019.57C1817.89 1019.57 1816.97 1020.49 1816.97 1021.64C1816.97 1022.78 1817.89 1023.7 1819.03 1023.7Z" fill="white"/>
<path d="M1653.85 1020C1653.85 1023.48 1656.67 1026.3 1660.15 1026.3C1663.63 1026.3 1666.45 1023.48 1666.45 1020C1666.45 1016.52 1663.63 1013.7 1660.15 1013.7C1656.67 1013.7 1653.85 1016.52 1653.85 1020Z" fill="white"/>
<path d="M1685.61 883.914C1685.61 880.906 1683.17 878.468 1680.16 878.468C1677.15 878.468 1674.72 880.906 1674.72 883.914C1674.72 886.921 1677.15 889.36 1680.16 889.36C1683.17 889.359 1685.61 886.921 1685.61 883.914Z" fill="white"/>
<path d="M1626.13 850.645C1629.27 850.645 1631.81 848.102 1631.81 844.966C1631.81 841.829 1629.27 839.286 1626.13 839.286C1623 839.286 1620.45 841.829 1620.45 844.966C1620.45 848.102 1623 850.645 1626.13 850.645Z" fill="white"/>
<path d="M1560.68 1101.66C1562.79 1101.66 1564.5 1099.94 1564.5 1097.83C1564.5 1095.72 1562.79 1094.01 1560.68 1094.01C1558.57 1094.01 1556.85 1095.72 1556.85 1097.83C1556.85 1099.94 1558.57 1101.66 1560.68 1101.66Z" fill="white"/>
<path d="M1821.35 1087.01C1824.43 1087.01 1826.93 1084.51 1826.93 1081.43C1826.93 1078.34 1824.43 1075.85 1821.35 1075.85C1818.27 1075.85 1815.77 1078.34 1815.77 1081.43C1815.77 1084.51 1818.27 1087.01 1821.35 1087.01Z" fill="white"/>
<path d="M1571.09 898.129C1571.09 895.376 1568.86 893.144 1566.11 893.144C1563.36 893.144 1561.12 895.376 1561.12 898.129C1561.12 900.882 1563.36 903.114 1566.11 903.114C1568.86 903.116 1571.09 900.884 1571.09 898.129Z" fill="white"/>
<path d="M1725.73 897.628C1725.73 899.335 1727.11 900.719 1728.82 900.719C1730.52 900.719 1731.91 899.335 1731.91 897.628C1731.91 895.921 1730.52 894.537 1728.82 894.537C1727.11 894.537 1725.73 895.921 1725.73 897.628Z" fill="white"/>
<path d="M1700.82 1062.02C1700.82 1063.15 1701.73 1064.06 1702.86 1064.06C1703.99 1064.06 1704.91 1063.15 1704.91 1062.02C1704.91 1060.89 1703.99 1059.97 1702.86 1059.97C1701.73 1059.97 1700.82 1060.89 1700.82 1062.02Z" fill="white"/>
<path d="M1893.1 938.136C1891.94 938.136 1891 939.074 1891 940.232C1891 941.39 1891.94 942.328 1893.1 942.328C1894.25 942.328 1895.19 941.39 1895.19 940.232C1895.19 939.075 1894.25 938.136 1893.1 938.136Z" fill="white"/>
<path d="M1746.58 604.264C1744.41 604.264 1742.65 606.026 1742.65 608.2C1742.65 610.374 1744.41 612.137 1746.58 612.137C1748.76 612.137 1750.52 610.374 1750.52 608.2C1750.52 606.026 1748.76 604.264 1746.58 604.264Z" fill="white"/>
<path d="M1706.3 652.601C1706.3 650.113 1704.28 648.096 1701.8 648.096C1699.31 648.096 1697.29 650.113 1697.29 652.601C1697.29 655.088 1699.31 657.105 1701.8 657.105C1704.28 657.105 1706.3 655.088 1706.3 652.601Z" fill="white"/>
<path d="M1892.75 1015.46C1892.75 1018.19 1894.96 1020.4 1897.69 1020.4C1900.41 1020.4 1902.62 1018.19 1902.62 1015.46C1902.62 1012.74 1900.41 1010.53 1897.69 1010.53C1894.96 1010.53 1892.75 1012.74 1892.75 1015.46Z" fill="white"/>
<path d="M1620.82 1137.73C1618.31 1137.73 1616.29 1139.75 1616.29 1142.25C1616.29 1144.75 1618.31 1146.78 1620.82 1146.78C1623.32 1146.78 1625.34 1144.75 1625.34 1142.25C1625.34 1139.75 1623.32 1137.73 1620.82 1137.73Z" fill="white"/>
<path d="M1558.4 618.06C1556.95 618.06 1555.77 619.235 1555.77 620.682C1555.77 622.13 1556.95 623.306 1558.4 623.306C1559.85 623.306 1561.02 622.131 1561.02 620.682C1561.02 619.234 1559.85 618.06 1558.4 618.06Z" fill="white"/>
<path d="M1751.59 726C1754.89 726 1757.57 723.322 1757.57 720.019C1757.57 716.715 1754.89 714.037 1751.59 714.037C1748.29 714.037 1745.61 716.715 1745.61 720.019C1745.61 723.322 1748.29 726 1751.59 726Z" fill="white"/>
<path d="M1788.7 792.727C1791.45 792.727 1793.68 790.497 1793.68 787.745C1793.68 784.993 1791.45 782.762 1788.7 782.762C1785.95 782.762 1783.72 784.993 1783.72 787.745C1783.72 790.497 1785.95 792.727 1788.7 792.727Z" fill="white"/>
<path d="M1656.16 799.911C1653.45 799.911 1651.25 802.11 1651.25 804.825C1651.25 807.538 1653.45 809.74 1656.16 809.74C1658.88 809.74 1661.08 807.54 1661.08 804.825C1661.08 802.11 1658.88 799.911 1656.16 799.911Z" fill="white"/>
<path d="M1573.79 758.696C1573.79 754.836 1570.66 751.707 1566.8 751.707C1562.94 751.707 1559.81 754.836 1559.81 758.696C1559.81 762.556 1562.94 765.685 1566.8 765.685C1570.66 765.687 1573.79 762.557 1573.79 758.696Z" fill="white"/>
<path d="M1856.09 767.84C1856.09 766.55 1855.05 765.505 1853.76 765.505C1852.47 765.505 1851.42 766.551 1851.42 767.84C1851.42 769.128 1852.47 770.174 1853.76 770.174C1855.05 770.174 1856.09 769.128 1856.09 767.84Z" fill="white"/>
<path d="M1554 957.973C1554 959.489 1555.23 960.716 1556.74 960.716C1558.26 960.716 1559.49 959.488 1559.49 957.973C1559.49 956.459 1558.26 955.23 1556.74 955.23C1555.23 955.23 1554 956.459 1554 957.973Z" fill="white"/>
<path d="M1727.06 797.361C1728.09 797.361 1728.92 796.531 1728.92 795.507C1728.92 794.484 1728.09 793.654 1727.06 793.654C1726.04 793.654 1725.21 794.484 1725.21 795.507C1725.21 796.531 1726.04 797.361 1727.06 797.361Z" fill="white"/>
<path d="M1639.65 599.811C1638.45 599.811 1637.48 600.781 1637.48 601.979C1637.48 603.177 1638.45 604.147 1639.65 604.147C1640.85 604.147 1641.82 603.177 1641.82 601.979C1641.82 600.781 1640.85 599.811 1639.65 599.811Z" fill="white"/>
<path d="M1616.19 953.133C1616.19 955.381 1618.01 957.203 1620.26 957.203C1622.51 957.203 1624.33 955.381 1624.33 953.133C1624.33 950.885 1622.51 949.063 1620.26 949.063C1618.01 949.063 1616.19 950.885 1616.19 953.133Z" fill="white"/>
<path d="M1712.19 1122.44C1711.03 1122.44 1710.09 1123.38 1710.09 1124.54C1710.09 1125.7 1711.03 1126.64 1712.19 1126.64C1713.35 1126.64 1714.29 1125.7 1714.29 1124.54C1714.29 1123.38 1713.35 1122.44 1712.19 1122.44Z" fill="white"/>
<path d="M1586.53 820.062C1587.74 820.062 1588.72 819.082 1588.72 817.872C1588.72 816.663 1587.74 815.683 1586.53 815.683C1585.32 815.683 1584.34 816.663 1584.34 817.872C1584.34 819.082 1585.32 820.062 1586.53 820.062Z" fill="white"/>
<path d="M1897.03 662.705C1897.03 665.898 1899.62 668.487 1902.81 668.487C1906.01 668.487 1908.6 665.899 1908.6 662.705C1908.6 659.51 1906.01 656.922 1902.81 656.922C1899.62 656.922 1897.03 659.51 1897.03 662.705Z" fill="white"/>
<path d="M1829.22 601.969C1827.04 601.969 1825.28 603.73 1825.28 605.901C1825.28 608.072 1827.04 609.833 1829.22 609.833C1831.39 609.833 1833.15 608.072 1833.15 605.901C1833.15 603.73 1831.39 601.969 1829.22 601.969Z" fill="white"/>
</mask>
<g mask="url(#mask6_27_2047)">
<path d="M1588.06 664.341C1564.79 664.341 1569.37 688.938 1574.58 701.237L1605.09 799.864V883.59L1588.06 948.868C1597.28 962.586 1617.86 996.833 1626.37 1024.08C1637.02 1058.14 1595.86 1131.93 1605.09 1159.6C1614.31 1187.28 1699.46 1179.47 1725.71 1186.57C1751.96 1193.66 1816.53 1246.17 1828.59 1246.17C1840.66 1246.17 1905.23 1230.56 1930.77 1206.43C1956.31 1182.31 1988.95 1194.37 2007.4 1206.43C2025.85 1218.5 2125.89 1163.86 2136.54 1159.6C2145.05 1156.2 2150.02 1091.01 2151.44 1058.85C2157.59 1041.11 2166.2 1004.35 2151.44 999.246C2132.99 992.86 2144.34 920.486 2151.44 900.619C2158.53 880.752 2142.92 809.088 2115.25 810.507C2087.58 811.926 2030.11 743.81 2007.4 740.262C1984.69 736.714 1949.22 664.341 1930.77 640.216C1912.32 616.091 1834.98 664.341 1805.89 688.465C1776.8 712.59 1617.15 664.341 1588.06 664.341Z" fill="#D9D9D9"/>
</g>
</g>
</g>
<defs>
<filter id="filter0_i_27_2047" x="-14" y="-24" width="1915" height="1165.2" filterUnits="userSpaceOnUse" color-interpolation-filters="sRGB">
<feFlood flood-opacity="0" result="BackgroundImageFix"/>
<feBlend mode="normal" in="SourceGraphic" in2="BackgroundImageFix" result="shape"/>
<feColorMatrix in="SourceAlpha" type="matrix" values="0 0 0 0 0 0 0 0 0 0 0 0 0 0 0 0 0 0 127 0" result="hardAlpha"/>
<feOffset dx="-14" dy="-24"/>
<feGaussianBlur stdDeviation="22.95"/>
<feComposite in2="hardAlpha" operator="arithmetic" k2="-1" k3="1"/>
<feColorMatrix type="matrix" values="0 0 0 0 0 0 0 0 0 0 0 0 0 0 0 0 0 0 0.26 0"/>
<feBlend mode="normal" in2="shape" result="effect1_innerShadow_27_2047"/>
</filter>
<linearGradient id="paint0_linear_27_2047" x1="-35" y1="111.5" x2="1901" y2="1123.03" gradientUnits="userSpaceOnUse">
<stop stop-color="#11171C"/>
<stop offset="1" stop-color="#19364D"/>
</linearGradient>
<linearGradient id="paint1_linear_27_2047" x1="-35" y1="111.5" x2="1901" y2="1123.03" gradientUnits="userSpaceOnUse">
<stop stop-color="#11171C"/>
<stop offset="1" stop-color="#19364D"/>
</linearGradient>
</defs>
</svg>
