<svg xmlns="http://www.w3.org/2000/svg" viewBox="0 0 194.65 277.19"><defs><style>.cls-1{fill:#976629;}.cls-2{fill:#d83627;}.cls-3{fill:#c2995e;}.cls-4{fill:#b18042;}.cls-5{fill:#8bb4c0;}.cls-6{fill:#3c2f2c;}.cls-7{fill:#dededc;}.cls-8{fill:#df9931;}.cls-9{fill:#979797;}.cls-10{fill:#bf955d;}.cls-11{fill:#a42f24;}.cls-12{fill:#f6d28b;}.cls-13{fill:#2d85b9;}.cls-14{fill:#414042;}.cls-15{fill:#373635;}</style></defs><g id="Layer_2" data-name="Layer 2"><g id="Layer_1-2" data-name="Layer 1"><path class="cls-1" d="M182.57,90.5a62.24,62.24,0,0,1,2.68,16.17A312.44,312.44,0,0,1,184,158.48a50.16,50.16,0,0,0,.33,15.84c3.11,15.58,2.06,30.42-8.6,43.43-3.4,4.15-2.78,4.95,2.61,5.8a24,24,0,0,1,8.55,2.56c4.71,2.73,4.75,6.8,0,9.53-1.84,1.06-3.84,1.84-6.14,2.93,1.68,2.45,4.47,2.37,6.41,3.66,2.34,1.55,4.39,3.27,4.14,6.29s-2.77,4-5.15,4.79c-11,3.65-22.28,3.72-33.57,2.65-3.35-.32-5.53,0-7.83,2.59-5.61,6.21-12.89,9.19-21.18,9.8l5.49-12.78c1.37-3.18,3.55-6,3.61-9.72,0-2.12-.28-4.09-2.46-5s-3.74.56-5.19,2-1.83,3.8-4.59,4.92a44.53,44.53,0,0,0-1.17-15.31c6.24-1.49,12.65-2.39,18.51.71s9.66,7.93,10.08,15c.12,2,2,2.88,3.68,1.41,6.44-5.78,12.45-12,16.6-19.7a3.76,3.76,0,0,0-.57-4.65c-1.39-1.33-2.8-.35-4.14.24-6.67,2.9-13.7,3.83-20.9,3.91-8.35.09-16.46-1.69-24.62-3.14-2.3-2.34-5.6-1.63-8.31-2.73-10.46-5.07-21.09-9.85-29.25-18.56-.35-.37-1.23-.26-1.86-.37l.07-.06a1.88,1.88,0,0,0-.89-2c-1.18-1.43-1.21-3.14-1.14-4.86-.73-6.51,2.92-10.81,7.85-13.89a54.7,54.7,0,0,1,14.5-6.4c9.62-2.63,19.66-2.74,29.26-5.27,3-.8,7.9-1.44,6.91-5.48s-5.7-2.27-8.7-1.74a173.67,173.67,0,0,1-27.6,2.72c-10.45.16-20.83-1.25-31.26-.91q-4-12.56-8-25.11c7.69.24,14.51-1.32,18.31-9,1.49,1.3,3,2.56,4.46,3.91,18.37,17.22,47.15,13.85,59.33-7,7.65-13.12,10.75-42.65-5.08-57.7A86.44,86.44,0,0,1,168,82C173,84.69,177,88.91,182.57,90.5ZM170.23,115a3.35,3.35,0,0,0-2.39,2.25,4.46,4.46,0,0,0,1.35,5.28c.77.64,1.77,1.25,2.61.42,1.52-1.51-.51-2.57-.69-3.88a9.65,9.65,0,0,1,.26-2.36C171.48,115.84,171.31,115.12,170.23,115Zm-25.37,23.24c1.07-.59,2.41-1.3,2.47-3,0-1.26-.93-1.66-2-1.57a2.6,2.6,0,0,0-2.66,2.89C142.68,137.71,143.33,138.35,144.86,138.26Z"/><path class="cls-2" d="M33.67,52.75c-6.51-11.37-9.12-23-1.3-34.77C38,9.46,46.6,5.1,56.18,2.7,75.08-2,93.82,0,112.41,4.67c29.48,7.45,54.38,22.08,72.76,46.79a52.29,52.29,0,0,1,8.41,15.78c2.84,9.24.09,14.55-9,17.78-9.14-7.55-19.48-13-30.4-17.49-6.1-2.49-12.29-4.74-18.45-7.1-7.09-9-15.91-15.59-27.06-18.79l-.3-.19.32.17c1.17,1.37,2.33,2.75,3.51,4.1,3.45,4,8,6.92,10.66,11.57C93.36,50.89,63.67,48.76,33.67,52.75Z"/><path class="cls-3" d="M136.51,71.75c15.83,15,12.73,44.58,5.08,57.7-12.18,20.86-41,24.23-59.33,7-1.44-1.35-3-2.61-4.46-3.91,0-1.39-.09-2.79-.13-4.19,0-2.14.21-4.29.13-6.43-.51-14-11.69-23.37-25.24-21.18,0-3,.2-6,0-9C51.4,76.11,41.52,68,26.78,70.65c1-4.52,3.8-8.17,5.92-12.14,4.87,1.56,9.79,1.32,14.73.42C52.82,63.67,56.78,69.68,61.55,75c2,2.25,3.62,2.76,6.14.44A66.83,66.83,0,0,1,87.82,62.83c3.75.6,7.52,1.06,11.24,1.83C111.5,67.24,124.21,68.4,136.51,71.75ZM82.74,101.28a31.24,31.24,0,0,0,0,3.49C84,116.22,89,125.08,100.31,129.22c9.27,3.4,20.24.37,27-7.9,8.19-10,10.52-21.52,6-33.71C127.14,70.84,106.17,64.85,93.62,76,86.07,82.65,82.89,91.36,82.74,101.28Z"/><path class="cls-4" d="M78.51,204.59c.63.11,1.51,0,1.86.37,8.16,8.71,18.79,13.49,29.25,18.56-1.21,2-.45,3.57,1.43,4.34,2.54,1,5.09,1.06,6.88-1.61,8.16,1.45,16.27,3.23,24.62,3.14,7.2-.08,14.23-1,20.9-3.91,1.34-.59,2.75-1.57,4.14-.24a3.76,3.76,0,0,1,.57,4.65c-4.15,7.71-10.16,13.92-16.6,19.7-1.64,1.47-3.56.61-3.68-1.41-.42-7.08-4.27-11.93-10.08-15s-12.27-2.2-18.51-.71c-1.87-.54-3.62-1.3-5.65-.1-4.76,2.83-3.4,8-4.76,13.51-2.2-4.81-4.81-7.31-9.25-6.47.1-2.78-.5-4.77-4-3.48a7.61,7.61,0,0,1-5.36-.1c-1.25-.44-2.86-.86-3.26,1-.36,1.62,1.16,2.06,2.38,2.69,3.46,1.76,6.83.27,10.23-.1-1.61,3.28-1.36,6.7-.45,10.05s2.15,6.78,3.25,10.17c-3-3.74-7.21-4.21-11.7-4.68-6.33-.66-12.57-2.17-18.85-3.32-5.14-2.68-11-4.68-14.19-9.79-5.24-8.29-11.49-14.51-22.12-14.12-.15,0-.3-.15-.44-.23-3.28-4.29-6.95-8.33-8.87-13.51,2.32-.12,4.63-.32,6.95-.35q21.15-.19,42.31-.33C82,212.24,78.6,207.85,78.51,204.59ZM67,227.67c-1.22-.18-2.51-.51-3,1-.33,1.11.48,1.8,1.28,2.46,3.59,2.95,8.45,2.55,11.05-.91.61-.81,1.29-1.62.61-2.66a2,2,0,0,0-3-.62A6.39,6.39,0,0,1,67,227.67Zm-20.49-6.3a6.53,6.53,0,0,0,1.57-.29c1.48-.61,3.77-1.08,3.11-3.15-1.37-4.34-4.85-.56-7.25-1.43-1.11-.4-2.85-.27-2.86,1.71a2.48,2.48,0,0,0,.92,1.64A6.77,6.77,0,0,0,46.51,221.37Z"/><path class="cls-5" d="M75.54,213.27q-21.15.15-42.31.33c-2.32,0-4.63.23-6.95.35-2.61-.39-5.18-.82-6.69-3.38.13-1.42-.1-2.84,1.68-3.69,5.25-2.5,7.69-7.42,10.11-12.31.41,2.35,1.42,4,4.18,3.8,1.31-.11,2.61,0,3.17-1.67,1.48-4.3-2-9-6.71-9.11l-1.23-9c7.08-.34,10.27-5.66,13.21-10.86,1.64-2.91,3.16-4.27,6.73-1.88-.64-3.4-1.09-6-1.64-8.55-.18-.87-.18-2.4-1.66-1.73-2.25,1-4.74,2-6.42,3.69s1.81,1.71,1.78,3.07a8.17,8.17,0,0,1-.7,2.84c-2.34,5.68-6.21,9.77-12.25,11.55a30.86,30.86,0,0,0-8.42-7.42c-5-2.83-10.5-3.66-15.82-5.26q-2.47-8.62-5-17.24c-.4-1.39-1.43-2.87.76-3.72,15.18,1.63,30.43,1.4,45.67,1.41,8.29,0,8.41,0,10.82,8.17C63.83,172.84,69.66,193.06,75.54,213.27ZM55,197.47c2.07,0,4.17,0,3.58-2.81-1.68-8-3.48-15.9-5.34-23.83-.65-2.79-2.83-1.5-4.51-1.39-2,.12-2.52,1.2-2.1,3.05,1.7,7.45,3.41,14.9,5,22.38C52,196.94,53.14,197.64,55,197.47ZM42.73,179.84c-2.57.28-4.64,1-3.8,4.28,1,3.84,2,7.67,2.81,11.54.66,3,2.69,2.14,4.65,1.93,2.43-.27,2.49-1.87,2.1-3.59-.9-4-1.93-8-2.92-12A2.47,2.47,0,0,0,42.73,179.84Z"/><path class="cls-6" d="M47.43,58.93c-4.94.9-9.86,1.14-14.73-.42,0-2-.12-4,1-5.76,30-4,59.69-1.86,89.15,4.54,4.28,1.11,8.39,2.87,12.87,3.14,6.16,2.36,12.35,4.61,18.45,7.1C165.06,72,175.4,77.47,184.54,85c.09,2.09-1.18,3.7-2,5.48C177,88.91,173,84.69,168,82a86.44,86.44,0,0,0-31.5-10.27c-12.3-3.35-25-4.51-37.45-7.09-3.72-.77-7.49-1.23-11.24-1.83A82.57,82.57,0,0,0,64.71,59.5a2.6,2.6,0,0,0-.78-.13C58.47,58,53,58.57,47.43,58.93Z"/><path class="cls-1" d="M5.6,164c5.32,1.6,10.87,2.43,15.82,5.26a30.86,30.86,0,0,1,8.42,7.42l.95,1.87,1.23,9c-.21,2.33-.43,4.65-.64,7-2.42,4.89-4.86,9.81-10.11,12.31-1.78.85-1.55,2.27-1.68,3.69-2.67.17-4.15-1.88-5.89-3.29C3.66,199.16,0,188.14,0,175.72A14.15,14.15,0,0,1,5.6,164Z"/><path class="cls-7" d="M26.78,70.65C41.52,68,51.4,76.11,52.54,91.8c.22,3,0,6,0,9a192,192,0,0,1-9.93,19c-14.7,7.38-18.86,7-27.77-2.56-6.22-14.31-5.25-27.8,4.35-40.44A25,25,0,0,1,26.78,70.65Zm-13,26.14c-.9,3.59,1.06,7.1,3,10.54,3.34,6,10,7.62,15.77,4,9.43-5.85,11.1-23.83,2.91-31.24-3.5-3.16-12-3.83-14.56-.77C16.81,84.15,13.39,89.39,13.79,96.79Z"/><path class="cls-8" d="M48.68,260.3c-3,3.48-6.24,6.78-8,11.26-1.51,3.8-7.51,4.33-10.47.8-5.84-7-11.33-14.28-17-21.46a4.11,4.11,0,0,1-.5-.86c-1.29-2.68-3.25-5.61-1.28-8.39,2.22-3.11,5.12-.21,8,.18,1.15-2.69-1.16-5-.88-7.52.2-1.83,0-3.81,2-4.72s3.79,0,5.36,1.51c2.28,2.16,3.46,5.09,5.39,8.26,1.11-3.93-.43-8,3.41-10,5.18,1.25,7,3.72,7,10.67C41.73,247.61,40.7,255.47,48.68,260.3ZM20.31,242.45c-.11.1-.3.19-.31.29s.16.24.25.36c.11-.1.3-.19.31-.3S20.4,242.57,20.31,242.45Z"/><path class="cls-8" d="M99.63,239.4c4.44-.84,7.05,1.66,9.25,6.47,1.36-5.53,0-10.68,4.76-13.51,2-1.2,3.78-.44,5.65.1a44.53,44.53,0,0,1,1.17,15.31c2.76-1.12,3.16-3.51,4.59-4.92s3-2.91,5.19-2,2.49,2.87,2.46,5c-.06,3.68-2.24,6.54-3.61,9.72l-5.49,12.78c-1,1.69-2,3.37-3,5.07-1.7,2.91-4.38,3.88-7.55,3.76s-5-2.09-6-5c-1.45-4.21-3-8.37-4.58-12.55-1.1-3.39-2.33-6.74-3.25-10.17s-1.16-6.77.45-10.05Z"/><path class="cls-9" d="M75.54,213.27c-5.88-20.21-11.71-40.43-17.66-60.61-2.41-8.19-2.53-8.16-10.82-8.17-15.24,0-30.49.22-45.67-1.41,2.54-4.71,7.15-1.87,10.69-2.94,9.21.5,18.42.48,27.64.16l11,0c2.91.49,6-.19,8.75,1.27q4,12.55,8,25.1c2.51,10.47,5.72,20.74,9,31-.07,1.72,0,3.43,1.14,4.86a1.91,1.91,0,0,0,.89,2l-.07.06C78.6,207.85,82,212.24,75.54,213.27Z"/><path class="cls-1" d="M48.68,260.3c-8-4.83-7-12.69-7-20.3,0-6.95-1.83-9.42-7-10.67l.45-1.87c.15.08.3.23.45.23,10.63-.39,16.88,5.83,22.12,14.12,3.23,5.11,9.05,7.11,14.19,9.79C65.17,257.19,57.55,260.41,48.68,260.3Z"/><path class="cls-3" d="M14.86,117.22c8.91,9.56,13.07,9.94,27.77,2.56-1.44,6.54-3,13.06-3.07,19.81a5.66,5.66,0,0,0-4.72-.67c-7.72,1.46-15.18,1-22-3.42C12.56,129.3,14,123.29,14.86,117.22Z"/><path class="cls-4" d="M12.84,135.5c6.82,4.45,14.28,4.88,22,3.42a5.66,5.66,0,0,1,4.72.67c.06.24.11.48.16.71-9.22.32-18.43.34-27.64-.16A8.18,8.18,0,0,1,12.84,135.5Z"/><path class="cls-4" d="M76.55,197.63c-3.32-10.24-6.53-20.51-9-31,10.43-.33,20.81,1.08,31.26.92a173.67,173.67,0,0,0,27.6-2.72c3-.53,7.73-2.23,8.7,1.74s-3.9,4.68-6.91,5.48c-9.6,2.53-19.64,2.64-29.26,5.27a54.7,54.7,0,0,0-14.5,6.4C79.47,186.82,75.82,191.12,76.55,197.63Z"/><path class="cls-8" d="M59.49,141.55c-2.77-1.46-5.84-.78-8.75-1.27,6.9-8.66,17-10.13,26.93-11.92,0,1.4.09,2.8.13,4.19C74,140.23,67.18,141.79,59.49,141.55Z"/><path class="cls-10" d="M117.93,226.25c-1.79,2.67-4.34,2.64-6.88,1.61-1.88-.77-2.64-2.34-1.43-4.34C112.33,224.62,115.63,223.91,117.93,226.25Z"/><path class="cls-4" d="M170.23,115c1.08.1,1.25.82,1.14,1.71a9.65,9.65,0,0,0-.26,2.36c.18,1.31,2.21,2.37.69,3.88-.84.83-1.84.22-2.61-.42a4.46,4.46,0,0,1-1.35-5.28A3.35,3.35,0,0,1,170.23,115Z"/><path class="cls-4" d="M144.86,138.26c-1.53.09-2.18-.55-2.19-1.7a2.6,2.6,0,0,1,2.66-2.89c1.07-.09,2,.31,2,1.57C147.27,137,145.93,137.67,144.86,138.26Z"/><path class="cls-4" d="M78.58,204.53a1.91,1.91,0,0,1-.89-2A1.88,1.88,0,0,1,78.58,204.53Z"/><path class="cls-11" d="M135.69,60.43c-4.48-.27-8.59-2-12.87-3.14-2.68-4.65-7.21-7.62-10.66-11.57-1.18-1.35-2.34-2.73-3.51-4.1l0,0C119.78,44.84,128.6,51.39,135.69,60.43Z"/><path class="cls-11" d="M108.65,41.62l-.32-.17.3.19Z"/><path class="cls-7" d="M82.74,101.28c.15-9.92,3.33-18.63,10.88-25.32,12.55-11.11,33.52-5.12,39.73,11.65,4.51,12.19,2.18,23.73-6,33.71-6.79,8.27-17.76,11.3-27,7.9C89,125.08,84,116.22,82.76,104.77A31.24,31.24,0,0,1,82.74,101.28Zm2.18-1.13a18.69,18.69,0,0,0,2.27,10.62c4.78,9.75,15.89,10.52,22,1.6,4.64-6.77,4.89-17.31.51-24.11-2.7-4.18-6.5-6.74-11.57-6.58s-8.65,3.12-10.78,7.65C85.74,92.76,84.21,96.28,84.92,100.15Z"/><path class="cls-12" d="M77.67,128.36c-9.94,1.79-20,3.26-26.93,11.92l-11,0c0-.23-.1-.47-.16-.71,0-6.75,1.63-13.27,3.07-19.81a192,192,0,0,0,9.93-19c13.55-2.19,24.73,7.16,25.24,21.18C77.88,124.07,77.72,126.22,77.67,128.36ZM63.52,111.7c-.21-.64-.51-1.71-1.7-1.68-1.7,0-2.11,1.34-2,2.76a1.63,1.63,0,0,0,1.95,1.67C63.17,114.33,63.58,113.34,63.52,111.7Z"/><path class="cls-1" d="M47.43,58.93c5.52-.36,11-1,16.5.44-2,.37-4.34.58-2.34,3.54.64,1,1.73,2,2.87,1.34,2.45-1.32-.11-3.16.25-4.75a82.57,82.57,0,0,1,23.11,3.33A66.83,66.83,0,0,0,67.69,75.42c-2.52,2.32-4.11,1.81-6.14-.44C56.78,69.68,52.82,63.67,47.43,58.93Z"/><path class="cls-10" d="M67,227.67a6.39,6.39,0,0,0,7-.71,2,2,0,0,1,3,.62c.68,1,0,1.85-.61,2.66-2.6,3.46-7.46,3.86-11.05.91-.8-.66-1.61-1.35-1.28-2.46C64.49,227.16,65.78,227.49,67,227.67Z"/><path class="cls-10" d="M99.65,239.38c-3.4.37-6.77,1.86-10.23.1-1.22-.63-2.74-1.07-2.38-2.69.4-1.83,2-1.41,3.26-1a7.61,7.61,0,0,0,5.36.1c3.47-1.29,4.07.7,4,3.48Z"/><path class="cls-10" d="M46.51,221.37A6.77,6.77,0,0,1,42,219.85a2.48,2.48,0,0,1-.92-1.64c0-2,1.75-2.11,2.86-1.71,2.4.87,5.88-2.91,7.25,1.43.66,2.07-1.63,2.54-3.11,3.15A6.53,6.53,0,0,1,46.51,221.37Z"/><path class="cls-13" d="M55,197.47c-1.81.17-2.94-.53-3.38-2.6-1.58-7.48-3.29-14.93-5-22.38-.42-1.85.12-2.93,2.1-3.05,1.68-.11,3.86-1.4,4.51,1.39,1.86,7.93,3.66,15.87,5.34,23.83C59.12,197.43,57,197.49,55,197.47Z"/><path class="cls-2" d="M30.79,178.59l-.95-1.87c6-1.78,9.91-5.87,12.25-11.55a8.17,8.17,0,0,0,.7-2.84c0-1.36-3.54-1.3-1.78-3.07s4.17-2.67,6.42-3.69c1.48-.67,1.48.86,1.66,1.73.55,2.56,1,5.15,1.64,8.55-3.57-2.39-5.09-1-6.73,1.88C41.06,172.93,37.87,178.25,30.79,178.59Z"/><path class="cls-13" d="M42.73,179.84A2.47,2.47,0,0,1,45.57,182c1,4,2,8,2.92,12,.39,1.72.33,3.32-2.1,3.59-2,.21-4,1.07-4.65-1.93-.86-3.87-1.84-7.7-2.81-11.54C38.09,180.8,40.16,180.12,42.73,179.84Z"/><path class="cls-13" d="M31.38,194.57c.21-2.33.43-4.65.64-7,4.73.06,8.19,4.81,6.71,9.11-.56,1.65-1.86,1.56-3.17,1.67C32.8,198.59,31.79,196.92,31.38,194.57Z"/><path class="cls-4" d="M64.71,59.5c-.36,1.59,2.2,3.43-.25,4.75-1.14.61-2.23-.39-2.87-1.34-2-3,.33-3.17,2.34-3.54A2.6,2.6,0,0,1,64.71,59.5Z"/><path class="cls-14" d="M13.79,96.79c-.4-7.4,3-12.64,7.09-17.44,2.59-3.06,11.06-2.39,14.56.77,8.19,7.41,6.52,25.39-2.91,31.24-5.79,3.59-12.43,2-15.77-4C14.85,103.89,12.89,100.38,13.79,96.79Zm14-5.83c-.13-2.86-1.08-5.32-4.18-5s-4,3-3.94,5.85c0,2.59,1.1,4.72,3.93,4.63C27,96.31,27.68,93.67,27.81,91Z"/><path class="cls-15" d="M20.31,242.45c.09.12.26.24.25.35s-.2.2-.31.3c-.09-.12-.26-.25-.25-.36S20.2,242.55,20.31,242.45Z"/><path class="cls-14" d="M84.92,100.15c-.71-3.87.82-7.39,2.43-10.82,2.13-4.53,5.63-7.49,10.78-7.65s8.87,2.4,11.57,6.58c4.38,6.8,4.13,17.34-.51,24.11-6.11,8.92-17.22,8.15-22-1.6A18.69,18.69,0,0,1,84.92,100.15ZM98.8,96.26c0-2.94-.82-5.39-3.91-5.53-3.38-.15-4.48,2.51-4.59,5.37-.1,2.64.56,5.3,3.85,5.34S98.62,99.09,98.8,96.26Z"/><path class="cls-3" d="M63.52,111.7c.06,1.64-.35,2.63-1.8,2.75a1.63,1.63,0,0,1-1.95-1.67c-.06-1.42.35-2.71,2-2.76C63,110,63.31,111.06,63.52,111.7Z"/><path class="cls-7" d="M27.81,91c-.13,2.71-.8,5.35-4.19,5.45-2.83.09-3.88-2-3.93-4.63-.06-2.86.77-5.56,3.94-5.85S27.68,88.1,27.81,91Z"/><path class="cls-7" d="M98.8,96.26c-.18,2.83-1.33,5.23-4.65,5.18s-4-2.7-3.85-5.34c.11-2.86,1.21-5.52,4.59-5.37C98,90.87,98.84,93.32,98.8,96.26Z"/></g></g></svg>