<svg xmlns="http://www.w3.org/2000/svg" viewBox="0 0 217.76 284.43"><defs><style>.cls-1{fill:#296374;}.cls-2{fill:#61a0ad;}.cls-3{fill:#d83627;}.cls-4{fill:#dededc;}.cls-5{fill:#3c2f2c;}.cls-6{fill:#df9931;}.cls-7{fill:#f6d28b;}.cls-8{fill:#eceecf;}.cls-9{fill:#a42f24;}.cls-10{fill:#976629;}.cls-11{fill:#414042;}.cls-12{fill:#c2995e;}</style></defs><g id="Layer_2" data-name="Layer 2"><g id="Layer_1-2" data-name="Layer 1"><path class="cls-1" d="M176.91,88.92c4,3.92,3.23,9.31,3.82,14a185.56,185.56,0,0,1,.45,42.79c-.29,2.62,1.08,4.39,2.46,6.29,11.1,15.26,20.62,31.41,27.5,49,1.6,4.11,2.94,8.09.13,12.35-1.45,2.19-.11,4.47,1,6.57a88.65,88.65,0,0,1,4.68,9.35c2.13,5.64.17,9.21-5.71,11-6.76,2.1-13.52,1.17-20.21-.33a69.87,69.87,0,0,1-26.92-12.57c-1.8-1.35-3.34-3.41-6.06-3-.1-1.65-1.28-2.63-2.3-3.72-11.86-12.72-19.3-27.24-18.73-45.15.22-7.14-2-8.92-9.06-7.39a202,202,0,0,1-45.4,4.46c-8.48-.09-17,0-25.43,0a48.68,48.68,0,0,1,1.24-5.24c3.9-11.18,10.85-20.57,17.74-30,3.16,4.45,7.7,7.27,12.24,10a35.52,35.52,0,0,0,43.94-5.52c13.3-13.22,15.58-40.83,4.84-57.5-4.33-6.72-10.45-11.41-17-15.7,12.1,1,23.61,4.51,35,8.56C162.92,80.09,169.31,85.64,176.91,88.92Zm-6.23,33.65c-.67-1.37-2.16-2.59-.8-4.4.76-1,1.07-2.2-.46-2.78-1.3-.5-2.11.49-2.82,1.42A4.79,4.79,0,0,0,169,124C170.31,124.43,170.84,124,170.68,122.57Zm-26.37,17.9c1.15-.64,2.65-1.56,3.07-3.23.35-1.41-1-1.56-2-1.35a3.61,3.61,0,0,0-3.2,3.31C142.14,140.13,142.91,140.63,144.31,140.47Z"/><path class="cls-2" d="M57.11,172.71c8.48,0,17-.08,25.43,0a202,202,0,0,0,45.4-4.46c7-1.53,9.28.25,9.06,7.39-.57,17.91,6.87,32.43,18.73,45.15,1,1.09,2.2,2.07,2.3,3.72l-5.29,6c-5.05,2.86-8.57,7.63-13.61,10.59A82.39,82.39,0,0,1,97.67,253L76.15,251.6c-1.62-1.35-3.73-1.27-5.6-1.87-12.14-3.85-23.84-8.79-33.21-17.55-18.86-17.64-27.2-40.05-28.13-65.49-.24-6.44.71-7,6.83-4.47a95.67,95.67,0,0,0,26.46,6.66c1.24,4.28,2.12,8.69,4.48,12.57,1.06,1.74,2.28,3.45,4.6,3.17s2.88-2.44,3.33-4.39C55.49,177.67,55.51,175,57.11,172.71Zm44.94,40a7.75,7.75,0,0,0,5.6-2.23c1.16-1.1,1.95-2.52.87-4s-2.45-.85-3.56,0c-1.82,1.39-3.63,1.24-5.62.5a2,2,0,0,0-2.58.91c-.62,1.09.07,1.87.72,2.64A5.22,5.22,0,0,0,102.05,212.67Zm-9.88-22c3.48,0,6.43-.25,8-3.44.39-.76.74-1.66-.18-2.16a1.91,1.91,0,0,0-1.8.19c-3.39,3.47-6.71,2.74-10.15.1a2.06,2.06,0,0,0-3.1.26c-1.16,1.49,0,2.44,1.05,3.28A8.5,8.5,0,0,0,92.17,190.71ZM52.53,204.66c.18,0,.68,0,1.17,0,1.94-.17,4.07-.86,3.83-3-.3-2.79-2.57-1.64-4.28-1.21a5.34,5.34,0,0,1-5.43-1.53c-.89-.9-2-1.33-3-.11a2.25,2.25,0,0,0,.24,3.14C47,204.11,49.43,204.85,52.53,204.66ZM75.68,216.6a7.33,7.33,0,0,0,4.55-1.75c1.38-1.1,2.59-2.6,1.37-4.23s-2.67-.25-3.72.73c-1.69,1.59-3.18,1.15-4.88,0-1.12-.77-2.64-1.19-3.44.35s.46,2.48,1.52,3.29A7.28,7.28,0,0,0,75.68,216.6Zm-6,19A7.53,7.53,0,0,0,75.14,233c.94-1.06,1.42-2.4.39-3.58s-2.13-.37-3,.42c-1.43,1.3-2.85,2.3-4.78.89-1.3-.95-2.92-1.62-3.84.1-1.11,2,.82,2.91,2.26,3.61A23.08,23.08,0,0,0,69.71,235.56ZM93,242.29c.52-.14,1.32-.31,2.09-.56,1.75-.57,4-1.34,3.34-3.45-.79-2.54-2.81-1.36-4.39-.33-1.07.71-2.15.39-3.3.12-1.47-.34-3.68-1.46-4,.91-.22,1.68,1.83,2.46,3.57,2.71C91.15,241.81,91.94,242,93,242.29ZM45,225.6c1.71,0,2.38.06,3,0,1.63-.18,3.08-.81,2.79-2.74-.32-2.1-1.88-1.8-3.47-1.48a34.65,34.65,0,0,1-4,.29c-1.08.09-2.65-.32-2.63,1.4,0,1.25,1.15,2,2.32,2.31A8.83,8.83,0,0,0,45,225.6Zm66.6,5.08c1.9.09,3.61-.3,4.69-2.05a1.6,1.6,0,0,0-.29-2.2c-1.74-1.54-3,.13-4.41.7a1.79,1.79,0,0,1-.47.11c-1.33.24-3.74-1.74-3.73,1.19C107.42,230.81,109.85,230.58,111.63,230.68Zm-79.47-29c-1.44.12-3.38-.11-3.45,1.84-.08,2.2,1.79,2.93,3.72,3S36,206.2,35.85,204,33.86,201.77,32.16,201.71Z"/><path class="cls-3" d="M30.28,51.64c-3.57-7.24-6.43-14.69-5-22.95,2-11.39,9.39-18.41,19.49-22.87C58.07,0,72.11-.66,86.34.45a142.3,142.3,0,0,1,41.09,9.49c2.21.87,16.47,8,19.86,10.11a107,107,0,0,1,38.37,39c2.39,4.19,4.35,8.6,4.43,13.59.13,7.18-3.6,11.24-11,11.94-2.83-3.85-6.85-6.2-10.85-8.57-9.88-5.86-20.55-10-31.19-14.21l-1.27-.68a2.31,2.31,0,0,1-.7-.31c-.11-1.66-1.27-2.68-2.36-3.68a92.1,92.1,0,0,0-24.55-16c-.3-.14-.81.18-2.28.55a53.74,53.74,0,0,1,5.26,4.73c3,3.49,7.41,5.74,9,10.45-.82-.11-1.65-.17-2.46-.34A257.64,257.64,0,0,0,46.54,50.7C41.12,51,35.7,51.33,30.28,51.64Z"/><path class="cls-2" d="M120.12,68.73c6.54,4.29,12.66,9,17,15.7,10.74,16.67,8.46,44.28-4.84,57.5a35.52,35.52,0,0,1-43.94,5.52c-4.54-2.7-9.08-5.52-12.24-10,0-3.16.24-6.33,0-9.47-1-15-13.87-23-25.86-16.24.09-1,.13-2,.27-3C53.64,87,40.15,74.58,19.18,79.89c1.48-7.87,5.49-14.54,10-21A5,5,0,0,0,30,58.6c12,4.47,21.43,12.34,29,22.55,2.77,3.74,5.32,2.54,8.27,0,10.89-9.25,23.09-15.48,37.8-15.47l11,2.14c1.17,1.12,2.6,1.06,4,.91Zm10.88,37c0-1,.05-2,0-3-.77-13.4-11.09-24.06-24.11-24.9-13.51-.88-23,6.9-25.87,21.07a36,36,0,0,0,2,22c7.59,17.6,30.07,20.5,41.46,5.35A32.74,32.74,0,0,0,131,105.69Z"/><path class="cls-1" d="M42.51,168.88A95.65,95.65,0,0,1,16,162.22c-6.12-2.53-7.07-2-6.83,4.47.93,25.44,9.27,47.85,28.13,65.49,9.37,8.76,21.07,13.7,33.21,17.55,1.87.6,4,.52,5.6,1.87-2.57,3.94-6.32,6.55-10.19,9-4.56,1.2-9.21,1.12-13.87,1-8.11-5.15-13.05-12.21-13-22.11,0-2.77-1.68-3.62-3.65-4.68C16.67,224.68,4.75,209.36.86,188.17c-2.27-12.35.17-24.12,5-35.48a28.08,28.08,0,0,0,2.48-10.07c7.72,4.8,15.91,7.14,25,5,2.55-.59,4.88-2.16,7.66-1.79A108.35,108.35,0,0,0,42.51,168.88Z"/><path class="cls-4" d="M19.18,79.89c21-5.31,34.46,7.15,31.34,28.92-.14,1-.18,2-.27,3q-2.59,6-5.21,11.91l-.95,1.11,0-.09c-.89.73-1.8,1.43-2.67,2.2-11.41,10.1-23,8.94-31.88-3.21-4.34-9-4.73-18.44-2.28-28A25.07,25.07,0,0,1,19.18,79.89Zm8.47,6.45C18.05,86.48,7.36,99.63,9,109.22c.21,1.19.45,2.4,1.85,2.59s2-1,2.32-2.11c1.09-4,2.33-8,5-11.31,6.12-7.66,15-7.11,20.14,1.19a25.55,25.55,0,0,1,3.18,9.36c.25,1.41.33,3.44,2.27,3.33,2.13-.13,2.23-2.17,2.26-3.85A27.92,27.92,0,0,0,44.1,98.7C41.43,91.25,34.67,86.25,27.65,86.34Z"/><path class="cls-5" d="M30,58.59a4.31,4.31,0,0,1-.84.33c0-2.49-.28-5,1.1-7.28,5.42-.31,10.84-.6,16.26-.94a257.64,257.64,0,0,1,71.08,5.85c.81.17,1.64.23,2.46.34l15,3.91a2.31,2.31,0,0,0,.7.31l1.27.68C147.67,66,158.34,70.14,168.22,76c4,2.37,8,4.72,10.85,8.57l-2.16,4.35c-7.6-3.28-14-8.83-21.83-11.63-11.35-4.05-22.86-7.53-35-8.56v0c-1.15-1.17-2.61-1-4-.92l-11-2.14a121.72,121.72,0,0,0-20.8-4,10.88,10.88,0,0,0-6.14-.84C62.28,56.4,46.12,58.17,30,58.59Z"/><path class="cls-1" d="M97.67,253a82.39,82.39,0,0,0,41.46-11.79c5-3,8.56-7.73,13.61-10.59,3.06,5.33,6.14,10.65,9.16,16,1.87,3.31,3.37,6.75.3,10.11-3.33,3.65-7.38,5.63-12.46,4.32a19.29,19.29,0,0,1-3.73-1.4c-2.29-1.13-4.26-1.26-6.36.66-3.53,3.25-7.58,3.35-11.4.62-3.39-2.42-5.47-1.19-7.31,1.82-4.84-.13-9.69-.09-14.47-1.06A20.87,20.87,0,0,1,97.67,253Z"/><path class="cls-6" d="M52.09,261.6c4.66.14,9.31.22,13.87-1,.08,2.15.15,4.3.26,6.45.17,3.27,1.54,5.63,4.73,6.92a13.5,13.5,0,0,1,4.59,2.85,5.49,5.49,0,0,1,1.21,6c-.8,1.92-2.84,1.33-4.43,1.34-11.6.08-23.21.17-34.81.08-2.59,0-6.58,1.1-7-2.59a8.42,8.42,0,0,1,5.44-9.17,7.65,7.65,0,0,1,3.36-.76C46.85,272.47,51.2,269.25,52.09,261.6Z"/><path class="cls-6" d="M106.47,261.63c4.78,1,9.63.93,14.47,1.06-.14,5.36,2.38,8.2,7.77,9.06,4.65.74,7.53,3.85,8.88,8.41.91,3.07,0,4.24-3.27,4.22-12.12-.08-24.23.05-36.35,0-2.19,0-5.21.43-6-2.23-.9-2.89.77-5.47,3-7.45a8.7,8.7,0,0,1,5-2.15c4.84-.5,7.21-2.86,6.46-7.91A14.19,14.19,0,0,1,106.47,261.63Z"/><path class="cls-2" d="M9.58,123.69c8.9,12.15,20.47,13.31,31.88,3.21.87-.77,1.78-1.47,2.67-2.2q-1.55,10.58-3.1,21.15c-2.78-.37-5.11,1.2-7.66,1.79-9.14,2.12-17.33-.22-25-5Z"/><path class="cls-7" d="M41,145.85q1.55-10.57,3.1-21.15l0,.09.95-1.11q2.61-6,5.21-11.91C62.24,105,75.08,113,76.11,128c.22,3.14,0,6.31,0,9.47-6.89,9.42-13.84,18.81-17.74,30a48.68,48.68,0,0,0-1.24,5.24c-1.6,2.26-1.62,5-2.2,7.52-.45,2-.87,4.09-3.33,4.39S48,183.19,47,181.45c-2.36-3.88-3.24-8.29-4.48-12.57A109,109,0,0,1,41,145.85ZM60,126.73c1.67-.11,2.2-1.15,2.13-2.65-.07-1.35-.76-2.22-2.14-2.08a2.45,2.45,0,0,0-2.27,2.7C57.66,126.1,58.68,126.62,60,126.73Z"/><path class="cls-8" d="M170.68,122.57c.16,1.38-.37,1.86-1.69,1.43a4.79,4.79,0,0,1-2.39-7.19c.71-.93,1.52-1.92,2.82-1.42,1.53.58,1.22,1.76.46,2.78C168.52,120,170,121.2,170.68,122.57Z"/><path class="cls-8" d="M144.31,140.47c-1.4.16-2.17-.34-2.11-1.27a3.61,3.61,0,0,1,3.2-3.31c1-.21,2.33-.06,2,1.35C147,138.91,145.46,139.83,144.31,140.47Z"/><path class="cls-8" d="M102.05,212.67a5.22,5.22,0,0,1-4.57-2.14c-.65-.77-1.34-1.55-.72-2.64a2,2,0,0,1,2.58-.91c2,.74,3.8.89,5.62-.5,1.11-.85,2.58-1.3,3.56,0s.29,2.86-.87,4A7.75,7.75,0,0,1,102.05,212.67Z"/><path class="cls-8" d="M92.17,190.71A8.5,8.5,0,0,1,86,188.94c-1-.84-2.21-1.79-1.05-3.28a2.06,2.06,0,0,1,3.1-.26c3.44,2.64,6.76,3.37,10.15-.1a1.91,1.91,0,0,1,1.8-.19c.92.5.57,1.4.18,2.16C98.6,190.46,95.65,190.71,92.17,190.71Z"/><path class="cls-8" d="M52.53,204.66c-3.1.19-5.55-.55-7.44-2.7a2.25,2.25,0,0,1-.24-3.14c1-1.22,2.08-.79,3,.11a5.34,5.34,0,0,0,5.43,1.53c1.71-.43,4-1.58,4.28,1.21.24,2.12-1.89,2.81-3.83,3C53.21,204.69,52.71,204.66,52.53,204.66Z"/><path class="cls-8" d="M75.68,216.6a7.28,7.28,0,0,1-4.6-1.63c-1.06-.81-2.28-1.83-1.52-3.29s2.32-1.12,3.44-.35c1.7,1.17,3.19,1.61,4.88,0,1.05-1,2.41-2.5,3.72-.73s0,3.13-1.37,4.23A7.33,7.33,0,0,1,75.68,216.6Z"/><path class="cls-8" d="M69.71,235.56a23.08,23.08,0,0,1-3.54-1.12c-1.44-.7-3.37-1.56-2.26-3.61.92-1.72,2.54-1.05,3.84-.1,1.93,1.41,3.35.41,4.78-.89.87-.79,2-1.59,3-.42s.55,2.52-.39,3.58A7.53,7.53,0,0,1,69.71,235.56Z"/><path class="cls-8" d="M93,242.29c-1.09-.25-1.88-.48-2.69-.6-1.74-.25-3.79-1-3.57-2.71.32-2.37,2.53-1.25,4-.91,1.15.27,2.23.59,3.3-.12,1.58-1,3.6-2.21,4.39.33.66,2.11-1.59,2.88-3.34,3.45C94.35,242,93.55,242.15,93,242.29Z"/><path class="cls-8" d="M45,225.6a8.83,8.83,0,0,1-1.91-.23c-1.17-.31-2.32-1.06-2.32-2.31,0-1.72,1.55-1.31,2.63-1.4a34.65,34.65,0,0,0,4-.29c1.59-.32,3.15-.62,3.47,1.48.29,1.93-1.16,2.56-2.79,2.74C47.41,225.66,46.74,225.6,45,225.6Z"/><path class="cls-8" d="M111.63,230.68c-1.78-.1-4.21.13-4.21-2.25,0-2.93,2.4-1,3.73-1.19a1.79,1.79,0,0,0,.47-.11c1.42-.57,2.67-2.24,4.41-.7a1.6,1.6,0,0,1,.29,2.2C115.24,230.38,113.53,230.77,111.63,230.68Z"/><path class="cls-8" d="M32.17,201.72c1.69.05,3.57.16,3.68,2.32s-1.64,2.63-3.42,2.53-3.8-.82-3.72-3C28.78,201.6,30.72,201.83,32.17,201.72Z"/><path class="cls-9" d="M135.06,60.8l-15-3.91c-1.54-4.71-6-7-9-10.45a53.74,53.74,0,0,0-5.26-4.73c1.47-.37,2-.69,2.28-.55a92.1,92.1,0,0,1,24.55,16C133.79,58.12,135,59.14,135.06,60.8Z"/><path class="cls-9" d="M137,61.79l-1.27-.68Z"/><path class="cls-4" d="M131,105.69a32.74,32.74,0,0,1-6.56,20.52c-11.39,15.15-33.87,12.25-41.46-5.35a36,36,0,0,1-2-22c2.9-14.17,12.36-22,25.87-21.07,13,.84,23.34,11.5,24.11,24.9C131.05,103.69,131,104.69,131,105.69Zm-27-18c-10.74,0-21.35,11.86-20.11,22.43.16,1.33.2,2.81,2,2.94,1.54.1,1.69-1.27,2.11-2.33a68.51,68.51,0,0,1,3-7.34c2.82-5.25,6.82-9.09,13.24-9,6.64.09,10.56,4.26,13.26,9.75a63.26,63.26,0,0,1,2.61,7.5c.42,1.21,1.13,2.16,2.53,1.79,1-.28,1.32-1.27,1.51-2.33C126,100.34,115.13,87.64,104,87.66Z"/><path class="cls-1" d="M84.29,61.69a121.72,121.72,0,0,1,20.8,4c-14.72,0-26.92,6.22-37.81,15.47-3,2.5-5.5,3.7-8.27,0C51.45,70.94,42.06,63.07,30,58.6c16.1-.43,32.26-2.2,48.13,2.25-.4,1.44-2.94,2.48-1.41,4.14,1.2,1.31,2.67-.36,3.9-1A35.26,35.26,0,0,0,84.29,61.69ZM62.68,68.24c-.66-1.85-1.55-3.66-3.74-4.16-1.28-.29-2.58.37-2.37,1.75.33,2.14,2.08,3.3,4,3.86C61.61,70,62.65,69.77,62.68,68.24Z"/><path class="cls-10" d="M116.06,67.86c1.44-.08,2.9-.25,4,.92C118.66,68.92,117.23,69,116.06,67.86Z"/><path class="cls-11" d="M27.65,86.34c7-.09,13.78,4.91,16.45,12.36a27.92,27.92,0,0,1,1.95,9.72c0,1.68-.13,3.72-2.26,3.85-1.94.11-2-1.92-2.27-3.33a25.55,25.55,0,0,0-3.18-9.36c-5.19-8.3-14-8.85-20.14-1.19-2.66,3.32-3.9,7.28-5,11.31-.32,1.16-.85,2.31-2.32,2.11s-1.64-1.4-1.85-2.59C7.36,99.63,18.05,86.48,27.65,86.34Z"/><path class="cls-12" d="M45,123.68l-.95,1.11Z"/><path class="cls-8" d="M84.29,61.69A35.26,35.26,0,0,1,80.64,64c-1.23.6-2.7,2.27-3.9,1-1.53-1.66,1-2.7,1.41-4.14A10.88,10.88,0,0,1,84.29,61.69Z"/><path class="cls-12" d="M60,126.73c-1.27-.11-2.29-.63-2.28-2a2.45,2.45,0,0,1,2.27-2.7c1.38-.14,2.07.73,2.14,2.08C62.15,125.58,61.62,126.62,60,126.73Z"/><path class="cls-11" d="M104,87.66c11.15,0,22.06,12.68,20.15,23.41-.19,1.06-.47,2.05-1.51,2.33-1.4.37-2.11-.58-2.53-1.79a63.26,63.26,0,0,0-2.61-7.5c-2.7-5.49-6.62-9.66-13.26-9.75-6.42-.09-10.42,3.75-13.24,9a68.51,68.51,0,0,0-3,7.34c-.42,1.06-.57,2.43-2.11,2.33-1.78-.13-1.82-1.61-2-2.94C82.63,99.52,93.24,87.69,104,87.66Z"/><path class="cls-8" d="M62.68,68.24c0,1.53-1.07,1.74-2.06,1.45-2-.56-3.72-1.72-4-3.86-.21-1.38,1.09-2,2.37-1.75C61.13,64.58,62,66.39,62.68,68.24Z"/></g></g></svg>