<svg xmlns="http://www.w3.org/2000/svg" viewBox="0 0 193.79 278.99"><defs><style>.cls-1{fill:#296374;}.cls-2{fill:#db3827;}.cls-3{fill:#61a0ad;}.cls-4{fill:#3d302b;}.cls-5{fill:#e39b2d;}.cls-6{fill:#dcdcdb;}.cls-7{fill:#87b5c2;}.cls-8{fill:#f8d48a;}.cls-9{fill:#eceecf;}.cls-10{fill:#ab2d25;}.cls-11{fill:#383737;}.cls-12{fill:#414042;}.cls-13{fill:#c39a5e;}</style></defs><g id="Layer_2" data-name="Layer 2"><g id="Layer_1-2" data-name="Layer 1"><path class="cls-1" d="M134.85,261.81c-5.67,3.95-11.47,7.66-18.54,8.54a11.58,11.58,0,0,1-5.83-.41c.88-2.13,1.72-4.29,2.63-6.41,2.09-4.87,4.38-9.67,6.27-14.62.9-2.35,1.05-5.09-1.54-6.71-2.8-1.76-4.54.42-6.42,2.09-1.15,1-1.49,3-3.62,3.14,0-.92-.11-1.74-.13-2.56-.12-7.23-.6-7.77-7.77-8.41a22.75,22.75,0,0,0-3,.11c-4.14-2.43-8.39-4.68-12.38-7.32-4.15-2.75-7.31-6.3-6.8-11.84L81,211.52c9.12-9.61,20-17,31.29-23.6,6-3.53,12.07-7,17.23-11.75,1.88-1.71,5.95-3.36,4.34-6.31-1.5-2.76-5.49-1.46-8.34-.94a139.42,139.42,0,0,1-27.65,2.69c-8-.16-16,0-23.94,0-2.55,0-5.5.55-4.43,3.61,2.41,6.81-.2,13.5.41,20.22.41,4.51-1.26,8.56-3.76,12.16C58,219.33,46.57,225.64,32.55,227.52c-1.85.24-3.61.55-4.86,2.12A11,11,0,0,0,25,228.37C7.12,225,.83,209.57.07,195a53.11,53.11,0,0,1,5.15-25.16c4.19-9.11,6.67-18.31,5.72-28.34,6.49,4.38,13.74,4.55,21.14,3.86,2,1,3.34-.52,4.9-1.24,2.75-1.27,5-3.58,8.24-3.85,3.92,1.77,6.45,6.08,11.28,6.17,8.27,5.17,17.87,2.58,22.47-6.06,5.46,1.59,9.61,5.57,14.8,7.8,19.64,8.45,43.61-1.54,49.83-21.92,6-19.65,5.85-38.69-9.88-54.65,3.19-.15,6.21.73,9.23,1.58-.15,1.39-2.06,2.18-1.14,4.43a12.21,12.21,0,0,1,10.55.67c1.25.71,2.12-.2,2.34-1.57,1.54.55,3.08,1.11,4.63,1.63,8.2,2.76,14.72,8.6,22.41,12.28,5,18.24,4.64,36.86,3.52,55.47-.58,9.6-2,19.14-3.17,28.7-.77,6.64,1.17,13.51.25,20.34-1.29,9.68-4.57,18.73-8.67,27.48-1.57,3.33-2.06,5.16,2.7,4.82,3.55-.26,6.94,1,10,2.64,4.72,2.53,4.72,6.83.12,9.56-2.08,1.23-4.26,2.27-6.58,3.49,1.84,2.14,4.28,1.95,6,3.16,2.14,1.51,4.86,2.56,4.74,5.85s-2.74,4.49-5.22,5.33a43.11,43.11,0,0,1-10.61,2.61c-10.77.73-21.59,1.57-32.26-1.05,1.54-2.54,4.38-3.45,6.58-5.18a68.5,68.5,0,0,0,17.69-20c1.23-2.15.4-3.86-.63-5.54-.66-1.08-1.77-.6-2.62,0-8.2,5.72-17.44,8.71-27.16,10.54-1.58.3-2.91,1.2-1.84,3.16C138.19,248.58,136.79,255.19,134.85,261.81Zm-84.69-91.7c-2.7-.73-4.08-1.33-5.49-1.44-6.5-.53-12.68-2.45-18.83-4.32-9.82-3-9.78-3.14-8,6.6.15.81.16,1.65.23,2.47.17,2.26,1.51,3.18,3.65,3.16C31.21,176.46,40.13,173.81,50.16,170.11Zm120.93-49.76c.21-1.43,1.22-3.23-.88-3.3-2.32-.08-3.38,1.84-3.41,4,0,2.62,1.72,5.33,3.81,4.87C175.15,124.94,169.11,122,171.09,120.35Zm-26.46,17.33c-1.5.12-2.6.79-2.57,2.39,0,1.25,1.09,1.54,2.14,1.43a2.29,2.29,0,0,0,2.32-2.13C146.62,138.07,145.73,137.72,144.63,137.68Z"/><path class="cls-2" d="M31.92,54.76c-7.07-6.07-8.45-14.36-8.3-22.9.18-9.78,5.69-16.8,13.46-22.13C46.42,3.32,57.12.44,68.15.09,110.79-1.24,148,11.82,177.85,43.18,184.3,50,189.73,57.6,192.69,66.62c3.15,9.63-.58,16.11-9.86,17.72-3.73-4.4-8.85-6.83-13.7-9.61C158.33,68.54,146.4,65,135,60.3c-7.13-9-16.58-14.57-27.08-18.65l-1.13-.46,1,.63c.23,2.24,2.11,3.28,3.42,4.74,3.19,3.57,7.21,6.39,9.77,10.56-22.27-4.25-44.72-6.41-67.4-5.33C46.26,52.13,38.91,52.3,31.92,54.76Z"/><path class="cls-3" d="M133.72,71.59c15.73,16,15.89,35,9.88,54.65-6.22,20.38-30.19,30.37-49.83,21.92-5.19-2.23-9.34-6.21-14.8-7.79a19.5,19.5,0,0,0-1.25-6.85,12.7,12.7,0,0,0-1.88-7c.67-15-10.24-24.61-25.85-22.75,0-2.14,0-4.29,0-6.43-.56-16.86-9.87-25.41-26.5-24.4,1.78-5.06,2.84-10.58,8.46-13.19l10.79.93c5.93,5.24,11.92,10.4,16.64,16.85,1.38,1.89,3.36,3.16,5.36.85C71,71.08,79.62,67.69,87.88,63.62A447.27,447.27,0,0,1,133.72,71.59Zm.08,29.17c0-1.5.1-3,0-4.49-1-12.44-11-22.54-24-24.29C98,70.38,87,77.58,83,89.72a39.09,39.09,0,0,0-.88,23.12c2.79,10.22,8.5,18.28,19.67,20.33,11,2,19.59-2.52,26-11.23A32.6,32.6,0,0,0,133.8,100.76Z"/><path class="cls-3" d="M27.69,229.64c1.25-1.57,3-1.88,4.86-2.12,14-1.88,25.46-8.19,33.58-19.94,2.5-3.6,4.17-7.65,3.76-12.16-.61-6.72,2-13.41-.41-20.22-1.07-3.06,1.88-3.62,4.43-3.61,8,0,16-.14,23.94,0a139.42,139.42,0,0,0,27.65-2.69c2.85-.52,6.84-1.82,8.34.94,1.61,2.95-2.46,4.6-4.34,6.31-5.16,4.7-11.21,8.22-17.23,11.75-11.34,6.65-22.17,14-31.29,23.6-4.16-.15-8.27,3.44-12.59-.35-1.08-.95-1.43,1.16-.89,2.25,2.19,4.43,6.17,4.36,10.25,4-.51,5.54,2.65,9.09,6.8,11.84,4,2.64,8.24,4.89,12.38,7.32a18.78,18.78,0,0,1-1.64,8l-1.17-1.23c-2-2.18-3.92-5.24-7.34-3.5s-1.94,5.25-1.5,8c.62,3.89,1.66,7.71,2.53,11.55-7.5.2-14.39-3.08-21.72-3.81a23.14,23.14,0,0,1-11.2-10.16,32.88,32.88,0,0,0-12.45-12.59c-2.58-1.43-5.38-3.69-8.69-1.31l-4.82-.11Zm67.75-38.11a9,9,0,0,0,7.33-3.47c.67-.77,1.23-1.71.56-2.66a1.65,1.65,0,0,0-2.6-.08c-3.71,3.3-7.3,3.14-11-.08a2,2,0,0,0-3.08.3c-1,1.19-.13,2.13.67,3C89.55,190.87,92.44,191.36,95.44,191.53Zm-26.7,47.18a21.59,21.59,0,0,0,3.78-1.16c1.76-.91,4-2.11,2.82-4.47-1.41-2.82-3.28-1.08-4.8.26s-3,1-4.5,0-3-1-3.72.8.47,2.78,2,3.31C65.77,237.89,67.21,238.26,68.74,238.71Z"/><path class="cls-4" d="M42.7,60.65l-10.79-.93c0-1.65,0-3.31,0-5,7-2.46,14.34-2.63,21.6-3,22.68-1.08,45.13,1.08,67.4,5.33,4.66,1.17,9.15,3.07,14,3.18,11.44,4.68,23.37,8.24,34.17,14.43,4.85,2.78,10,5.21,13.7,9.61q-.54,3.14-1.09,6.27c-7.69-3.68-14.21-9.52-22.41-12.28-1.55-.52-3.09-1.08-4.63-1.63A28.91,28.91,0,0,0,143,73.17c-3-.85-6-1.73-9.23-1.58a447.27,447.27,0,0,0-45.84-8c-8.8-2.57-17.87-3.43-26.95-3.77C54.87,59.62,48.7,58.68,42.7,60.65Z"/><path class="cls-5" d="M28.93,231.49l4.82.1c3.72,5.22,3.46,11.25,3.08,17.13-.4,6.13,0,11.73,5.26,15.85-2.51,2.83-5.41,5.25-7.38,8.64C32.6,276.81,27,277,24,273.34c-6.14-7.57-12.5-15-17.58-23.39-1.43-2.36-3.13-5.37-.79-7.8,2.53-2.62,5.17-.06,7.65,1,.47.33,1.26,1,1.34.93.75-.7.18-1.38-.22-2-.54-2.41-1.19-4.79-1.57-7.22-.27-1.67,0-3.37,1.79-4.25s3.49-.36,5,.89c2.72,2.26,3.9,5.6,6.05,9C26.91,237.11,26.24,233.63,28.93,231.49Z"/><path class="cls-6" d="M23.45,72.91c16.63-1,25.94,7.54,26.5,24.4.07,2.14,0,4.29,0,6.43-6.12,8-12.4,15.91-17.12,24.88-7.42,2.71-13.75,1-19.16-4.62-.67-.69-1.25-1.56-2.41-1.45-1.06-4.67-3.57-9-3.49-13.93a.54.54,0,0,0-.06-.79,21.39,21.39,0,0,1,0-9.15.8.8,0,0,0,.12-.86L8,96.48l1.72,0a64,64,0,0,0,.34,6.94c.94,6.28,5.16,11.2,10.19,12.2,5.35,1,11.1-2,14.22-7.89,3.6-6.84,4-14,.56-21-4.47-9.06-14.46-9.88-20.87-1.89-.12-1-.23-2-.35-3C16.13,77.87,19.74,75.34,23.45,72.91Z"/><path class="cls-5" d="M87.81,259.47c-.87-3.84-1.91-7.66-2.53-11.55-.44-2.79-1.89-6.3,1.5-8s5.36,1.32,7.34,3.5l1.17,1.23a18.78,18.78,0,0,0,1.64-8,22.75,22.75,0,0,1,3-.11c7.17.64,7.65,1.18,7.77,8.41,0,.82.08,1.64.13,2.56,2.13-.16,2.47-2.12,3.62-3.14,1.88-1.67,3.62-3.85,6.42-2.09,2.59,1.62,2.44,4.36,1.54,6.71-1.89,5-4.18,9.75-6.27,14.62-.91,2.12-1.75,4.28-2.63,6.41-1.84,1.35-2.43,3.53-3.54,5.36-1.77,2.92-4.47,3.86-7.64,3.67-3-.19-4.61-2.05-5.81-4.73C91.35,269.4,91.05,263.87,87.81,259.47Z"/><path class="cls-1" d="M42.09,264.57c-5.27-4.12-5.66-9.72-5.26-15.85.38-5.88.64-11.91-3.08-17.13,3.31-2.37,6.11-.11,8.69,1.32A32.88,32.88,0,0,1,54.89,245.5a23.14,23.14,0,0,0,11.2,10.16C59,261.1,50.82,263.55,42.09,264.57Z"/><path class="cls-3" d="M134.85,261.81c1.94-6.62,3.34-13.23-.23-19.8-1.07-2,.26-2.86,1.84-3.16,9.72-1.83,19-4.82,27.16-10.54.85-.6,2-1.08,2.62,0,1,1.68,1.86,3.39.63,5.54a68.5,68.5,0,0,1-17.69,20c-2.2,1.73-5,2.64-6.58,5.18Z"/><path class="cls-3" d="M11.3,122.55c1.16-.11,1.74.76,2.41,1.45,5.41,5.6,11.74,7.33,19.16,4.62-1,5.54-2.19,11.07-.79,16.72-7.4.69-14.65.52-21.14-3.86Z"/><path class="cls-7" d="M13.84,81.83c.12,1,.23,2,.35,3A37.81,37.81,0,0,0,9.75,96.53L8,96.48C8.63,91.06,10.14,86,13.84,81.83Z"/><path class="cls-7" d="M7.75,107.83a.54.54,0,0,1,.06.79A.46.46,0,0,1,7.75,107.83Z"/><path class="cls-7" d="M7.88,97.82a.8.8,0,0,1-.12.86A3.58,3.58,0,0,1,7.62,98C7.61,98,7.79,97.89,7.88,97.82Z"/><path class="cls-8" d="M32.08,145.34c-1.4-5.65-.22-11.18.79-16.72,4.72-9,11-16.87,17.12-24.88,15.61-1.86,26.52,7.74,25.85,22.75-8.52,3.39-17.07,6.71-25.55,10.21-1.88.78-4.22,1.17-5.07,3.55-3.22.27-5.49,2.58-8.24,3.85C35.42,144.82,34.08,146.36,32.08,145.34Zm29.53-31.51a2,2,0,0,0-2.37-1.93,2.07,2.07,0,0,0-2,2.4,2,2,0,0,0,2.35,2A2.21,2.21,0,0,0,61.61,113.83Z"/><path class="cls-4" d="M45.22,140.25c.85-2.38,3.19-2.77,5.07-3.55,8.48-3.5,17-6.82,25.55-10.21a12.7,12.7,0,0,1,1.88,7c-7.82,3.06-15.14,7-21.22,12.9C51.67,146.33,49.14,142,45.22,140.25Z"/><path class="cls-3" d="M50.16,170.11c-10,3.7-18.95,6.35-28.47,6.47-2.14,0-3.48-.9-3.65-3.16-.07-.82-.08-1.66-.23-2.47-1.75-9.74-1.79-9.6,8-6.6,6.15,1.87,12.33,3.79,18.83,4.32C46.08,168.78,47.46,169.38,50.16,170.11Z"/><path class="cls-5" d="M56.5,146.42c6.08-5.94,13.4-9.84,21.22-12.9A19.5,19.5,0,0,1,79,140.37C74.37,149,64.77,151.59,56.5,146.42Z"/><path class="cls-9" d="M77.75,217.41c-4.08.37-8.06.44-10.25-4-.54-1.09-.19-3.2.89-2.25,4.32,3.79,8.43.2,12.59.35Z"/><path class="cls-9" d="M143,73.17A28.91,28.91,0,0,1,154.7,76.7c-.22,1.37-1.09,2.28-2.34,1.57a12.21,12.21,0,0,0-10.55-.67C140.89,75.35,142.8,74.56,143,73.17Z"/><path class="cls-9" d="M171.09,120.35c-2,1.66,4.06,4.59-.48,5.6-2.09.46-3.85-2.25-3.81-4.87,0-2.19,1.09-4.11,3.41-4C172.31,117.12,171.3,118.92,171.09,120.35Z"/><path class="cls-9" d="M144.63,137.68c1.1,0,2,.39,1.89,1.69a2.29,2.29,0,0,1-2.32,2.13c-1,.11-2.12-.18-2.14-1.43C142,138.47,143.13,137.8,144.63,137.68Z"/><path class="cls-10" d="M135,60.3c-4.89-.11-9.38-2-14-3.18-2.56-4.17-6.58-7-9.77-10.56-1.31-1.46-3.19-2.5-3.42-4.74l.15-.17C118.38,45.73,127.83,51.33,135,60.3Z"/><path class="cls-10" d="M107.73,41.82l-1-.63,1.13.46Z"/><path class="cls-6" d="M133.8,100.76a32.6,32.6,0,0,1-6.07,21.18c-6.39,8.71-15,13.24-26,11.23-11.17-2-16.88-10.11-19.67-20.33A39.09,39.09,0,0,1,83,89.72C87,77.58,98,70.38,109.79,72c13,1.75,23,11.85,24,24.29C133.9,97.76,133.8,99.26,133.8,100.76ZM112.05,97a17.84,17.84,0,0,0-2.54-9.46c-5.31-9.16-16.13-9.59-22-.74-5,7.5-5.73,15.55-1.56,23.65,4.29,8.34,14.72,9.45,20.81,2.31C110.37,108.61,112.17,103.67,112.05,97Z"/><path class="cls-1" d="M42.7,60.65c6-2,12.17-1,18.23-.8,9.08.34,18.15,1.2,26.95,3.77C79.62,67.69,71,71.08,64.7,78.35c-2,2.31-4,1-5.36-.85C54.62,71.05,48.63,65.89,42.7,60.65Zm20,3.9c-.64-1.38-1.06-3.28-3.25-3.64-1.33-.22-2.36.24-2.42,1.75-.1,2.43,1.78,2.88,3.56,3.41C61.73,66.4,62.6,66.31,62.72,64.55Z"/><path class="cls-9" d="M95.44,191.53c-3-.17-5.89-.66-8.09-3-.8-.86-1.65-1.8-.67-3a2,2,0,0,1,3.08-.3c3.67,3.22,7.26,3.38,11,.08a1.65,1.65,0,0,1,2.6.08c.67.95.11,1.89-.56,2.66A9,9,0,0,1,95.44,191.53Z"/><path class="cls-9" d="M68.74,238.71c-1.53-.45-3-.82-4.38-1.28-1.57-.53-2.79-1.5-2-3.31s2.27-1.81,3.72-.8,3,1.38,4.5,0,3.39-3.08,4.8-.26c1.18,2.36-1.06,3.56-2.82,4.47A21.59,21.59,0,0,1,68.74,238.71Z"/><path class="cls-11" d="M14.4,242.08c.4.66,1,1.34.22,2-.08.08-.87-.6-1.34-.93Z"/><path class="cls-12" d="M9.75,96.53a37.81,37.81,0,0,1,4.44-11.65c6.41-8,16.4-7.17,20.87,1.89,3.45,7,3,14.17-.56,21-3.12,5.92-8.87,8.94-14.22,7.89-5-1-9.25-5.92-10.19-12.2A64,64,0,0,1,9.75,96.53ZM24,92.36c-.12-2.87-1.21-5.23-4.21-5.14-3.22.09-4.35,2.76-4.32,5.61,0,2.61,1,5.21,4.15,5.06S23.72,95.12,24,92.36Z"/><path class="cls-13" d="M61.61,113.83a2.21,2.21,0,0,1-2,2.47,2,2,0,0,1-2.35-2,2.07,2.07,0,0,1,2-2.4A2,2,0,0,1,61.61,113.83Z"/><path class="cls-12" d="M112.05,97c.12,6.63-1.68,11.57-5.25,15.76-6.09,7.14-16.52,6-20.81-2.31-4.17-8.1-3.4-16.15,1.56-23.65,5.83-8.85,16.65-8.42,22,.74A17.84,17.84,0,0,1,112.05,97ZM98,94c0-2.89-1.05-5.23-4.09-5.32-3.38-.09-4.45,2.66-4.57,5.41s1,5.24,4.06,5.23S97.79,96.86,98,94Z"/><path class="cls-9" d="M62.72,64.55c-.12,1.76-1,1.85-2.11,1.52-1.78-.53-3.66-1-3.56-3.41.06-1.51,1.09-2,2.42-1.75C61.66,61.27,62.08,63.17,62.72,64.55Z"/><path class="cls-6" d="M24,92.36c-.24,2.76-1.14,5.38-4.38,5.53s-4.12-2.45-4.15-5.06c0-2.85,1.1-5.52,4.32-5.61C22.75,87.13,23.84,89.49,24,92.36Z"/><path class="cls-6" d="M98,94c-.22,2.83-1.37,5.32-4.6,5.32s-4.17-2.6-4.06-5.23,1.19-5.5,4.57-5.41C97,88.8,98,91.14,98,94Z"/></g></g></svg>