<svg xmlns="http://www.w3.org/2000/svg" viewBox="0 0 212.9 281.72"><defs><style>.cls-1{fill:#976629;}.cls-2{fill:#b18042;}.cls-3{fill:#d83627;}.cls-4{fill:#c2995e;}.cls-5{fill:#3c2f2c;}.cls-6{fill:#df9931;}.cls-7{fill:#dededc;}.cls-8{fill:#414042;}.cls-9{fill:#f6d28b;}.cls-10{fill:#bf955d;}.cls-11{fill:#a42f24;}</style></defs><g id="Layer_2" data-name="Layer 2"><g id="Layer_1-2" data-name="Layer 1"><path class="cls-1" d="M88.3,261c-3-2.29-7.2-2.43-9.85-5.58-1.21-1.44-2.22.31-3.2,1.15-5.18,4.43-8.87,4.77-14.24.69-2.3-1.75-4.18-1.37-6.44-.5-4,1.55-8.1,2-12-.23-4.93-2.78-5.91-6.3-3.21-11.28,1-1.9,2.21-3.72,3.19-5.65.88-1.74,2.58-3.07,2.78-5.87-7.76,1.51-15.39,2.58-23.14,2.23A38.27,38.27,0,0,1,5,231.27c-5.54-3.07-6.45-7.14-2.78-12.36A35.2,35.2,0,0,1,6.41,214c3.42-3.34,7.24-6,3.17-11.86-1.95-2.8.66-6.4,2.62-9.09Q23,178.11,34.07,163.32c4.23-5.68,6.78-11.33,6.23-19.11C39.22,128.84,39,113.31,41.92,98,53,92,64.11,86.09,76,81.9c8.09-2.85,16-6.58,24.74-7-8.63,11.56-12.21,24.32-10,38.78,1.64,10.49,4.74,20.19,13.12,27.14,16,13.28,37.16,12.22,52.43-2.2,1.63-1.54,2.77-3.87,5.49-3.95,4.86,4,9.83,7.81,14.55,11.95,5.7,5,11.56,9.93,14.54,17.26-14.15,6.18-29.28,7.27-44.34,7.81-15.47.55-30.82-1.1-45.63-6.21-4.45-1.53-5.36-.58-4.42,4.08,3.2,15.82-1.83,29.07-12.5,40.61-6.26,6.76-13.11,12.76-21.51,16.74-3,1.42-3.21,3-.82,5.19.87.78,1.69,1.61,2.6,2.33C77.76,245,92.89,251.17,110.07,252c-1.35,3.56-4.85,5.1-7.22,7.7ZM61.6,117.06c-.17,1.19-1.54,3.13.47,3.14,2.23,0,3.6-2.1,3.77-4.44.16-2.17-.78-4.58-3-4.24C58.9,112.13,62.51,115.3,61.6,117.06Z"/><path class="cls-2" d="M110.07,252c-17.18-.84-32.31-7-45.75-17.6-.91-.72-1.73-1.55-2.6-2.33-2.39-2.15-2.18-3.77.82-5.19,8.4-4,15.25-10,21.51-16.74,10.67-11.54,15.7-24.79,12.5-40.61-.94-4.66,0-5.61,4.42-4.08,14.81,5.11,30.16,6.76,45.63,6.21,15.06-.54,30.19-1.63,44.34-7.81,1.74,1.89,2,4.48,3.1,6.67.7,1.39.74,3.52,3,3.35s2.8-2.12,3.28-3.86c1.21-4.31,1.35-8.77,1.55-13.22,1.75.49,4.9-2.32,4.9,2.27,0,20.77-5,40-17.63,56.78-1,1.3-2.48,2.27-2.35,4.18a195.43,195.43,0,0,1-22.26,18.65,164.6,164.6,0,0,1-34.28,12.44C123.56,252.14,116.8,251.7,110.07,252Zm16.17-42.41a4.06,4.06,0,0,0,1.57-.38c2-.81,3.54-2.15,2.66-4.52s-2.48-1.27-4-.41-2.52.17-3.56-.78c-1.26-1.14-2.67-2.41-4.24-.76-1.79,1.87-.13,3.26,1.08,4.6C121.18,208.86,122.72,210,126.24,209.6Zm16.49-21.78a6.2,6.2,0,0,0,6-2.49c.64-.81,1.25-1.72.53-2.68s-1.85-.65-2.63,0c-3,2.63-5.7,2-8.28-.68-.95-1-2.08-1.16-3,.08a2.32,2.32,0,0,0,.42,3.16A8.36,8.36,0,0,0,142.73,187.82Zm8,24a7.42,7.42,0,0,0,5.12-1.82c1-.84,2.22-1.9,1.36-3.3s-2.38-1-3.47-.19c-1.92,1.48-3.53,1.34-5.2-.36-.84-.86-1.91-1.46-3-.31s-.67,2.42.23,3.53C147.14,211,148.71,212.05,150.77,211.8Zm4.66,20.92c1.9-.22,5.07-1.1,3.78-4.13-1.53-3.58-6.08,2.31-8.47-1.48a2.5,2.5,0,0,0-1.59.68,2.46,2.46,0,0,0,.59,3.14C151.12,232.24,152.8,232.81,155.43,232.72Zm18.5-33.83a14.31,14.31,0,0,0,3.21-.89c1.56-.78,3.88-1.6,2.82-3.88s-2.71-.8-4.2,0a5.18,5.18,0,0,1-2.83.55c-1.62-.21-3.68-1.18-3.88,1.37C168.82,198.92,171.33,198.7,173.93,198.89Zm-55.29,24.75c-2.32-1.58-6.26.71-8.38-2.32-.41-.59-1.52.14-2,.92a2.41,2.41,0,0,0,.7,3.09c2,1.89,4.24,3.11,7.09,1.77A3.56,3.56,0,0,0,118.64,223.64Zm11.92,17.1c2.24-.48,5.29-1.12,4.74-3.07-1.19-4.15-6,.34-8.4-2.55-.53-.65-1.86.25-2,1.47a2.59,2.59,0,0,0,1.62,2.82C127.91,240,129.35,240.35,130.56,240.74Zm45.12-23c-1.5.61-4.48-1.14-4.53,1.93,0,2.24,2.31,3,4.42,2.6s4.85-.89,4.59-3.5C179.86,215.81,177.35,217.89,175.68,217.71Zm13.94-18.89c-1.66.13-3.52.21-3.69,2.36-.14,1.85,1.29,2.67,2.92,2.46,1.89-.24,4.3-.57,4.27-3.06C193.1,198.72,191.09,198.88,189.62,198.82Z"/><path class="cls-3" d="M39.89,93c-12.81-3.73-17.57-13.2-12.53-25.86C33,53,43,42.17,54.53,32.61A109.35,109.35,0,0,1,73.08,20.05c2.53-1.35,19.4-9.4,25.62-11.53,20.81-7.15,42.12-11.36,64.12-6.29,12.87,3,23.19,9.55,26.41,23.44,2,8.75,0,17.16-3.76,25.17-3.92-1-7.92-.86-11.89-.61-23.23,1.42-46.22,4.44-68.71,10.64,1.56-6.92,7.91-10.54,12.67-17-7.33,2.13-12,5.82-16.71,9.29C95.58,57.05,90,60.73,86.74,66.81a3.58,3.58,0,0,1-.66.37L84.84,68c-1.66.75-3.31,1.51-5,2.23C65.69,76.29,51.74,82.8,39.89,93Z"/><path class="cls-4" d="M161.85,134.65c-2.72.08-3.86,2.41-5.49,3.95-15.27,14.42-36.42,15.48-52.43,2.2-8.38-7-11.48-16.65-13.12-27.14-2.26-14.46,1.32-27.22,10-38.78l0,.05,1.28-.8a305.73,305.73,0,0,1,34.62-9.52c10,1.9,18.65,6.67,26.65,12.62,4,3,6.3,2.3,8.2-2a16.35,16.35,0,0,1,1.7-3c4.28-5.92,8.6-11.82,16.38-13.51,3.86,4.12,6.31,9.07,8.38,14.24-7.68-.17-12.11,3.92-14.67,10.81-2.32,6.22-1.81,12.62-1.79,19-4.89-2.29-9.31-1.12-12.68,2.66C161.36,113.86,159.2,123.72,161.85,134.65Zm-6-30.11c.76-7-2.33-13.26-6-19.12C143.47,75.29,129.43,72,119,77.73c-16.79,9.21-20,34.59-6.17,48.66,12,12.2,30.74,10,38.94-4.74A30.86,30.86,0,0,0,155.82,104.54Z"/><path class="cls-5" d="M136.68,64.61a305.73,305.73,0,0,0-34.62,9.52l-1.28.8,0-.05c-8.78.44-16.65,4.17-24.74,7C64.11,86.09,53,92,41.92,98q-1-2.51-2-5c11.85-10.18,25.8-16.69,40-22.8,1.67-.72,3.32-1.48,5-2.23l1.24-.77a3.58,3.58,0,0,0,.66-.37l18.13-5.94c22.49-6.2,45.48-9.22,68.71-10.64,4-.25,8-.4,11.89.61,1.94,1.58-.24,3.35.24,5a19.91,19.91,0,0,1-6.27,1.24A227.36,227.36,0,0,0,136.68,64.61Z"/><path class="cls-6" d="M153.77,258.76c.39,6.88,3.23,9.77,10,10.22,4.7.32,9.39.61,11.36,6.14,1.65,4.63.84,6.24-4.07,6.34-9.44.19-18.89.1-28.34.13-2.65,0-5.31.1-8,0-1.72-.05-4,.77-4.77-1.51a5.7,5.7,0,0,1,1.59-5.95c.35-.35.67-.85,1.1-1,7.45-2.34,7.52-8.24,7-14.44C144.37,259.73,149.07,260.36,153.77,258.76Z"/><path class="cls-6" d="M88.3,261l14.55-1.24c.14,8.1.13,8.14,8,10.68a8.38,8.38,0,0,1,5.09,3.7c1,1.72,2.3,3.55,1.37,5.56-1,2.17-3.34,1.91-5.28,1.92-12.28,0-24.57-.08-36.86,0-3.56,0-4.42-1.28-3.26-4.52,1.54-4.27,4.33-7,8.87-7.76C85.54,268.54,88.06,265.81,88.3,261Z"/><path class="cls-7" d="M181.53,102.8c0-6.4-.53-12.8,1.79-19,2.56-6.89,7-11,14.67-10.81,3.79,2.15,7.82,4.08,8.78,9-8.55-1.67-12.23.41-13.92,8.27a24.42,24.42,0,0,0,2.05,16.86c3.76,7.18,8.77,7.86,14.4,2,.28-.29.95-.22,1.43-.31-1,3.17-1.09,6.71-3.54,9.34l-.29.11,0,.3-.27,1.3a12.79,12.79,0,0,1-9.79,4.56c-.92-1.55-1.92-3-2.75-4.64A60,60,0,0,0,181.53,102.8Z"/><path class="cls-1" d="M186.8,220c-.13-1.91,1.37-2.88,2.35-4.18,12.64-16.82,17.64-36,17.63-56.78,0-4.59-3.15-1.78-4.9-2.27q-.6-9-1.21-17.92l6.22-2.49c0,13,4.67,25.29,5.54,38.14C213.66,192.78,202.09,213.19,186.8,220Z"/><path class="cls-1" d="M136.68,64.61a227.36,227.36,0,0,1,42.76-7.53,19.91,19.91,0,0,0,6.27-1.24,5.62,5.62,0,0,1,3.9,2.9c-7.78,1.68-12.1,7.58-16.38,13.5a16.35,16.35,0,0,0-1.7,3c-1.9,4.26-4.21,4.92-8.2,2C155.33,71.28,146.65,66.51,136.68,64.61Zm34.87-2.36c-.34-1.55-1.19-2.2-2.22-1.9a6.74,6.74,0,0,0-5.18,5.35c-.21,1.07.66,2.23,1.67,1.85C168.49,66.55,170.06,64.24,171.55,62.25Z"/><path class="cls-8" d="M210.73,108.81c-.48.09-1.15,0-1.43.31-5.63,5.84-10.64,5.16-14.4-2a24.42,24.42,0,0,1-2.05-16.86c1.69-7.86,5.37-9.94,13.92-8.27.86,0,1.77.13,2.11,1C212.26,91.35,215,99.84,210.73,108.81ZM208,94.67c-.2-2.19-.79-4.43-3.58-4.31-2.16.09-2.91,1.89-2.83,4,.09,2.29.49,4.55,3.32,4.66S207.79,96.81,208,94.67Z"/><path class="cls-1" d="M153.77,258.76c-4.7,1.6-9.4,1-14.1,0-3.66-1.88-7.33-3.76-9.41-7.61a164.6,164.6,0,0,0,34.28-12.44C164.45,247.25,161.26,254.16,153.77,258.76Z"/><path class="cls-4" d="M206.89,136.39l-6.22,2.49q-1.9-7.23-3.8-14.46a12.79,12.79,0,0,0,9.79-4.56c.25,3.06.51,6.13.77,9.19a2,2,0,0,0,0,2.72C207.44,133.33,207.78,134.93,206.89,136.39Z"/><path class="cls-1" d="M207.45,131.77a2,2,0,0,1,0-2.72C207.43,130,207.44,130.87,207.45,131.77Z"/><path class="cls-1" d="M206.93,118.56l0-.3.29-.11v.29Z"/><path class="cls-9" d="M196.87,124.42q1.89,7.23,3.8,14.46.6,9,1.21,17.92c-.2,4.45-.34,8.91-1.55,13.22-.48,1.74-1,3.68-3.28,3.86s-2.31-2-3-3.35c-1.12-2.19-1.36-4.78-3.1-6.67-3-7.33-8.84-12.26-14.54-17.26-4.72-4.14-9.69-8-14.55-11.95-2.65-10.93-.49-20.79,7-29.19,3.37-3.78,7.79-4.95,12.68-2.66a60,60,0,0,1,12.59,17C195,121.37,196,122.87,196.87,124.42Zm-18.12-9.08a2.14,2.14,0,0,0-2,2.45,2.6,2.6,0,0,0,3,2.62,1.79,1.79,0,0,0,1.72-2A3.11,3.11,0,0,0,178.75,115.34Z"/><path class="cls-2" d="M61.6,117.06c.91-1.76-2.7-4.93,1.27-5.54,2.19-.34,3.13,2.07,3,4.24-.17,2.34-1.54,4.45-3.77,4.44C60.06,120.19,61.43,118.25,61.6,117.06Z"/><path class="cls-10" d="M126.24,209.6c-3.52.44-5.06-.74-6.44-2.25-1.21-1.34-2.87-2.73-1.08-4.6,1.57-1.65,3-.38,4.24.76,1,1,2.2,1.57,3.56.78s3-2,4,.41-.65,3.71-2.66,4.52A4.06,4.06,0,0,1,126.24,209.6Z"/><path class="cls-4" d="M142.73,187.82a8.36,8.36,0,0,1-6.93-2.58,2.32,2.32,0,0,1-.42-3.16c.89-1.24,2-1.05,3-.08,2.58,2.66,5.26,3.31,8.28.68.78-.68,1.86-1.06,2.63,0s.11,1.87-.53,2.68A6.2,6.2,0,0,1,142.73,187.82Z"/><path class="cls-4" d="M150.77,211.8c-2.06.25-3.63-.85-4.94-2.45-.9-1.11-1.36-2.32-.23-3.53s2.14-.55,3,.31c1.67,1.7,3.28,1.84,5.2.36,1.09-.83,2.62-1.19,3.47.19s-.34,2.46-1.36,3.3A7.42,7.42,0,0,1,150.77,211.8Z"/><path class="cls-4" d="M155.43,232.72c-2.63.09-4.31-.48-5.69-1.79a2.46,2.46,0,0,1-.59-3.14,2.5,2.5,0,0,1,1.59-.68c2.39,3.79,6.94-2.1,8.47,1.48C160.5,231.62,157.33,232.5,155.43,232.72Z"/><path class="cls-10" d="M173.93,198.89c-2.6-.19-5.11,0-4.88-2.88.2-2.55,2.26-1.58,3.88-1.37a5.18,5.18,0,0,0,2.83-.55c1.49-.77,3.19-2.15,4.2,0s-1.26,3.1-2.82,3.88A14.31,14.31,0,0,1,173.93,198.89Z"/><path class="cls-10" d="M118.64,223.64a3.56,3.56,0,0,1-2.54,3.46c-2.85,1.34-5.07.12-7.09-1.77a2.41,2.41,0,0,1-.7-3.09c.43-.78,1.54-1.51,2-.92C112.38,224.35,116.32,222.06,118.64,223.64Z"/><path class="cls-4" d="M130.56,240.74c-1.21-.39-2.65-.76-4-1.33a2.59,2.59,0,0,1-1.62-2.82c.12-1.22,1.45-2.12,2-1.47,2.39,2.89,7.21-1.6,8.4,2.55C135.85,239.62,132.8,240.26,130.56,240.74Z"/><path class="cls-10" d="M175.68,217.71c1.67.18,4.18-1.9,4.48,1,.26,2.61-2.58,3.07-4.59,3.5s-4.45-.36-4.42-2.6C171.2,216.57,174.18,218.32,175.68,217.71Z"/><path class="cls-4" d="M189.63,198.82c1.46.06,3.47-.1,3.49,1.76,0,2.49-2.38,2.82-4.27,3.06-1.63.21-3.06-.61-2.92-2.46C186.1,199,188,199,189.63,198.82Z"/><path class="cls-11" d="M104.87,60.87,86.74,66.81c3.21-6.08,8.84-9.76,14.09-13.66,4.68-3.47,9.38-7.16,16.71-9.29C112.78,50.33,106.43,54,104.87,60.87Z"/><path class="cls-11" d="M86.08,67.18,84.84,68Z"/><path class="cls-7" d="M155.82,104.54a30.86,30.86,0,0,1-4.07,17.11c-8.2,14.69-26.95,16.94-38.94,4.74C99,112.32,102.19,86.94,119,77.73c10.45-5.73,24.49-2.44,30.84,7.69C153.49,91.28,156.58,97.58,155.82,104.54Zm-2-.15a20.59,20.59,0,0,0-3.89-12.59c-6-8.08-14.77-7.49-19.47,1.48a20.89,20.89,0,0,0,.37,21c2.22,3.94,5.57,6.67,10.4,6.62,5.08-.06,8.24-3.22,10.38-7.39A20.08,20.08,0,0,0,153.81,104.39Z"/><path class="cls-1" d="M100.78,74.93l1.28-.8Z"/><path class="cls-2" d="M171.55,62.25c-1.49,2-3.06,4.3-5.73,5.3-1,.38-1.88-.78-1.67-1.85a6.74,6.74,0,0,1,5.18-5.35C170.36,60.05,171.21,60.7,171.55,62.25Z"/><path class="cls-7" d="M208,94.67c-.23,2.14-.3,4.44-3.09,4.32s-3.23-2.37-3.32-4.66c-.08-2.08.67-3.88,2.83-4C207.23,90.24,207.82,92.48,208,94.67Z"/><path class="cls-4" d="M178.75,115.34a3.11,3.11,0,0,1,2.73,3,1.79,1.79,0,0,1-1.72,2,2.6,2.6,0,0,1-3-2.62A2.14,2.14,0,0,1,178.75,115.34Z"/><path class="cls-8" d="M153.81,104.39a20.08,20.08,0,0,1-2.21,9.07c-2.14,4.17-5.3,7.33-10.38,7.39-4.83.05-8.18-2.68-10.4-6.62a20.89,20.89,0,0,1-.37-21c4.7-9,13.48-9.56,19.47-1.48A20.59,20.59,0,0,1,153.81,104.39Zm-6-2.8c0-3-.92-5.13-3.75-5.24-2.62-.11-3.8,1.94-3.87,4.3s.64,4.92,3.53,5.17S147.56,103.76,147.84,101.59Z"/><path class="cls-7" d="M147.84,101.59c-.28,2.17-1.12,4.48-4.09,4.23s-3.61-2.72-3.53-5.17,1.25-4.41,3.87-4.3C146.92,96.46,147.89,98.61,147.84,101.59Z"/></g></g></svg>