<svg xmlns="http://www.w3.org/2000/svg" viewBox="0 0 330.97 264.71"><defs><style>.cls-1{fill:#976629;}.cls-2{fill:#b18042;}.cls-3{fill:#d83627;}.cls-4{fill:#c2995e;}.cls-5{fill:#3c2f2c;}.cls-6{fill:#dededc;}.cls-7{fill:#df9931;}.cls-8{fill:#f6d28b;}.cls-9{fill:#bf955d;}.cls-10{fill:#a42f24;}.cls-11{fill:#373635;}.cls-12{fill:#414042;}</style></defs><g id="Layer_2" data-name="Layer 2"><g id="Layer_1-2" data-name="Layer 1"><path class="cls-1" d="M231.79,86c3.07,11.64,3.7,23.55,3.85,35.51,0,1.38-.77,3.31.93,4,1.31.52,2.25-1.1,3.25-1.89,20.56-16.25,38.45-35.15,54.91-55.46,3.76-4.64,7.64-9.21,11.82-13.47s8.7-2.95,10.19,3c2.42,9.74-.68,18.76-4.26,27.55-1.93,4.74-4.68,9.14-7.06,13.7-.31.69-.61,1.37-.91,2.06l-.35.56.55-.35,1.4-1.7c5.15-3.21,8.46-8.39,13-12.2,2.63-2.18,5.23-5.69,9-3.71,4.07,2.11,2.73,6.51,2,9.92-2.82,13.3-10.39,23.91-19.71,33.46-1.32,1.36-3.34,2.26-3.56,4.8,3.35.37,6.1-1.51,9.12-2a27.32,27.32,0,0,1,6.42-.68c4.21.25,6.05,2.76,4.63,6.72a25.39,25.39,0,0,1-8.23,11.07,85.61,85.61,0,0,1-23.46,13.79c4,.39,6.54.37,8.95.95,4.62,1.12,5.7,4.41,2.81,8.18-2.07,2.69-5,4.36-7.91,6a50.66,50.66,0,0,1-27.89,6.47c-.37,2.58,3.45,4,1.27,6.51-2,2.3-4.62,3-7.51,3.43a34.29,34.29,0,0,1-11.87.13c-3.21-.61-6.24-.85-9,2.21-2.35,2.6-6.26,1.83-9.54,1.64-3-.18-4.48.87-5.42,3.75-1.55,4.73-3.43,9.35-5.42,13.92-1,2.36-.57,3.16,2,3.54a33.07,33.07,0,0,1,10.51,2.92c2.16,1.13,4.17,2.49,4.14,5.14,0,2.45-2.06,3.65-4,4.69-1.7.92-3.48,1.71-5.77,2.82,3,1.52,5.53,2.57,7.82,4.07,4,2.62,4,6.12-.14,8.63-4.8,2.93-10.31,3.86-15.76,4.18-7.94.46-16,1-23.86-.61-2.6-.52-4.42.64-6.37,2-4.49,3.18-9.17,6-14.89,6.27a33.23,33.23,0,0,1,4.28-10,59.55,59.55,0,0,0,5.37-12.24c.84-2.46.72-4.72-1.83-5.95s-4.42,0-6.05,2c-1,1.21-1.46,3-3.61,3.74.43-4.56-.84-8.7-1.28-12.94,16.31-.73,22.12,3.8,24.42,19.06.12.79-.12,1.78.82,2.16,1.16.49,1.82-.5,2.5-1.16a123.54,123.54,0,0,0,13.25-14.81c2.31-3.11,2.82-5.81,1.31-9.14-7.23-15.85-12.75-32.44-20.75-48-3.94-7.65-9.06-10.54-17.45-9-12.95,2.32-26,2.8-39.09,2.81-10.45,0-20.85-1.52-31.32-1-.2-2.28,1-4.17,1.83-6.12,4.53-10.51,11.64-19.29,18.9-28,2.71.06,3.89,2.35,5.52,3.9,18.79,17.95,48.41,13.28,59.3-9.47,5.6-11.7,5.93-24,3.55-36.51-1.37-7.18-5.83-12.5-10.28-17.87,2.68.12,5.41-.1,7.92,1.18,1.44,2.57,8.87,5.48,11.35,4.36.31-.14.38-.84.56-1.28l4.19,1.42C218.5,77.27,224.79,82.27,231.79,86Zm-9.27,31.82c-1.81-1.16-1.32-3.26-1.06-5.39.09-.72-.75-1-1.47-.76a4,4,0,0,0-2.93,2.39c-.6,1.79.24,3.18,1.51,4.37.83.78,1.6,1.71,2.94,1.43C222.27,119.67,222.51,119.1,222.52,117.8ZM198.5,132c0-1.39-.8-1.78-1.9-1.76a2.34,2.34,0,0,0-2.54,1.86c-.26,1.22.45,1.87,1.6,1.92A2.49,2.49,0,0,0,198.5,132Z"/><path class="cls-2" d="M108.06,163c10.47-.52,20.87,1,31.32,1,13.1,0,26.14-.49,39.09-2.81,8.39-1.5,13.51,1.39,17.45,9,8,15.52,13.52,32.11,20.75,48,1.51,3.33,1,6-1.31,9.14a123.54,123.54,0,0,1-13.25,14.81c-.68.66-1.34,1.65-2.5,1.16-.94-.38-.7-1.37-.82-2.16-2.3-15.26-8.11-19.79-24.42-19.06l-3.45-1.35c-1.41-1.91-9.48-2.61-10.53-.89-.62,1-.09,1.87.54,2.66,1,1.27,2.51,1.4,4,1.49a19.35,19.35,0,0,1-1.6,8.07c-2.14-2.2-2.79-6.15-6.42-5.69-2.75.35-3.54,3.16-4.15,5.62-.32,0-.63,0-.94-.06-.26-1.61-1.12-3.38-2.76-2.59-2.69,1.29-5.16,1.78-8,.75a1.23,1.23,0,0,0-1.6.78c-.33,1,.34,1.61,1,2.06a10.46,10.46,0,0,0,10.31,1c-1.12,5.08-1.44,10.11,1,14.94-9.92.72-19.44-1.5-28.93-4a35.16,35.16,0,0,1-18.39-16.56A11.65,11.65,0,0,0,95.92,222c-2.22-1.88-4.58-2.68-7.26-.94C80,212.83,75,202.46,71.82,191.14c-2.95-10.71-4.94-21.57-4.83-32.72.05-5.44,1.45-6.1,6.79-4.51,6.78,2,13.36,4.92,20.59,5.18,1.07,4.15,1.48,8.5,3.74,12.29,1,1.66,2.25,2.92,4.38,2.63s2.56-1.92,3-3.53C106.28,168,106.46,165.25,108.06,163Zm45.36,35.37c-1.38-.31-2.47-.11-3.09,1.14s0,2.21.78,3.14c3,3.42,10.61,2,12.31-2.27a2.32,2.32,0,0,0-.32-2.76,2.15,2.15,0,0,0-2.78-.16C158.1,199,155.83,199.55,153.42,198.38ZM147.58,182c2.19-.4,4.95-.83,6.91-3.17.79-.94,1.46-1.9.32-3a1.7,1.7,0,0,0-2.62,0c-3.28,3.48-6.58,2.94-10,.19a1.69,1.69,0,0,0-2.6.07,2,2,0,0,0,.18,3.06A11.41,11.41,0,0,0,147.58,182ZM122.9,226.94a7.16,7.16,0,0,0,5.06-1.75c1.35-1.1,2.53-2.45,1-4.18-1.29-1.52-2.69-.81-3.87.31-1.48,1.41-3,2-4.84.64-1.33-1-2.94-1.39-3.76.43s.91,2.61,2.12,3.4A6.83,6.83,0,0,0,122.9,226.94Zm6-19.77a18.37,18.37,0,0,0,3.51-.58c1.89-.69,4.06-1.72,3.13-4.15s-2.9-1.24-4.44-.26a3.68,3.68,0,0,1-4.17.21c-1.57-1-3.51-2.36-4.41.21-.73,2.09,1.57,3,3.16,3.72A17,17,0,0,0,128.91,207.17Zm-24-12.14c3-.09,5.63-.37,5.45-3.08s-2.62-1.61-4.31-1.14c-2.31.65-3.63-1-5.23-2.12-1-.68-2.23-1-3.16,0s-.2,2.14.57,3C100.14,194,102.55,195.19,104.86,195Zm-7.68,16.54c-1.21,0-3.83-1.82-4,1.56s3.09,3,5.12,3.28c2.19.28,5.44,0,5.26-2.92C103.27,209.27,99.7,212.28,97.18,211.57ZM88.51,194c-.94-2.56-3.2-1.85-5.06-1.92-1.41-.05-3.5-.28-3.08,2s2.37,3,4.59,2.85A3.54,3.54,0,0,0,88.51,194Z"/><path class="cls-3" d="M85.92,52.65c-9.57-8.23-9.48-28.21.24-38.41C94.53,5.44,105.41,1.63,117,.64c42.3-3.63,79.53,8,109.89,38.51,7.29,7.32,13.56,15.59,16.26,25.89,2.25,8.57-2.24,14.9-10.56,15.21-4.34-5-10.09-7.82-15.83-10.71-9.3-4.67-19.26-7.66-28.88-11.51-7.54-7.7-15.86-14.16-26-17.84-.3.4-.61.79-.91,1.18L172.85,54.3a24.42,24.42,0,0,1-3-.2c-22.43-4.3-45.09-4.76-67.81-3.87A62.32,62.32,0,0,0,85.92,52.65Z"/><path class="cls-1" d="M94.37,159.09c-7.23-.26-13.81-3.17-20.59-5.18C68.44,152.32,67,153,67,158.42c-.11,11.15,1.88,22,4.83,32.72-3.46-.32-6.95.19-10.4-.75-6.14-1.67-7.13-3.15-5.41-9.15-10.73-.23-20.68-2.92-29.47-9.2-2.85-2-6.38-4.09-5.16-8.2,1.15-3.89,5.06-3.66,8.4-3.78.76,0,1.51-.19,3.77-.48C25.13,155.67,18,152.32,12,147.06a29.53,29.53,0,0,1-8.33-11c-1.68-4.15.21-6.74,4.69-7,5.08-.3,9.69,1.86,15.06,3-.54-2.29-2.15-3.19-3.33-4.31-9-8.48-15.87-18.27-19.12-30.38A25.66,25.66,0,0,1,0,89.54c.23-5,3-6.57,7.21-3.88,4.65,3,8.11,7.33,12.12,11.06,1.4,1.31,2.36,3.32,4.68,3.4,0,.31.09.62.14.93l.5-.25-.67-.66c-4.82-9.27-9.82-18.47-11.48-29-.61-3.81-.87-7.61.24-11.36,1.62-5.48,5.18-6.68,9.75-3.21C26,59.22,28.36,62.91,31,66.29,39.73,77.23,49,87.69,58.47,97.92c1.57,1.69,3.44,3.1,5.17,4.64a42.59,42.59,0,0,0,4.58,14.28c-.42,4.45-.71,8.91-1.3,13.34-.55,4.11,1.45,5.77,5.06,7.15,7.48,2.87,14.7.95,22-.26C93.72,144.42,93.31,151.76,94.37,159.09Z"/><path class="cls-4" d="M186.88,69c4.45,5.37,8.91,10.69,10.28,17.87,2.38,12.53,2.05,24.81-3.55,36.51-10.89,22.75-40.51,27.42-59.3,9.47-1.63-1.55-2.81-3.84-5.52-3.9,6.35-14.28-4.15-30.34-19.53-29.87-1.32,0-2.64,0-4,0C107,78.65,96.18,67.24,78.12,70.45c2-4.57,2.22-10.22,7.8-12.56,3.89,1.23,7.87,0,11.78.42,6.17,4.52,11,10.37,16.38,15.75,1.64,1.66,3.29,3,5.44.89,6-5.88,13.28-9.67,20.51-13.63C155.73,63.38,171.41,65.55,186.88,69ZM135,98.39c0,1.16-.08,2.33,0,3.49,1.41,17.83,17.08,28.9,33.31,23.54,14.24-4.7,22.37-24.8,16.21-40.06a26.56,26.56,0,0,0-24.74-17c-10.12,0-18,6-22.32,16.92A31.37,31.37,0,0,0,135,98.39Z"/><path class="cls-5" d="M186.88,69c-15.47-3.43-31.15-5.6-46.86-7.66-7.61-2.1-15.41-2.67-23.26-2.9l-4.87-.3-14.19.19c-3.91-.44-7.89.81-11.78-.42V52.65a62.32,62.32,0,0,1,16.15-2.42c22.72-.89,45.38-.43,67.81,3.87a24.42,24.42,0,0,0,3,.2,70.46,70.46,0,0,0,15,3.73c9.62,3.85,19.58,6.84,28.88,11.51,5.74,2.89,11.49,5.76,15.83,10.71-1.39,1.76-.65,3.8-.78,5.73-7-3.71-13.29-8.71-20.89-11.32l-4.19-1.42a29.58,29.58,0,0,0-11.91-3.08C192.29,68.88,189.56,69.1,186.88,69Z"/><path class="cls-6" d="M78.12,70.45c18.06-3.21,28.89,8.2,27.18,28.64a46.33,46.33,0,0,1-8.37,18.15c-11.94,9.15-18.81,9.05-28.71-.4a42.59,42.59,0,0,1-4.58-14.28c-.08-7.32.57-14.5,4.1-21.13A26.29,26.29,0,0,1,78.12,70.45ZM93.76,92.23c-.24-4.16-1.05-8-3.76-11.23-5-6-13.14-6-18.13.06s-5.7,16.53-1.78,23c4.08,6.79,12.08,7.94,17.81,2.45C92,102.64,93.42,97.6,93.76,92.23Z"/><path class="cls-7" d="M88.66,221.06c2.68-1.74,5-.94,7.26.94a34.9,34.9,0,0,1,1.18,8.34c.2,7.87-1.79,16.24,5,22.68a21.88,21.88,0,0,0-6.32,6.86,6.35,6.35,0,0,1-10.49.91c-5.62-7-10.92-14.17-16.32-21.3a10.89,10.89,0,0,1-1.38-2.64c-.84-2.18-1.9-4.6.28-6.43,1.92-1.62,4.06-.62,6,.6.54.35,1.14.61,1.81,1,1.1-2.25-.64-3.87-.88-5.73-.35-2.7-1.07-5.62,2.08-6.9s5,1.13,6.41,3.4,2.73,4.86,4.31,7.7C88,227.06,87.31,223.91,88.66,221.06Z"/><path class="cls-7" d="M170.92,220.74l3.45,1.35c.44,4.24,1.71,8.38,1.28,12.94,2.15-.79,2.6-2.53,3.61-3.74,1.63-1.95,3.58-3.18,6.05-2s2.67,3.49,1.83,5.95a59.55,59.55,0,0,1-5.37,12.24,33.23,33.23,0,0,0-4.28,10,7.16,7.16,0,0,0-1.33,1.43c-2,3.79-4.69,6.21-9.33,5.74s-5.08-4.43-6.33-7.71a13.18,13.18,0,0,0-.94-1.73L152.75,232c.61-2.46,1.4-5.27,4.15-5.62,3.63-.46,4.28,3.49,6.42,5.69a19.35,19.35,0,0,0,1.6-8.07C166.76,222.62,168.3,220.68,170.92,220.74Z"/><path class="cls-1" d="M102.07,253c-6.76-6.44-4.77-14.81-5-22.68A34.9,34.9,0,0,0,95.92,222a11.65,11.65,0,0,1,8.57,6.34,35.16,35.16,0,0,0,18.39,16.56C117.05,250.45,109.34,251.17,102.07,253Z"/><path class="cls-1" d="M152.75,232l6.81,23.21c-3.42-1.1-4.83-4.64-7.75-6.35-2.46-4.83-2.14-9.86-1-14.94l1-2C152.12,232,152.43,232,152.75,232Z"/><path class="cls-8" d="M96.93,117.24a46.33,46.33,0,0,0,8.37-18.15c1.32,0,2.64,0,4,0,15.38-.47,25.88,15.59,19.53,29.87-7.26,8.67-14.37,17.45-18.9,28-.85,2-2,3.84-1.83,6.12-1.6,2.24-1.78,5-2.53,7.47-.48,1.61-1,3.25-3,3.53s-3.38-1-4.38-2.63c-2.26-3.79-2.67-8.14-3.74-12.29-1.06-7.33-.65-14.67-.37-22Q95.47,127.16,96.93,117.24Zm17.93-3.48a2.3,2.3,0,0,0,1.92-2.51,1.73,1.73,0,0,0-2.23-1.91c-1.4.26-1.66,1.43-1.55,2.67S113.65,113.84,114.86,113.76Z"/><path class="cls-2" d="M222.52,117.8c0,1.3-.25,1.87-1,2-1.34.28-2.11-.65-2.94-1.43-1.27-1.19-2.11-2.58-1.51-4.37a4,4,0,0,1,2.93-2.39c.72-.22,1.56,0,1.47.76C221.2,114.54,220.71,116.64,222.52,117.8Z"/><path class="cls-2" d="M194.8,70.16a29.58,29.58,0,0,1,11.91,3.08c-.18.44-.25,1.14-.56,1.28C203.67,75.64,196.24,72.73,194.8,70.16Z"/><path class="cls-2" d="M198.5,132a2.49,2.49,0,0,1-2.84,2c-1.15,0-1.86-.7-1.6-1.92a2.34,2.34,0,0,1,2.54-1.86C197.7,130.21,198.52,130.6,198.5,132Z"/><path class="cls-4" d="M153.42,198.38c2.41,1.17,4.68.65,6.9-.91a2.15,2.15,0,0,1,2.78.16,2.32,2.32,0,0,1,.32,2.76c-1.7,4.29-9.35,5.69-12.31,2.27-.81-.93-1.41-1.9-.78-3.14S152,198.07,153.42,198.38Z"/><path class="cls-9" d="M147.58,182a11.41,11.41,0,0,1-7.77-2.86,2,2,0,0,1-.18-3.06,1.69,1.69,0,0,1,2.6-.07c3.38,2.75,6.68,3.29,10-.19a1.7,1.7,0,0,1,2.62,0c1.14,1.09.47,2.05-.32,3C152.53,181.18,149.77,181.61,147.58,182Z"/><path class="cls-9" d="M122.91,226.94a6.84,6.84,0,0,1-4.25-1.15c-1.21-.79-2.93-1.6-2.12-3.4S119,221,120.3,222c1.87,1.39,3.36.77,4.84-.64,1.18-1.12,2.58-1.83,3.87-.31,1.48,1.73.3,3.08-1,4.18A7.15,7.15,0,0,1,122.91,226.94Z"/><path class="cls-9" d="M128.91,207.17a17,17,0,0,1-3.22-.85c-1.59-.74-3.89-1.63-3.16-3.72.9-2.57,2.84-1.17,4.41-.21a3.68,3.68,0,0,0,4.17-.21c1.54-1,3.47-2.27,4.44.26s-1.24,3.46-3.13,4.15A18.37,18.37,0,0,1,128.91,207.17Z"/><path class="cls-9" d="M104.86,195c-2.31.16-4.72-1.08-6.68-3.3-.77-.88-1.61-1.9-.57-3s2.18-.7,3.16,0c1.6,1.12,2.92,2.77,5.23,2.12,1.69-.47,4.13-1.58,4.31,1.14S107.81,194.94,104.86,195Z"/><path class="cls-9" d="M151.81,231.94l-1,2a10.46,10.46,0,0,1-10.31-1c-.65-.45-1.32-1.11-1-2.06a1.23,1.23,0,0,1,1.6-.78c2.8,1,5.27.54,8-.75C150.69,228.56,151.55,230.33,151.81,231.94Z"/><path class="cls-4" d="M97.18,211.57c2.52.71,6.09-2.3,6.36,1.92.18,2.88-3.07,3.2-5.26,2.92-2-.25-5.31,0-5.12-3.28S96,211.61,97.18,211.57Z"/><path class="cls-4" d="M170.92,220.74c-2.62-.06-4.16,1.88-6,3.26-1.48-.09-2.95-.22-4-1.49-.63-.79-1.16-1.64-.54-2.66C161.44,218.13,169.51,218.83,170.92,220.74Z"/><path class="cls-4" d="M88.51,194A3.54,3.54,0,0,1,85,196.91c-2.22.19-4.19-.59-4.59-2.85s1.67-2.06,3.08-2C85.31,192.12,87.57,191.41,88.51,194Z"/><path class="cls-10" d="M187.86,58a70.46,70.46,0,0,1-15-3.73L161,41.37c.3-.39.61-.78.91-1.18C172,43.87,180.32,50.33,187.86,58Z"/><path class="cls-4" d="M96.93,117.24q-1.47,9.92-2.93,19.83c-7.32,1.21-14.54,3.13-22,.26-3.61-1.38-5.61-3-5.06-7.15.59-4.43.88-8.89,1.3-13.34C78.12,126.29,85,126.39,96.93,117.24Z"/><path class="cls-11" d="M24,100.14l.67.66-.5.25c-.05-.31-.09-.62-.14-.93Z"/><path class="cls-6" d="M135,98.39a31.37,31.37,0,0,1,2.47-13.12c4.3-10.93,12.2-16.89,22.32-16.92a26.56,26.56,0,0,1,24.74,17c6.16,15.26-2,35.36-16.21,40.06-16.23,5.36-31.9-5.71-33.31-23.54C134.88,100.72,135,99.55,135,98.39Zm32.19-5.34a18.33,18.33,0,0,0-1.27-5.91c-2.45-6-7.39-9.48-13.37-9.28-5.47.19-9.66,3.61-11.79,9.79a20,20,0,0,0,.41,14.6c2.2,5.23,5.91,8.85,12,8.94s9.81-3.42,12.33-8.53C166.73,100.08,167.15,97.3,167.15,93.05Z"/><path class="cls-1" d="M116.76,58.42c7.85.23,15.65.8,23.26,2.9-7.22,4-14.55,7.75-20.5,13.63-2.15,2.14-3.8.77-5.44-.89-5.33-5.38-10.21-11.23-16.38-15.75l14.19-.19A4.55,4.55,0,0,0,113,61.74c.89.88,1.66,2.37,3.16,1.7,1.25-.56.69-2,.72-3.08C116.87,59.72,116.8,59.07,116.76,58.42Z"/><path class="cls-2" d="M116.76,58.42c0,.65.11,1.3.1,1.94,0,1.09.53,2.52-.72,3.08-1.5.67-2.27-.82-3.16-1.7a4.55,4.55,0,0,1-1.09-3.62Z"/><path class="cls-12" d="M93.76,92.23c-.34,5.37-1.79,10.41-5.86,14.32-5.73,5.49-13.73,4.34-17.81-2.45-3.92-6.51-3.1-17.13,1.78-23S85,75,90,81C92.71,84.22,93.52,88.07,93.76,92.23ZM81.11,87.37c-.22-2.58-1.2-4.65-4.2-4.39s-3.81,2.47-3.86,5,1.12,4.87,4,4.76C80,92.59,81,90.19,81.11,87.37Z"/><path class="cls-4" d="M114.86,113.76c-1.21.08-1.76-.61-1.86-1.75s.15-2.41,1.55-2.67a1.73,1.73,0,0,1,2.23,1.91A2.3,2.3,0,0,1,114.86,113.76Z"/><path class="cls-12" d="M167.15,93.05c0,4.25-.42,7-1.69,9.61-2.52,5.11-6.24,8.62-12.33,8.53s-9.8-3.71-12-8.94a20,20,0,0,1-.41-14.6c2.13-6.18,6.32-9.6,11.79-9.79,6-.2,10.92,3.25,13.37,9.28A18.33,18.33,0,0,1,167.15,93.05Zm-21.38-3.54c.27,2.58,1.23,4.73,4.14,4.5s4.05-2.49,4-5.25-1.32-4.6-4.11-4.46C146.72,84.45,146,86.89,145.77,89.51Z"/><path class="cls-6" d="M81.11,87.37C81,90.19,80,92.59,77,92.71c-2.83.11-4-2.15-4-4.76s1-4.73,3.86-5S80.89,84.79,81.11,87.37Z"/><path class="cls-6" d="M145.77,89.51c.19-2.62.95-5.06,4-5.21,2.79-.14,4.07,1.79,4.11,4.46s-1,5-4,5.25S146,92.09,145.77,89.51Z"/></g></g></svg>