<svg xmlns="http://www.w3.org/2000/svg" viewBox="0 0 192.89 287.84"><defs><style>.cls-1{fill:#296374;}.cls-2{fill:#61a0ad;}.cls-3{fill:#d83627;}.cls-4{fill:#dededc;}.cls-5{fill:#3c2f2c;}.cls-6{fill:#df9931;}.cls-7{fill:#976629;}.cls-8{fill:#f6d28b;}.cls-9{fill:#eceecf;}.cls-10{fill:#373635;}.cls-11{fill:#a42f24;}.cls-12{fill:#414042;}.cls-13{fill:#c2995e;}</style></defs><g id="Layer_2" data-name="Layer 2"><g id="Layer_1-2" data-name="Layer 1"><path class="cls-1" d="M189.46,236.32c-.57-1.79-1.31-3.71.38-5.1,3.74-3.07,3.19-7.19,2.71-11.07-2.55-20.62-5.68-41.15-12.8-60.82a17.25,17.25,0,0,1-.65-8.32c1.59-12.36,2.88-24.77,2.41-37.25-.28-7.28-1.19-14.55-1.82-21.82-7.37-4.45-13.81-10.41-21.92-13.69-4.16-1.68-8.32-3.32-12.88-3.51C153.73,85.07,157.3,97,156.7,110.59c-1,23.81-18,40.22-41.11,39.07-10.41-.51-18.9-5.64-26.73-12a14.34,14.34,0,0,1-1.16,3.22h0a27.76,27.76,0,0,1-4.32,6c-2.16,2.42-4.08,2.69-5.68-.54-6.64-7.11-15-10-24.54-10-8,.29-15.09,3-22.07,6.82-6.08,3.29-11.33-.75-16.51-3.41-3.06-1.57-2.81-3.93-2.33-6.35C11.89,134.23,1,159.94,0,181a13.65,13.65,0,0,1,.21,3A34.47,34.47,0,0,0,2.5,198.41h0a21.82,21.82,0,0,0,1.41,2.77l.32.54c3.51,5.51,9.34,9.19,17.69,11.51a3.8,3.8,0,0,1,.88.48,57.64,57.64,0,0,0,19.73-12.05c5.79-5.37,9.31-12,12.24-19.13,2.69-6.49,3.89-7,9.53-3.17,9,6.15,14.37,2.35,18-5.09,1.37-2.77,2.91-3.5,5.69-3.54,1.4,0,2.79,0,4.19,0,10.21,0,20.44.59,30.61-.94,5.39-.81,10.81-1.48,16.2-2.33,5.62-.88,6.12-.41,4.4,4.85-5.57,17-5.23,33.85,1.47,50.59,1.91,4.79,5.94,8.43,6.92,13.63,2.71.17,3.76,2.56,5.36,4.14,7.36,7.26,15.47,13.1,26.05,14.61,6.53.93,10.36-2.92,9-9.37C191.54,242.65,190.46,239.49,189.46,236.32Zm-35.59-93.83c-1.11.29-2-.28-1.86-1.55.19-1.68,1.55-2.36,2.51-2.87,1.42-.12,2.11.4,2.06,1.32A3.32,3.32,0,0,1,153.87,142.49Z"/><path class="cls-2" d="M22.8,213.71a57.64,57.64,0,0,0,19.73-12.05c5.79-5.36,9.31-12,12.24-19.12,2.69-6.49,3.89-7,9.53-3.17,9,6.15,14.37,2.34,18-5.09,1.37-2.77,2.91-3.5,5.69-3.55,11.6-.19,23.24.78,34.8-1,5.39-.81,10.81-1.48,16.2-2.33,5.62-.88,6.12-.41,4.4,4.84-5.57,17.05-5.23,33.86,1.47,50.6,1.91,4.79,5.94,8.42,6.92,13.63l-9.33,7.15a117.3,117.3,0,0,1-37.88,12.13c-7.76-.42-15.55.4-23.29-.78-3.36-.9-6.69-1.87-10.07-2.68-10.37-2.5-18.88-8.75-28-13.77A86.2,86.2,0,0,1,22.8,213.71Zm87.35-2a8.9,8.9,0,0,0,8-4.13,2.13,2.13,0,0,0-.08-2.74,1.61,1.61,0,0,0-2.58-.21c-2.28,2.36-4.76,2.07-7.7,1.42-2.48-.56-3.14,1.16-2.1,3.39C106.65,211.39,108.33,211.82,110.15,211.72Zm-8.65-22c2.79,0,5.19-.91,6.79-3.32a2,2,0,0,0-.29-2.69,1.35,1.35,0,0,0-2.13.14c-3,3.3-6.3,2.95-9.73.7-1-.66-2.2-1.23-2.91.23-.61,1.25.31,2.26,1.26,2.92A11.74,11.74,0,0,0,101.5,189.73Zm-17.67,26a8,8,0,0,0,4.57-2.08c1.07-1.08,3.09-2.1,1.47-4-1.27-1.49-2.7-.61-3.86.47s-2.6,2.05-4.38.87c-1.37-.91-3.32-2.25-4.2-.22-1,2.35,1.32,3.34,3.21,4C81.71,215.16,82.84,215.4,83.83,215.68ZM60,204.63a9.32,9.32,0,0,0,1.92-.46c1.41-.58,3.81-.51,3.39-2.77s-2.5-1.83-4.11-1.51a6.37,6.37,0,0,1-4.3-.16c-1.41-.66-3-3.41-4.46-.93-1.18,2.09,1.41,3.35,2.91,4.52A6.72,6.72,0,0,0,60,204.63Zm18.35,30.22a5.94,5.94,0,0,0,4.58-1.73c.9-.94,2.28-1.91,1.5-3.35-1-1.83-2.56-1.07-3.82-.18a4.84,4.84,0,0,1-4.7.65c-1.38-.48-3.19-1.24-3.68.88-.41,1.79,1.36,2.49,2.75,3A22.46,22.46,0,0,0,78.33,234.85Zm22.75,6.77a7.62,7.62,0,0,0,2.08-.3c1.53-.52,3.6-1.11,3.29-3.06-.39-2.51-2.45-1.47-3.91-1-1.7.58-3.21,0-4.79-.4-1-.23-2-.23-2.51.89s.22,1.86.92,2.58C97.29,241.53,98.74,241.68,101.08,241.62Zm-47.43-16a7.3,7.3,0,0,0,1.48,0c1.8-.39,4.38-1.1,3.48-3.15-1.56-3.55-5.33.49-7.88-1.41-.81-.61-2.31.25-2.26,1.76a2.44,2.44,0,0,0,1,1.54A6.26,6.26,0,0,0,53.65,225.6Zm66.65,5.09c1.67,0,3.38,0,4.19-1.85a2.86,2.86,0,0,0-.18-3.25c-1.49-1.59-2.6.25-3.89.61-1.6.45-4.49-1.28-4.32,2.13C116.22,230.67,118.46,230.65,120.3,230.69Z"/><path class="cls-3" d="M35,51.8C33.82,48.87,32.5,46,31.57,43c-4.6-14.88.7-27.85,14.31-35.52C57.47,1,70.12-.65,83,.21c34,2.28,64,14.17,88.3,38.62a90.07,90.07,0,0,1,16.8,22.76A34.09,34.09,0,0,1,192,73.35c.85,7.86-2.91,12.38-11.11,13.21-2.08-3.81-5.71-6-9.08-8.34-9.28-6.56-19.75-10.81-30.17-15.12-5.22-8.31-21-20-27.92-20.19,4.63,5.42,10.2,9.56,13.3,15.7A268.08,268.08,0,0,0,55.18,50.2C48.43,50.32,41.7,51.24,35,51.8Z"/><path class="cls-2" d="M144.89,74.73C153.73,85.07,157.3,97,156.7,110.59c-1,23.8-18,40.22-41.11,39.07-10.41-.52-18.9-5.64-26.73-12-.36-1.08-.71-2.16-1.07-3.24.92-9.16-1.75-17-8.44-23.45-5.39-5.16-11.16-4.87-15.78,1a51.37,51.37,0,0,0-10.41,24.41c-8,.29-15.09,3-22.07,6.82-6.08,3.29-11.33-.75-16.51-3.41-4.09-2.1-2.27-5.62-1.87-8.79.55-4.43,1-8.87,1.54-13.3,4.52,8.44,11.27,13.74,21.14,12.71,11.74-1.23,19.5-8.36,23-19.29,3.66-11.28,1.5-21.84-7.64-30-8.56-7.62-18.1-7-27.77-2,2-8.58,5.66-16.17,12.9-21.62,2.82,1.49,5.89.46,8.82.83a73.76,73.76,0,0,1,25,20.85c3.13,4.09,5.71,3.55,9.24.2a53,53,0,0,1,26-13.9C117.81,68.39,131,70.16,143.7,74l1.16.8Zm-1,29.35c0-15.72-11.14-27.8-25.86-28-15-.18-26.81,12.49-27,28.81-.13,15.26,11.7,28,26,28C132.09,132.91,143.83,120.29,143.86,104.08Z"/><path class="cls-4" d="M23,79.09c9.67-5,19.21-5.61,27.77,2,9.14,8.13,11.3,18.69,7.64,30-3.54,10.93-11.3,18.06-23,19.29-9.87,1-16.62-4.27-21.14-12.71-2.22-4.92-2.61-10.15-2.68-15.44C12.71,93.17,16.08,85.25,23,79.09ZM32.8,89.92C25,89.85,16.74,95.68,15,102.59c-.37,1.46-.78,3.08.88,4s2.41-.58,3.12-1.63c8.25-12.34,23.33-9.77,28.78,3.81.69,1.73,1.44,3.83,3.73,3s1.51-3.11,1.24-4.82A20.73,20.73,0,0,0,32.8,89.92Z"/><path class="cls-5" d="M143.7,74c-12.71-3.85-25.89-5.62-38.8-8.56C99.59,64.33,94.29,63.12,89,62.1c-14.61-2.8-29.24-5.31-44.22-3.8-2.93-.37-6,.66-8.82-.83a10.44,10.44,0,0,0-1-5.67c6.75-.56,13.48-1.48,20.23-1.6A268.08,268.08,0,0,1,127,58.61l14.62,4.49c10.42,4.31,20.89,8.56,30.17,15.12,3.37,2.38,7,4.53,9.08,8.34a10,10,0,0,0-1.19,5.37c-7.37-4.45-13.81-10.4-21.92-13.68-4.16-1.68-8.32-3.32-12.88-3.52l0,.08Z"/><path class="cls-6" d="M55.48,266.44c0-.6.09-1.19.13-1.78,4.8,1.4,9.59.8,14.37-.05-1.08,6.65.58,11.54,7.76,13.77,3,.93,4,4.15,3.35,7.07s-3.51,1.9-5.47,1.92q-16.94.17-33.88.07c-2.06,0-4.73.73-5.8-1.7-1-2.25.18-4.54,1.33-6.6,1.85-3.33,5.07-4.47,8.46-4.2,5.57.44,8.38-2.09,9.4-7.24C55.25,267.28,55.36,266.86,55.48,266.44Z"/><path class="cls-6" d="M132.38,265.83c2.3,8.78,2.31,8.78,11,9.85,2.52.31,5,.94,6.55,3.11s3.09,4.7,2,7.34c-1,2.44-3.78,1.55-5.83,1.56q-17.19.06-34.38-.1c-2,0-4.86,1.07-5.49-1.88-.69-3.23,1-5.79,3.95-7.33,2.71-1.4,6.26-1.76,6.86-5.71.08-.42.17-.83.25-1.25.1-1.59.19-3.18.29-4.78A23.08,23.08,0,0,0,132.38,265.83Z"/><path class="cls-1" d="M70,264.61c-4.78.85-9.57,1.45-14.37.05-10.91-5.48-13-15.12-12.35-26.1,9.12,5,17.63,11.27,28,13.77,3.38.81,6.71,1.78,10.07,2.68C78.82,259.71,74.3,262,70,264.61Z"/><path class="cls-1" d="M132.38,265.83a23.08,23.08,0,0,1-14.88.81c-5.75-1.88-10.46-5-12.88-10.85a117.3,117.3,0,0,0,37.88-12.13C142.06,252.39,139.69,260.23,132.38,265.83Z"/><path class="cls-7" d="M117.21,271.42c-.08.42-.17.83-.25,1.25C117,272.25,117.13,271.84,117.21,271.42Z"/><path class="cls-7" d="M55.48,266.44c-.12.42-.23.84-.35,1.26C55.25,267.28,55.36,266.86,55.48,266.44Z"/><path class="cls-8" d="M53.16,136.33a51.37,51.37,0,0,1,10.41-24.41c4.62-5.87,10.39-6.16,15.78-1,6.69,6.41,9.36,14.29,8.44,23.45-4.31,3.18-6.69,8-10.09,11.95C71.06,139.22,62.7,136.33,53.16,136.33Zm20.39-11.2a2.2,2.2,0,0,0-2.26-2c-1.59,0-2.33,1.12-2.24,2.65s1,2,2.37,1.83A2.32,2.32,0,0,0,73.55,125.13Z"/><path class="cls-6" d="M77.7,146.32c3.4-3.95,5.78-8.77,10.09-11.95.36,1.08.71,2.16,1.07,3.24-.85,3.66-3,6.53-5.48,9.26C81.22,149.29,79.3,149.55,77.7,146.32Z"/><path class="cls-9" d="M154.52,138.07c1.42-.13,2.11.4,2.06,1.31a3.33,3.33,0,0,1-2.71,3.11c-1.11.29-2-.28-1.86-1.55C152.2,139.26,153.56,138.58,154.52,138.07Z"/><path class="cls-10" d="M58.14,111.31l.42.25-.41-.26Z"/><path class="cls-9" d="M110.15,211.72c-1.82.1-3.5-.33-4.41-2.27-1-2.23-.38-3.95,2.1-3.39,2.94.65,5.42.94,7.7-1.42a1.61,1.61,0,0,1,2.58.21,2.13,2.13,0,0,1,.08,2.74A8.9,8.9,0,0,1,110.15,211.72Z"/><path class="cls-9" d="M101.49,189.73a11.73,11.73,0,0,1-7-2c-.95-.66-1.87-1.67-1.26-2.92.71-1.46,1.9-.89,2.91-.23,3.43,2.25,6.7,2.6,9.73-.7a1.35,1.35,0,0,1,2.13-.14,2,2,0,0,1,.29,2.69C106.69,188.82,104.29,189.71,101.49,189.73Z"/><path class="cls-9" d="M83.83,215.68c-1-.28-2.12-.52-3.19-.92-1.89-.71-4.23-1.7-3.21-4,.88-2,2.83-.69,4.2.22,1.78,1.18,3.08.33,4.38-.87s2.59-2,3.86-.47c1.62,1.91-.4,2.93-1.47,4A8,8,0,0,1,83.83,215.68Z"/><path class="cls-9" d="M60,204.63a6.72,6.72,0,0,1-4.65-1.31c-1.5-1.17-4.09-2.43-2.91-4.52,1.42-2.48,3,.27,4.46.93a6.37,6.37,0,0,0,4.3.16c1.61-.32,3.71-.6,4.11,1.51s-2,2.19-3.39,2.77A9.32,9.32,0,0,1,60,204.63Z"/><path class="cls-9" d="M78.33,234.85a22.46,22.46,0,0,1-3.37-.73c-1.39-.51-3.16-1.21-2.75-3,.49-2.12,2.3-1.36,3.68-.88a4.84,4.84,0,0,0,4.7-.65c1.26-.89,2.83-1.65,3.82.18.78,1.44-.6,2.41-1.5,3.35A5.94,5.94,0,0,1,78.33,234.85Z"/><path class="cls-9" d="M101.08,241.62c-2.34.06-3.79-.09-4.92-1.25-.7-.72-1.38-1.5-.92-2.58s1.54-1.12,2.51-.89c1.58.38,3.09,1,4.79.4,1.46-.51,3.52-1.55,3.91,1,.31,2-1.76,2.54-3.29,3.06A7.62,7.62,0,0,1,101.08,241.62Z"/><path class="cls-9" d="M53.65,225.6a6.26,6.26,0,0,1-4.16-1.27,2.44,2.44,0,0,1-1-1.54c0-1.51,1.45-2.37,2.26-1.76,2.55,1.9,6.32-2.14,7.88,1.41.9,2.05-1.68,2.76-3.48,3.15A7.3,7.3,0,0,1,53.65,225.6Z"/><path class="cls-9" d="M120.3,230.69c-1.84,0-4.08,0-4.2-2.36-.17-3.41,2.72-1.68,4.32-2.13,1.29-.36,2.4-2.2,3.89-.61a2.86,2.86,0,0,1,.18,3.25C123.68,230.66,122,230.7,120.3,230.69Z"/><path class="cls-11" d="M141.63,63.1,127,58.61c-3.1-6.14-8.67-10.28-13.3-15.7C120.61,43.11,136.41,54.79,141.63,63.1Z"/><path class="cls-4" d="M143.86,104.08c0,16.21-11.77,28.83-26.86,28.85-14.26,0-26.09-12.75-26-28,.15-16.32,12-29,27-28.81C132.72,76.28,143.89,88.36,143.86,104.08Zm-31.11,1.31c-.15,9.24,5.09,16.61,12,16.89,6.56.27,12.3-6.77,12.85-15.77.56-9.2-5-17.15-12-17.29S112.9,96.16,112.75,105.39Z"/><path class="cls-1" d="M44.74,58.3c15-1.51,29.61,1,44.22,3.8,5.33,1,10.63,2.23,15.94,3.35a53,53,0,0,0-26,13.9c-3.53,3.35-6.11,3.89-9.24-.2A73.76,73.76,0,0,0,44.74,58.3Zm25.48,4.62c-.93.12-2.24.28-2,1.48.45,2,2.39,2.93,4,3.84.93.51,1.51-.43,1.5-1.29C73.75,64.68,72.38,63.47,70.22,62.92Z"/><path class="cls-7" d="M143.7,74l1.16.8Z"/><path class="cls-12" d="M32.8,89.92a20.73,20.73,0,0,1,19.92,17c.27,1.71,1,4-1.24,4.82s-3-1.26-3.73-3C42.3,95.16,27.22,92.59,19,104.93c-.71,1-1.49,2.51-3.12,1.63s-1.25-2.51-.88-4C16.74,95.68,25,89.85,32.8,89.92Z"/><path class="cls-13" d="M73.55,125.13a2.32,2.32,0,0,1-2.13,2.47c-1.35.16-2.29-.37-2.37-1.83s.65-2.61,2.24-2.65A2.2,2.2,0,0,1,73.55,125.13Z"/><path class="cls-12" d="M112.75,105.39c.15-9.23,5.77-16.32,12.82-16.17s12.6,8.09,12,17.29c-.55,9-6.29,16-12.85,15.77C117.84,122,112.6,114.63,112.75,105.39Zm18.55-2.7c-.33-1.82-.84-3.86-3.38-3.89s-3.26,1.88-3.28,4.06c0,2,.73,3.71,3,3.87C130.13,106.9,130.94,105.08,131.3,102.69Z"/><path class="cls-9" d="M70.22,62.92c2.16.55,3.53,1.76,3.57,4,0,.86-.57,1.8-1.5,1.29-1.65-.91-3.59-1.81-4-3.84C68,63.2,69.29,63,70.22,62.92Z"/><path class="cls-4" d="M131.3,102.69c-.36,2.39-1.17,4.21-3.7,4-2.23-.16-3-1.86-3-3.87,0-2.18.71-4.09,3.28-4.06S131,100.87,131.3,102.69Z"/></g></g></svg>