<svg xmlns="http://www.w3.org/2000/svg" viewBox="0 0 312.32 274.71"><defs><style>.cls-1{fill:#296374;}.cls-2{fill:#61a0ad;}.cls-3{fill:#db3827;}.cls-4{fill:#3d302b;}.cls-5{fill:#dcdcdb;}.cls-6{fill:#e39b2d;}.cls-7{fill:#f8d48a;}.cls-8{fill:#eceecf;}.cls-9{fill:#383737;}.cls-10{fill:#ab2d25;}.cls-11{fill:#414042;}.cls-12{fill:#c39a5e;}</style></defs><g id="Layer_2" data-name="Layer 2"><g id="Layer_1-2" data-name="Layer 1"><path class="cls-1" d="M290.67,87.6c4.57-1.92,7.08-6.44,11.19-8.93,2.61-1.58,5-4.72,8.41-2.46,3,2,2,5.32,1.34,8.27-2.58,11.2-9.06,20.2-16.31,28.75-1.47,1.73-3.1,3.33-5.19,5.56,4.27.77,7.06-1.52,10.2-1.8,3.67-.33,8.13-2.58,10.61,1.23s-.58,7.41-2.73,10.47c-4.08,5.81-9.82,9.82-16.05,13.18.4,2.16,2.56,1.93,3.66,3.06,2.62,2.71,2.1,5.46.35,8.16-4.3,6.64-10.79,10.19-18.19,12.23-2.68.74-5.48.64-4.43,5.05.64,2.67-2.27,3.77-4.42,4.65a42.65,42.65,0,0,1-17.55,3.07c-3.63-.1-4.92,1.26-5.64,4.55a101.35,101.35,0,0,1-13,32.22c-1.66,2.67-1.29,4.74.41,7.26,3.24,4.82,6.2,9.84,9.1,14.88,1.64,2.85,3.65,5.93.79,9.16-3,3.38-6.65,5.55-11.39,4.91a11.44,11.44,0,0,1-3.81-1.14c-3.26-1.75-5.76-1.09-8.41,1.49-2.47,2.42-5.9,3-8.66.61-3.65-3.11-6.87-3.32-10.48-.17a12.59,12.59,0,0,1-3.14,1.47,57.27,57.27,0,0,1-14.38-.86c-2.86-2.35-6-4.5-7.26-8.22a14.18,14.18,0,0,1,2.74-1c16.91-2.36,31.68-9.49,45.06-19.87,5.65-4.39,6.42-6.27,4.23-13.22-3.16-10-6.23-20-9.66-29.9-2.06-5.94-3.69-12.15-7.61-17.26-3.14-4.09-6.95-6.53-12.48-5-10.81,3-21.91,3-33,3.55-12,.58-23.85,0-35.77-.2a64.22,64.22,0,0,1,1.79-6.17c4-10,10.46-18.36,16.69-26.94,3.35.24,5.12,2.89,7.3,4.86,19.74,17.81,52.42,8.14,58.59-17.63,4.08-17.08,2.93-33.39-10.06-47a72,72,0,0,1,34.37,11.4c3,1.92,5.79,4.48,9.67,4.69,2.84,9.38,2.76,9.3,10.12,2.09C268,76.64,277.74,66,288.76,56.63a20.55,20.55,0,0,1,3.68-2.53c5.08-2.68,8.88-.51,9.24,5.18.39,6.22-1.7,11.75-4.69,17-2.11,3.73-4.34,7.41-6.51,11.11l-.89,1.09-.18.36.12-.42Zm-77.06,41.08c-1.36.43-2.56,1.26-2.49,3a1.41,1.41,0,0,0,1.72,1.3,3,3,0,0,0,2.6-3C215.45,129,214.71,128.57,213.61,128.68Z"/><path class="cls-2" d="M129.18,161.41c11.92.19,23.81.78,35.77.2,11.13-.53,22.23-.53,33-3.55,5.53-1.55,9.34.89,12.48,5,3.92,5.11,5.55,11.32,7.61,17.26,3.43,9.89,6.5,19.91,9.66,29.9,2.19,7,1.42,8.83-4.23,13.22-13.38,10.38-28.15,17.51-45.06,19.87a14.18,14.18,0,0,0-2.74,1,140.65,140.65,0,0,1-24.85-1.8c-1-1.29-2.56-1.56-4-1.93-11.54-3-21.82-8.64-31.58-15.33a46.36,46.36,0,0,0-3.58-4.06c-9.09-8.12-15.16-18.16-19-29.64s-5.24-23.24-5.87-35.19c-.22-4.1,1.44-5.75,5.4-3.9,7.33,3.43,15.42,3.87,23.06,6,1.06,3.45,2,7,3.24,10.34.92,2.43,2.09,5.2,5.51,4.64,3.17-.53,3.07-3.41,3.57-5.8C128.08,165.53,128.66,163.48,129.18,161.41Zm45.29,40a9.24,9.24,0,0,0,7.33-3.73,2.3,2.3,0,0,0,.22-3.15c-1-1.19-2.12-.86-3,.08-1.89,2-4,1.9-6.35,1a2,2,0,0,0-2.59.81,2.68,2.68,0,0,0,.27,2.81A4.45,4.45,0,0,0,174.47,201.36Zm-29.84-3c-1.83.65-3.25,1.31-2,3.2s3.2,3.64,5.67,3.52a7.89,7.89,0,0,0,6.68-3.72c1.07-1.77.08-3.5-1.63-2.72C150.2,200,147.41,202.11,144.63,198.32Zm-19.52-5a9.36,9.36,0,0,0,2.45-.22c1.62-.59,4.1-.82,3.57-3.23-.44-2-2.62-1.7-4.21-1.35a5.9,5.9,0,0,1-4.29-.29c-1.39-.7-3-3.29-4.46-.67-1.27,2.3,1.18,3.35,2.76,4.5A6.43,6.43,0,0,0,125.11,193.36Zm40.82-14a7.86,7.86,0,0,0,7.07-3,1.71,1.71,0,0,0,.15-2.26A1.44,1.44,0,0,0,171,174c-3.35,3.33-6.66,2.9-10.1.19-.82-.65-1.89-.93-2.61.07s-.14,1.91.58,2.64A8.57,8.57,0,0,0,165.93,179.34Zm-23.3,44a7.83,7.83,0,0,0,6-2.48c1-1.06,1.42-2.32.26-3.54s-2.14-.44-3,.41c-1.81,1.78-3.69,2-5.81.55-1.14-.81-2.23-.71-2.91.62s0,2.27,1,3A7.06,7.06,0,0,0,142.63,223.31Zm23.21,7a6,6,0,0,0,1.48-.14c1.8-.64,4.49-1,3.89-3.52-.53-2.26-2.68-.93-4.17-.55a7.41,7.41,0,0,1-4.37-.26c-.95-.33-2-.59-2.54.62-.55,1.36.45,2.14,1.46,2.76A7.13,7.13,0,0,0,165.84,230.27Zm19-11a4.32,4.32,0,0,0,4.42-2.53,2,2,0,0,0-.3-2.3c-1.51-1.66-2.63,0-3.9.5-.3.11-.64.14-.94.27-1.26.58-4-1-3.65,1.74C180.73,219,183,219.33,184.87,219.29Zm-65-10c-1.58.66-4.61-1.16-4.56,2,0,2.33,2.63,2,4.4,2s4.69.48,4.61-2.31S121.41,209.82,119.83,209.26Zm-14.59-18.9c-1.39.18-3.43-.28-3.07,2,.28,1.84,2.14,2.48,3.77,2.63,1.85.17,3.46-.9,3.26-2.79C109,190,106.79,190.54,105.24,190.36Z"/><path class="cls-3" d="M100.81,53.61C88,33.5,93.91,14.56,116,5.61,132.35-1,149.46-1,166.55,1.68c32.6,5.06,60.93,18.31,82.16,44.48,4.53,5.59,8.44,11.58,9.92,18.77,1.67,8.06-1.83,13-10,14.65-2.71-3-6.12-5-9.58-7a162,162,0,0,0-34.32-14.19l-1.3-.67a1.77,1.77,0,0,1-.7-.24c-7.62-8.94-17.69-14-28.37-18.15,4.19,5.74,10.27,9.44,14.33,15.12-1.31-.16-2.62-.27-3.92-.48C156.79,49.37,128.81,48.32,100.81,53.61Z"/><path class="cls-1" d="M115.33,158.43c-7.65-2.16-15.74-2.6-23.07-6-4-1.85-5.62-.2-5.4,3.9.63,11.95,2.07,23.77,5.87,35.19-2.37-.06-4.85,1.12-6.9-1.4-1.4-1.72-3.09-.18-4.48.55-4.92,2.54-10,4.48-15.62,4.7-2.27.09-5.3-.29-5.28-2.6,0-4.62-2.73-3.47-5.16-3.32-10.81.67-21.3-.3-30.88-5.9-1.14-.66-3.78-.57-2.49-3.25,5.08-.31,9.14-2.7,12.57-6.26,3.15-3.28,5-7.15,3.57-11.74-1.46-4.75-4.53-9-1.87-14.55.83-1.73-.82-4.47-2.26-6.36-3-4-6.73-6.92-11.77-7.67a9.57,9.57,0,0,1-5.4-2.19c0-4.31,0-8.63.1-12.93A18,18,0,0,1,22.08,106c4.4-4.38,9.56-3.37,11.7,2.43,1.14,3.07,1.5,6.43,2.19,9.67,1.82,8.48,4.19,10.44,12.88,10.4,12.28-.06,24.57-.19,36.85-.29.41,7.39,2.4,9.32,10.1,10.13,6.19.66,12.15-.42,18.08-2A98,98,0,0,0,115.33,158.43Z"/><path class="cls-2" d="M203.49,68.54c13,13.6,14.14,29.91,10.06,47C207.38,141.3,174.7,151,155,133.16c-2.18-2-4-4.62-7.3-4.86,4.59-10.15.14-17.9-6.62-25.08-5.23-5.55-11.34-5.4-17.86-3-.07-1.48-.2-3-.21-4.43-.18-19.39-10.35-27.93-29-24.37,1.44-4.65,3.17-9.13,6.86-12.55,2.93,1.17,5.94.38,8.91.36,5.54-.72,9.51,2.13,13,5.83,3,3.13,5.81,6.4,8.73,9.57,1.33,1.45,3.05,2.66,4.7.86,5.6-6.12,12.91-9.76,19.71-14.17,4-.34,7.93.65,11.85,1.32C179.62,64.71,191.78,65.25,203.49,68.54Zm-51,27.29a36.21,36.21,0,0,0,3.59,16c7,14.78,24.63,19,36.72,8.43,9.39-8.21,11.45-19.23,9.74-31-1.74-12-13.17-21.53-25.16-21.69-12.29-.16-20.93,7-23.73,19.9C153.06,90.2,152.87,93,152.49,95.83Z"/><path class="cls-4" d="M203.49,68.54c-11.71-3.29-23.87-3.83-35.78-5.86-3.92-.67-7.82-1.66-11.85-1.32a73.36,73.36,0,0,0-24.08-2.81l-1,0c-7,0-14.09-.7-21.07.76-3,0-6,.81-8.91-.36l0-5.3c28-5.29,56-4.24,83.94.36,1.3.21,2.61.32,3.92.48a58.17,58.17,0,0,0,14,3,1.77,1.77,0,0,0,.7.24l1.3.67A162,162,0,0,1,239,72.58c3.46,2,6.87,4,9.58,7a8.65,8.65,0,0,1-1.08,5c-3.88-.21-6.63-2.77-9.67-4.69A72,72,0,0,0,203.49,68.54Z"/><path class="cls-1" d="M21.91,178.8c-2,.17-3.95.28-5.92.51-4.76.54-7.92-1.62-10-5.76-3.65-7.39-6-15.13-6-23.44-.07-12.59,3.48-16.55,16-18,1.71,3.76,5.83,3.26,8.76,4.82,10.87,5.8,11.89,11.8,2.91,19.54,5.42.21,8.38,2.92,8.13,7.94-.19,3.95-1.75,7.49-5.22,9.68C27.84,175.89,24.82,177.26,21.91,178.8Z"/><path class="cls-5" d="M93.92,71.46c18.7-3.56,28.87,5,29.05,24.37,0,1.47.14,3,.21,4.43-1.83,5.42-3.21,11-6.41,15.9-13.29,10.9-18.68,11.07-30.53,1-3-6.46-5.65-13-5.8-20.32C80.2,85.84,84.51,77.3,93.92,71.46Zm5.49,13.93c-1.33,0-2.66-.06-4,0-7.91.46-9.61,2.17-9.92,9.94a33.86,33.86,0,0,0,0,3.49c.48,9,5,15.45,11.26,16.23s12.82-5.2,15-13.61C115,88.79,112.44,85.41,99.41,85.39Z"/><path class="cls-6" d="M139.07,252.09c-.78,6.11-.71,11.62,6.75,14,2.83.9,3.61,4,2.87,6.75s-3.35,1.51-5.14,1.54c-11,.18-22,.32-32.93.21-2.55,0-6.6,1.09-7.09-2.62s1.6-7.05,5.31-8.86a14,14,0,0,1,5.36-.95c7.56-.53,9.44-2.24,10.81-9.75Z"/><path class="cls-6" d="M183,252.47a57.27,57.27,0,0,0,14.38.86c.1,5.23,2.5,8.37,7.9,9.12a10.1,10.1,0,0,1,6.07,3.21c2,2.16,3.59,4.95,2.55,7.64-.88,2.26-3.87,1-5.89,1.06q-16.44.18-32.89.05c-2.18,0-5.28.78-6-2.09s.84-5.49,3.3-7.31a4.73,4.73,0,0,1,2.18-1.13C182.06,263.48,183.7,258.87,183,252.47Z"/><path class="cls-1" d="M139.07,252.09l-14.06.3c-1.9-2.29-3.9-4.5-5.67-6.89-4.55-6.11-5.57-13-4-20.31,9.76,6.69,20,12.29,31.58,15.33,1.4.37,3,.64,4,1.93C148.31,247.35,143.5,249.48,139.07,252.09Z"/><path class="cls-2" d="M86.24,117.15c11.85,10.08,17.24,9.91,30.53-1q-1.44,10.08-2.89,20.17c-5.93,1.58-11.89,2.66-18.08,2-7.7-.81-9.69-2.74-10.1-10.13Z"/><path class="cls-4" d="M21.91,178.8c2.91-1.54,5.93-2.91,8.71-4.66,3.47-2.19,5-5.73,5.22-9.68.25-5-2.71-7.73-8.13-7.94,9-7.74,8-13.74-2.91-19.54-2.93-1.56-7-1.06-8.76-4.82l.73-.66a9.51,9.51,0,0,0,5.39,2.19c5,.75,8.77,3.72,11.77,7.67,1.44,1.89,3.09,4.63,2.26,6.36-2.66,5.51.41,9.8,1.87,14.55,1.42,4.59-.42,8.46-3.57,11.74-3.43,3.56-7.49,6-12.57,6.26C21.92,179.78,21.92,179.29,21.91,178.8Z"/><path class="cls-7" d="M113.88,136.33q1.44-10.08,2.89-20.17c3.2-4.87,4.58-10.48,6.41-15.9,6.52-2.44,12.63-2.59,17.86,3,6.76,7.18,11.21,14.93,6.62,25.08-6.23,8.58-12.72,17-16.69,26.94a64.22,64.22,0,0,0-1.79,6.17c-.52,2.07-1.1,4.12-1.54,6.2-.5,2.39-.4,5.27-3.57,5.8-3.42.56-4.59-2.21-5.51-4.64-1.29-3.37-2.18-6.89-3.24-10.34A98.59,98.59,0,0,1,113.88,136.33Zm19.64-27.75a2.59,2.59,0,0,0-2.24,2.66,1.81,1.81,0,0,0,2.21,2,2.31,2.31,0,0,0,2.12-2.35C135.72,109.55,135.16,108.67,133.52,108.58Z"/><path class="cls-8" d="M213.61,128.68c1.1-.11,1.84.33,1.83,1.24a3,3,0,0,1-2.6,3,1.41,1.41,0,0,1-1.72-1.3C211.05,129.94,212.25,129.11,213.61,128.68Z"/><path class="cls-9" d="M289.59,88.5l.89-1.09.19.18-1.14.85Z"/><path class="cls-9" d="M289.53,88.44l-.12.42.18-.36Z"/><path class="cls-8" d="M174.47,201.36a4.45,4.45,0,0,1-4.1-2.17,2.68,2.68,0,0,1-.27-2.81,2,2,0,0,1,2.59-.81c2.35.89,4.46,1,6.35-1,.86-.94,2-1.27,3-.08a2.3,2.3,0,0,1-.22,3.15A9.24,9.24,0,0,1,174.47,201.36Z"/><path class="cls-8" d="M144.63,198.32c2.78,3.79,5.57,1.71,8.76.28,1.71-.78,2.7,1,1.63,2.72a7.89,7.89,0,0,1-6.68,3.72c-2.47.12-4.33-1.57-5.67-3.52S142.8,199,144.63,198.32Z"/><path class="cls-8" d="M125.11,193.36a6.43,6.43,0,0,1-4.18-1.26c-1.58-1.15-4-2.2-2.76-4.5,1.45-2.62,3.07,0,4.46.67a5.9,5.9,0,0,0,4.29.29c1.59-.35,3.77-.68,4.21,1.35.53,2.41-1.95,2.64-3.57,3.23A9.36,9.36,0,0,1,125.11,193.36Z"/><path class="cls-8" d="M165.93,179.34a8.57,8.57,0,0,1-7.1-2.47c-.72-.73-1.28-1.68-.58-2.64s1.79-.72,2.61-.07c3.44,2.71,6.75,3.14,10.1-.19a1.44,1.44,0,0,1,2.19.14,1.71,1.71,0,0,1-.15,2.26A7.86,7.86,0,0,1,165.93,179.34Z"/><path class="cls-8" d="M142.63,223.31a7.06,7.06,0,0,1-4.45-1.44c-1-.73-1.62-1.74-1-3s1.77-1.43,2.91-.62c2.12,1.49,4,1.23,5.81-.55.86-.85,1.89-1.58,3-.41s.74,2.48-.26,3.54A7.83,7.83,0,0,1,142.63,223.31Z"/><path class="cls-8" d="M165.84,230.27a7.13,7.13,0,0,1-4.25-1.09c-1-.62-2-1.4-1.46-2.76.49-1.21,1.59-.95,2.54-.62a7.41,7.41,0,0,0,4.37.26c1.49-.38,3.64-1.71,4.17.55.6,2.54-2.09,2.88-3.89,3.52A6,6,0,0,1,165.84,230.27Z"/><path class="cls-8" d="M184.87,219.29c-1.91,0-4.14-.31-4.37-2.32-.3-2.76,2.39-1.16,3.65-1.74.3-.13.64-.16.94-.27,1.27-.47,2.39-2.16,3.9-.5a2,2,0,0,1,.3,2.3A4.32,4.32,0,0,1,184.87,219.29Z"/><path class="cls-8" d="M119.83,209.26c1.58.56,4.38-1,4.45,1.73s-2.72,2.28-4.61,2.31-4.37.32-4.4-2C115.22,208.1,118.25,209.92,119.83,209.26Z"/><path class="cls-8" d="M105.24,190.36c1.55.18,3.73-.34,4,1.88.2,1.89-1.41,3-3.26,2.79-1.63-.15-3.49-.79-3.77-2.63C101.81,190.08,103.85,190.54,105.24,190.36Z"/><path class="cls-10" d="M202.71,57.48a58.17,58.17,0,0,1-14-3c-4.06-5.68-10.14-9.38-14.33-15.12C185,43.51,195.09,48.54,202.71,57.48Z"/><path class="cls-10" d="M204.71,58.39l-1.3-.67Z"/><path class="cls-5" d="M152.49,95.83c.38-2.79.57-5.63,1.16-8.37,2.8-12.88,11.44-20.06,23.73-19.9,12,.16,23.42,9.73,25.16,21.69,1.71,11.77-.35,22.79-9.74,31-12.09,10.56-29.75,6.35-36.72-8.43A36.21,36.21,0,0,1,152.49,95.83Zm17.28-9.55a62.87,62.87,0,0,0-9.41,1c-2.38.54-3.76,1.75-4.07,4.29-.87,7,.13,13.6,4.29,19.4,5.36,7.45,15,7.55,20.74.31,3.39-4.31,4.76-9.42,5.29-14.77.69-7-.12-8.1-7-9.2C176.36,86.84,173.05,86.63,169.77,86.28Z"/><path class="cls-1" d="M109.69,59.27c7-1.46,14-.8,21.07-.76-1.37,2.24-1.07,4.11,1.29,5.43.94.52,2,.58,2.46-.65.79-2.27-1-3.25-2.39-4.38a2.9,2.9,0,0,1-.34-.36,73.36,73.36,0,0,1,24.08,2.81c-6.8,4.41-14.11,8-19.71,14.17-1.65,1.8-3.37.59-4.7-.86-2.92-3.17-5.75-6.44-8.73-9.57C119.2,61.4,115.23,58.55,109.69,59.27Z"/><path class="cls-8" d="M131.78,58.55a2.9,2.9,0,0,0,.34.36c1.41,1.13,3.18,2.11,2.39,4.38-.43,1.23-1.52,1.17-2.46.65-2.36-1.32-2.66-3.19-1.29-5.43Z"/><path class="cls-11" d="M99.41,85.39c13,0,15.61,3.4,12.35,16.06-2.17,8.41-8.75,14.39-15,13.61S86,107.84,85.51,98.83a33.86,33.86,0,0,1,0-3.49c.31-7.77,2-9.48,9.92-9.94C96.75,85.33,98.08,85.39,99.41,85.39Zm.77,12.55c-.1-2-.85-3.92-3.26-4.11S93.18,95.15,93,97.44c-.19,2.46.92,4.45,3.48,4.59C98.79,102.15,100,100.39,100.18,97.94Z"/><path class="cls-12" d="M133.52,108.58c1.64.09,2.2,1,2.09,2.31a2.31,2.31,0,0,1-2.12,2.35,1.81,1.81,0,0,1-2.21-2A2.59,2.59,0,0,1,133.52,108.58Z"/><path class="cls-11" d="M169.77,86.28c3.28.35,6.59.56,9.85,1.08,6.87,1.1,7.68,2.18,7,9.2-.53,5.35-1.9,10.46-5.29,14.77-5.69,7.24-15.38,7.14-20.74-.31-4.16-5.8-5.16-12.4-4.29-19.4.31-2.54,1.69-3.75,4.07-4.29A62.87,62.87,0,0,1,169.77,86.28Zm-.84,8.18c-2.51.21-4,1.51-4.15,4s1.08,4.61,3.8,4.84c2.54.22,3.92-1.48,4.12-3.93C172.91,96.71,171.58,95.05,168.93,94.46Z"/><path class="cls-5" d="M100.18,97.94c-.23,2.45-1.39,4.21-3.7,4.09-2.56-.14-3.67-2.13-3.48-4.59.18-2.29,1.58-3.8,3.92-3.61S100.08,95.92,100.18,97.94Z"/><path class="cls-5" d="M168.93,94.46c2.65.59,4,2.25,3.77,4.93-.2,2.45-1.58,4.15-4.12,3.93-2.72-.23-3.94-2.2-3.8-4.84S166.42,94.67,168.93,94.46Z"/></g></g></svg>